<svg height="512" width="512" xmlns="http://www.w3.org/2000/svg"><path d="M396.001 398.333v-74.755c0-40.183-28.391-74.767-67.804-82.594l-20.872-4.145a38.278 38.278 0 01-29.177-26.446h-44.294a38.28 38.28 0 01-29.177 26.446l-20.872 4.145c-39.413 7.828-67.804 42.412-67.804 82.594v74.755z" fill="#a0e5a5"/><path d="M214.231 233.917c7.63 15.346 23.468 25.892 41.769 25.892 18.302 0 34.141-10.547 41.771-25.895l.15-.259a38.274 38.274 0 01-19.774-23.262h-44.294a38.273 38.273 0 01-19.962 23.353z" fill="#ffdcd5"/><path d="M256.001 213.19c-48.834 0-88.421-39.587-88.421-88.421V98.421C167.58 49.587 207.167 10 256 10c48.834 0 88.421 39.587 88.421 88.421v26.348c.001 48.833-39.587 88.421-88.42 88.421z" fill="#ffdcd5"/><g fill="#6d92ac"><path d="M172.603 102.215c53.37 0 97.787-38.33 107.224-88.964A88.493 88.493 0 00256.001 10c-48.834 0-88.421 39.587-88.421 88.421v3.792l5.023.002z"/><path d="M339.398 102.215c-53.37 0-97.787-38.33-107.224-88.964A88.506 88.506 0 01256.001 10c48.834 0 88.421 39.587 88.421 88.421v3.792l-5.024.002zM89.378 156.54l23.625-6.33-6.33 23.624c15.911 1.645 32.398-3.614 44.591-15.807 15.836-15.836 19.989-38.916 12.49-58.568-19.652-7.499-42.732-3.346-58.568 12.49-12.194 12.192-17.453 28.68-15.808 44.591zM422.623 156.54l-23.625-6.33 6.33 23.624c-15.911 1.645-32.398-3.614-44.591-15.807-15.836-15.836-19.989-38.916-12.49-58.568 19.652-7.499 42.732-3.346 58.568 12.49 12.194 12.192 17.453 28.68 15.808 44.591z"/></g><path d="M10.229 422.634l67.178-67.178a120.23 120.23 0 0185.016-35.215 84.175 84.175 0 0159.519 24.653h65.579c15.244 0 27.602 12.358 27.602 27.602s-12.358 27.602-27.602 27.602h-76.019 78.049a151.885 151.885 0 00111.939-49.227l51.08-55.698c9.78-10.665 26.026-12.243 37.677-3.661 13.638 10.046 15.469 29.735 3.918 42.124l-64.776 69.475a185.148 185.148 0 01-135.418 58.888H156.545L116.544 502H10.228z" fill="#ffd0c7"/><g><path d="M273.799 167.889c3.905-3.905 3.905-10.237-.001-14.142-3.904-3.905-10.237-3.905-14.142 0-1.235 1.236-2.679 1.42-3.429 1.42s-2.193-.185-3.429-1.42c-3.904-3.905-10.235-3.905-14.142 0-3.906 3.905-3.906 10.237-.001 14.142 4.693 4.694 10.934 7.279 17.571 7.279s12.88-2.585 17.573-7.279zM248.97 452h-92.425a10.003 10.003 0 00-7.071 2.929l-40.002 40.001c-3.905 3.905-3.905 10.237 0 14.142 1.953 1.953 4.512 2.929 7.071 2.929s5.118-.977 7.071-2.929L160.688 472h88.282c5.522 0 10-4.477 10-10s-4.478-10-10-10z"/><path d="M511.608 310.769a38.362 38.362 0 00-15.432-27.308 38.262 38.262 0 00-50.978 4.954L406 331.158v-7.58c0-44.813-31.902-83.674-75.855-92.403l-20.872-4.146a28.225 28.225 0 01-17.085-10.733c25.865-10.262 46.379-31.186 56.097-57.318a64.747 64.747 0 005.381 6.12c12.288 12.287 28.723 19.034 45.902 19.034 2.252 0 4.518-.116 6.788-.351a10.002 10.002 0 008.631-12.535l-1.848-6.894 6.896 1.847a10 10 0 0012.535-8.631c2.024-19.588-4.786-38.792-18.684-52.69-15.836-15.836-38.608-22.253-60.088-17.495C348.294 38.291 306.538 0 256 0s-92.294 38.291-97.798 87.383c-21.48-4.758-44.252 1.658-60.088 17.495-13.898 13.899-20.708 33.104-18.683 52.69a10.003 10.003 0 0012.535 8.631l6.895-1.847-1.848 6.894a10 10 0 008.631 12.535c2.271.235 4.535.351 6.789.351 17.179-.001 33.615-6.748 45.901-19.034a64.747 64.747 0 005.381-6.12c9.719 26.132 30.233 47.056 56.098 57.318a28.225 28.225 0 01-17.084 10.733l-20.872 4.146c-43.773 8.693-75.582 47.272-75.844 91.85-13.067 6.288-25.12 14.803-35.677 25.359L3.157 415.563c-3.905 3.905-3.905 10.237 0 14.142 1.953 1.953 4.512 2.929 7.071 2.929s5.118-.976 7.071-2.929l67.178-67.178c20.819-20.82 48.501-32.286 77.945-32.286 19.813 0 38.438 7.715 52.447 21.725a10.003 10.003 0 007.071 2.929h65.578c9.706 0 17.603 7.896 17.603 17.602s-7.896 17.602-17.603 17.602h-76.019c-5.522 0-10 4.477-10 10s4.478 10 10 10h78.049c45.243 0 88.73-19.124 119.31-52.468l51.079-55.698a18.297 18.297 0 0124.377-2.368c4.267 3.143 6.888 7.78 7.378 13.057.491 5.278-1.229 10.319-4.844 14.196l-64.776 69.475c-23.18 24.861-52.868 42.336-85.854 50.537-5.36 1.333-8.625 6.757-7.293 12.117 1.132 4.55 5.212 7.59 9.697 7.59.799 0 1.61-.097 2.42-.298 36.754-9.137 69.832-28.607 95.659-56.307l64.776-69.475a38.363 38.363 0 0010.131-29.688zM356.176 107.387c15.438-4.151 32.123.186 43.568 11.633 6.726 6.725 11.053 15.248 12.569 24.404l-10.728-2.874a10 10 0 00-12.247 12.248l2.874 10.727c-9.155-1.517-17.68-5.844-24.404-12.568-11.446-11.448-15.784-28.132-11.632-43.57zM334.117 91.75c-24.123-2.246-46.965-12.693-64.446-29.571a118.285 118.285 0 0017.299-35.791c25.938 11.194 44.66 35.997 47.147 65.362zM256 20c3.987 0 7.904.304 11.733.881-11.659 40.2-47.686 68.963-89.874 71.182C181.109 51.787 214.902 20 256 20zM144.192 150.956c-6.725 6.725-15.247 11.052-24.404 12.568l2.874-10.727a10.001 10.001 0 00-12.247-12.248l-10.727 2.874c1.516-9.156 5.843-17.679 12.568-24.404 11.447-11.448 28.136-15.784 43.569-11.633 4.153 15.439-.186 32.123-11.633 43.57zm33.387-26.187v-12.66c30.573-1.265 58.54-14.136 79.14-34.655 21.148 20.001 48.708 32.196 77.702 34.397v12.918c0 43.241-35.18 78.421-78.421 78.421s-78.421-35.18-78.421-78.421zM256 223.189c5.488 0 10.87-.459 16.116-1.327a48.13 48.13 0 0012.041 14.744c-6.861 8.287-17.053 13.202-28.156 13.202s-21.295-4.915-28.155-13.202a48.13 48.13 0 0012.041-14.744A98.5 98.5 0 00256 223.189zm31.52 111.706h-61.567c-17.395-15.93-39.792-24.653-63.529-24.653-12.33 0-24.396 1.71-35.935 5.003 3.594-31.688 27.4-58.124 59.265-64.452l20.872-4.146a48.473 48.473 0 003.153-.739c10.514 14.923 27.542 23.901 46.222 23.901 18.681 0 35.709-8.978 46.223-23.901 1.038.279 2.089.528 3.153.739l20.872 4.146C360.871 257.668 386 288.279 386 323.578v28.686c-17.943 16.614-39.878 28.267-63.471 33.927a37.393 37.393 0 002.593-13.694c0-20.734-16.868-37.602-37.602-37.602z"/><path d="M293.968 452c-2.631 0-5.21 1.07-7.07 2.93s-2.93 4.44-2.93 7.07 1.069 5.21 2.93 7.07 4.439 2.93 7.07 2.93c2.63 0 5.21-1.07 7.069-2.93 1.86-1.86 2.931-4.44 2.931-7.07s-1.07-5.21-2.931-7.07a10.072 10.072 0 00-7.069-2.93z"/></g></svg>