<svg id="Capa_1" enable-background="new 0 0 512 512" height="512" viewBox="0 0 512 512" width="512" xmlns="http://www.w3.org/2000/svg"><g id="XMLID_675_"><g id="XMLID_43_"><path id="XMLID_2298_" d="m396.001 398.333v-74.755c0-40.183-28.391-74.767-67.804-82.594l-20.872-4.145c-13.862-2.753-25.079-12.92-29.177-26.446h-44.294c-4.098 13.525-15.315 23.693-29.177 26.446l-20.872 4.145c-39.413 7.828-67.804 42.412-67.804 82.594v74.755z" fill="#a0e5a5"/><path id="XMLID_2295_" d="m214.231 233.917c7.63 15.346 23.468 25.892 41.769 25.892 18.302 0 34.141-10.547 41.771-25.895l.15-.259c-9.402-4.614-16.654-12.962-19.774-23.262h-44.294c-3.141 10.369-10.469 18.759-19.962 23.353z" fill="#ffdcd5"/><path id="XMLID_2294_" d="m256.001 213.19c-48.834 0-88.421-39.587-88.421-88.421v-26.348c0-48.834 39.587-88.421 88.42-88.421 48.834 0 88.421 39.587 88.421 88.421v26.348c.001 48.833-39.587 88.421-88.42 88.421z" fill="#ffdcd5"/><g fill="#6d92ac"><path id="XMLID_2293_" d="m172.603 102.215c53.37 0 97.787-38.33 107.224-88.964-7.58-2.116-15.57-3.251-23.826-3.251-48.834 0-88.421 39.587-88.421 88.421v3.792c2.934.002 4.773.002 5.023.002z"/><path id="XMLID_2292_" d="m339.398 102.215c-53.37 0-97.787-38.33-107.224-88.964 7.581-2.116 15.571-3.251 23.827-3.251 48.834 0 88.421 39.587 88.421 88.421v3.792c-2.934.002-4.774.002-5.024.002z"/><path id="XMLID_2363_" d="m89.378 156.54 23.625-6.33-6.33 23.624c15.911 1.645 32.398-3.614 44.591-15.807 15.836-15.836 19.989-38.916 12.49-58.568-19.652-7.499-42.732-3.346-58.568 12.49-12.194 12.192-17.453 28.68-15.808 44.591z"/><path id="XMLID_1556_" d="m422.623 156.54-23.625-6.33 6.33 23.624c-15.911 1.645-32.398-3.614-44.591-15.807-15.836-15.836-19.989-38.916-12.49-58.568 19.652-7.499 42.732-3.346 58.568 12.49 12.194 12.192 17.453 28.68 15.808 44.591z"/></g></g><path id="XMLID_1590_" d="m10.229 422.634 67.178-67.178c22.548-22.548 53.129-35.215 85.016-35.215 22.324 0 43.733 8.868 59.519 24.653h65.579c15.244 0 27.602 12.358 27.602 27.602 0 15.244-12.358 27.602-27.602 27.602h-76.019 28.5 49.549c42.562 0 83.172-17.859 111.939-49.227l51.08-55.698c9.78-10.665 26.026-12.243 37.677-3.661 13.638 10.046 15.469 29.735 3.918 42.124l-64.776 69.475c-35.02 37.56-84.066 58.888-135.418 58.888h-137.426l-40.001 40.001h-106.316z" fill="#ffd0c7"/><g id="XMLID_1072_"><path id="XMLID_1133_" d="m273.799 167.889c3.905-3.905 3.905-10.237-.001-14.142-3.904-3.905-10.237-3.905-14.142 0-1.235 1.236-2.679 1.42-3.429 1.42s-2.193-.185-3.429-1.42c-3.904-3.905-10.235-3.905-14.142 0-3.906 3.905-3.906 10.237-.001 14.142 4.693 4.694 10.934 7.279 17.571 7.279s12.88-2.585 17.573-7.279z"/><path id="XMLID_1134_" d="m248.97 452h-92.425c-2.652 0-5.195 1.054-7.071 2.929l-40.002 40.001c-3.905 3.905-3.905 10.237 0 14.142 1.953 1.953 4.512 2.929 7.071 2.929s5.118-.977 7.071-2.929l37.074-37.072h88.282c5.522 0 10-4.477 10-10s-4.478-10-10-10z"/><path id="XMLID_1142_" d="m511.608 310.769c-1.012-10.876-6.637-20.83-15.432-27.308-15.799-11.638-37.715-9.509-50.978 4.954l-39.198 42.743v-7.58c0-44.813-31.902-83.674-75.855-92.403l-20.872-4.146c-6.949-1.38-12.973-5.264-17.085-10.733 25.865-10.262 46.379-31.186 56.097-57.318 1.653 2.132 3.442 4.181 5.381 6.12 12.288 12.287 28.723 19.034 45.902 19.034 2.252 0 4.518-.116 6.788-.351 2.913-.301 5.547-1.864 7.208-4.275 1.661-2.412 2.181-5.431 1.423-8.26l-1.848-6.894 6.896 1.847c2.826.758 5.848.239 8.259-1.423 2.412-1.661 3.975-4.295 4.276-7.208 2.024-19.588-4.786-38.792-18.684-52.69-15.836-15.836-38.608-22.253-60.088-17.495-5.504-49.092-47.26-87.383-97.798-87.383s-92.294 38.291-97.798 87.383c-21.48-4.758-44.252 1.658-60.088 17.495-13.898 13.899-20.708 33.104-18.683 52.69.302 2.913 1.864 5.547 4.276 7.208 2.411 1.661 5.43 2.18 8.259 1.423l6.895-1.847-1.848 6.894c-.758 2.829-.238 5.848 1.423 8.26s4.295 3.975 7.208 4.275c2.271.235 4.535.351 6.789.351 17.179-.001 33.615-6.748 45.901-19.034 1.939-1.939 3.728-3.988 5.381-6.12 9.719 26.132 30.233 47.056 56.098 57.318-4.112 5.469-10.136 9.353-17.084 10.733l-20.872 4.146c-43.773 8.693-75.582 47.272-75.844 91.85-13.067 6.288-25.12 14.803-35.677 25.359l-67.179 67.179c-3.905 3.905-3.905 10.237 0 14.142 1.953 1.953 4.512 2.929 7.071 2.929s5.118-.976 7.071-2.929l67.178-67.178c20.819-20.82 48.501-32.286 77.945-32.286 19.813 0 38.438 7.715 52.447 21.725 1.876 1.875 4.419 2.929 7.071 2.929h65.578c9.706 0 17.603 7.896 17.603 17.602s-7.896 17.602-17.603 17.602h-76.019c-5.522 0-10 4.477-10 10s4.478 10 10 10h78.049c45.243 0 88.73-19.124 119.31-52.468l51.079-55.698c6.342-6.915 16.822-7.933 24.377-2.368 4.267 3.143 6.888 7.78 7.378 13.057.491 5.278-1.229 10.319-4.844 14.196l-64.776 69.475c-23.18 24.861-52.868 42.336-85.854 50.537-5.36 1.333-8.625 6.757-7.293 12.117 1.132 4.55 5.212 7.59 9.697 7.59.799 0 1.61-.097 2.42-.298 36.754-9.137 69.832-28.607 95.659-56.307l64.776-69.475c7.451-7.991 11.142-18.811 10.131-29.688zm-155.432-203.382c15.438-4.151 32.123.186 43.568 11.633 6.726 6.725 11.053 15.248 12.569 24.404l-10.728-2.874c-3.453-.927-7.133.063-9.659 2.588-2.526 2.526-3.513 6.208-2.588 9.66l2.874 10.727c-9.155-1.517-17.68-5.844-24.404-12.568-11.446-11.448-15.784-28.132-11.632-43.57zm-22.059-15.637c-24.123-2.246-46.965-12.693-64.446-29.571 7.616-10.691 13.524-22.741 17.299-35.791 25.938 11.194 44.66 35.997 47.147 65.362zm-78.117-71.75c3.987 0 7.904.304 11.733.881-11.659 40.2-47.686 68.963-89.874 71.182 3.25-40.276 37.043-72.063 78.141-72.063zm-111.808 130.956c-6.725 6.725-15.247 11.052-24.404 12.568l2.874-10.727c.925-3.451-.062-7.133-2.588-9.66-1.9-1.9-4.454-2.929-7.072-2.929-.862 0-1.731.111-2.587.341l-10.727 2.874c1.516-9.156 5.843-17.679 12.568-24.404 11.447-11.448 28.136-15.784 43.569-11.633 4.153 15.439-.186 32.123-11.633 43.57zm33.387-26.187v-12.66c30.573-1.265 58.54-14.136 79.14-34.655 21.148 20.001 48.708 32.196 77.702 34.397v12.918c0 43.241-35.18 78.421-78.421 78.421s-78.421-35.18-78.421-78.421zm78.421 98.42c5.488 0 10.87-.459 16.116-1.327 3.016 5.713 7.122 10.708 12.041 14.744-6.861 8.287-17.053 13.202-28.156 13.202s-21.295-4.915-28.155-13.202c4.919-4.036 9.025-9.031 12.041-14.744 5.244.869 10.626 1.327 16.113 1.327zm31.52 111.706h-61.567c-17.395-15.93-39.792-24.653-63.529-24.653-12.33 0-24.396 1.71-35.935 5.003 3.594-31.688 27.4-58.124 59.265-64.452l20.872-4.146c1.064-.211 2.115-.46 3.153-.739 10.514 14.923 27.542 23.901 46.222 23.901 18.681 0 35.709-8.978 46.223-23.901 1.038.279 2.089.528 3.153.739l20.872 4.146c34.622 6.875 59.751 37.486 59.751 72.785v28.686c-17.943 16.614-39.878 28.267-63.471 33.927 1.667-4.247 2.593-8.863 2.593-13.694 0-20.734-16.868-37.602-37.602-37.602z"/><path id="XMLID_1527_" d="m293.968 452c-2.631 0-5.21 1.07-7.07 2.93s-2.93 4.44-2.93 7.07 1.069 5.21 2.93 7.07 4.439 2.93 7.07 2.93c2.63 0 5.21-1.07 7.069-2.93 1.86-1.86 2.931-4.44 2.931-7.07s-1.07-5.21-2.931-7.07c-1.859-1.86-4.439-2.93-7.069-2.93z"/></g></g></svg>