<svg height="512" width="512" xmlns="http://www.w3.org/2000/svg"><path d="M296 344l147.882 73.941a60 60 0 0132.564 45.18L480 488H32l3.554-24.879a60 60 0 0132.564-45.18L216 344z" fill="#026ca2"/><path d="M216 344h80v144h-80z" fill="#cbcbcb"/><path d="M216 312v32l-8 24v8h96v-8l-8-24v-32z" fill="#fdc9a6"/><path d="M296 312v19.64c-.08.06-.17.11-.25.17a70.9 70.9 0 01-79.75-.17V312z" fill="#fdc9a6"/><path d="M296 312v19.64c-.08.06-.17.11-.25.17a70.9 70.9 0 01-79.75-.17V312z" fill="#e6af89"/><path d="M72 488v-32a8 8 0 0116 0v32zM424 488v-32a8 8 0 0116 0v32z" fill="#015078"/><path d="M230.857 388.571L240 416h32l9.143-27.429L256 376z" fill="#0296e5"/><path d="M240 416l-8 72h48l-8-72z" fill="#026ca2"/><path d="M360.925 171.923l3.421-13.6a91.909 91.909 0 00-19.565-82.485A84.136 84.136 0 00258.348 44.3c-5.306 1.236-10.592 2.465-15.636 3.637A76.04 76.04 0 00191.9 88h-2.124a43.754 43.754 0 00-35 17.5 43.754 43.754 0 00-8.311 32.44L151.9 176l2.913 24H352l6.585-20.007q1.315-3.993 2.34-8.07z" fill="#55300b"/><path d="M256 328a70.9 70.9 0 01-65.827-44.567A198.156 198.156 0 01176 209.837V152l24-40.73A136.076 136.076 0 00297.087 152H336v57.837a198.156 198.156 0 01-14.173 73.6A70.9 70.9 0 01256 328z" fill="#fdc9a6"/><g fill="#55300b"><path d="M304 184h-24a8 8 0 010-16h24a8 8 0 010 16z"/><circle cx="290" cy="202" r="10"/><path d="M232 184h-24a8 8 0 010-16h24a8 8 0 010 16z"/><circle cx="222" cy="202" r="10"/></g><path d="M272 280h-32a8 8 0 010-16h32a8 8 0 010 16zM264 248h-16a8 8 0 01-8-8v-24a8 8 0 0116 0v16h8a8 8 0 010 16z" fill="#e6af89"/><path d="M176 176h-11.056A20.944 20.944 0 00144 196.944v14.112a20.944 20.944 0 002.211 9.366A20.944 20.944 0 00164.944 232H179zM336 176h11.056A20.944 20.944 0 01368 196.944v14.112a20.944 20.944 0 01-2.211 9.366A20.944 20.944 0 01347.056 232H333z" fill="#fdc9a6"/><path d="M216 344l40 32-48 24v-32zM296 344l-40 32 48 24v-32z" fill="#ebebeb"/><path d="M216 488h-40l-24-72 64-72zM296 488h40l24-72-64-72z" fill="#0296e5"/></svg>