<svg height="512" viewBox="0 0 64 64" width="512" xmlns="http://www.w3.org/2000/svg"><g fill="#50b6cf"><circle cx="32" cy="5" r="3"/><path d="M26 14a6 6 0 1112 0z"/><circle cx="48" cy="13" r="3"/><path d="M42 22a6 6 0 1112 0z"/><circle cx="48" cy="45" r="3"/><path d="M42 54a6 6 0 1112 0z"/><circle cx="32" cy="53" r="3"/><path d="M26 62a6 6 0 1112 0z"/><circle cx="56" cy="29" r="3"/><path d="M50 38a6 6 0 1112 0zM22 22a6 6 0 10-12 0z"/><circle cx="16" cy="45" r="3"/><path d="M22 54a6 6 0 10-12 0z"/><circle cx="8" cy="29" r="3"/><circle cx="16" cy="13" r="3"/></g><path d="M17.554 10.446c.278.454.446.983.446 1.554a3 3 0 01-3 3c-.571 0-1.1-.168-1.554-.446A2.989 2.989 0 0016 16a3 3 0 003-3 2.989 2.989 0 00-1.446-2.554z" fill="#3cadc9"/><path d="M14 38a6 6 0 10-12 0z" fill="#50b6cf"/><circle cx="32" cy="32" fill="#f5a947" r="10"/><path d="M37.992 24.008A9.942 9.942 0 0140 30c0 5.523-4.477 10-10 10-2.25 0-4.32-.753-5.992-2.008C25.832 40.422 28.728 42 32 42c5.523 0 10-4.477 10-10 0-3.272-1.578-6.168-4.008-7.992z" fill="#f09d3a"/><path d="M19.928 17.471c-1.74 1.923-5.44 3.303-9.834 3.501A6.014 6.014 0 0010 22h12c0-1.81-.805-3.429-2.072-4.529zM33.554 2.446C33.832 2.9 34 3.429 34 4a3 3 0 01-3 3c-.571 0-1.1-.168-1.554-.446A2.989 2.989 0 0032 8a3 3 0 003-3 2.989 2.989 0 00-1.446-2.554zM35.928 9.471c-1.74 1.923-5.44 3.303-9.834 3.501A6.014 6.014 0 0026 14h12c0-1.81-.805-3.429-2.072-4.529zM49.554 10.446c.278.454.446.983.446 1.554a3 3 0 01-3 3c-.571 0-1.1-.168-1.554-.446A2.989 2.989 0 0048 16a3 3 0 003-3 2.989 2.989 0 00-1.446-2.554zM51.928 17.471c-1.74 1.923-5.44 3.303-9.834 3.501A6.014 6.014 0 0042 22h12c0-1.81-.805-3.429-2.072-4.529zM57.554 26.446c.278.454.446.983.446 1.554a3 3 0 01-3 3c-.571 0-1.1-.168-1.554-.446A2.989 2.989 0 0056 32a3 3 0 003-3 2.989 2.989 0 00-1.446-2.554zM59.928 33.471c-1.74 1.923-5.44 3.303-9.834 3.501A6.014 6.014 0 0050 38h12c0-1.81-.805-3.429-2.072-4.529zM49.554 42.446c.278.454.446.983.446 1.554a3 3 0 01-3 3c-.571 0-1.1-.168-1.554-.446A2.989 2.989 0 0048 48a3 3 0 003-3 2.989 2.989 0 00-1.446-2.554zM51.928 49.471c-1.74 1.923-5.44 3.303-9.834 3.501A6.014 6.014 0 0042 54h12c0-1.81-.805-3.429-2.072-4.529zM33.554 50.446c.278.454.446.983.446 1.554a3 3 0 01-3 3c-.571 0-1.1-.168-1.554-.446A2.989 2.989 0 0032 56a3 3 0 003-3 2.989 2.989 0 00-1.446-2.554zM35.928 57.471c-1.74 1.923-5.44 3.303-9.834 3.501A6.014 6.014 0 0026 62h12c0-1.81-.805-3.429-2.072-4.529zM17.554 42.446c.278.454.446.983.446 1.554a3 3 0 01-3 3c-.571 0-1.1-.168-1.554-.446A2.989 2.989 0 0016 48a3 3 0 003-3 2.989 2.989 0 00-1.446-2.554zM19.928 49.471c-1.74 1.923-5.44 3.303-9.834 3.501A6.014 6.014 0 0010 54h12c0-1.81-.805-3.429-2.072-4.529zM9.554 26.446c.278.454.446.983.446 1.554a3 3 0 01-3 3c-.571 0-1.1-.168-1.554-.446A2.989 2.989 0 008 32a3 3 0 003-3 2.989 2.989 0 00-1.446-2.554zM11.928 33.471c-1.74 1.923-5.44 3.303-9.834 3.501A6.014 6.014 0 002 38h12c0-1.81-.805-3.429-2.072-4.529z" fill="#3cadc9"/></svg>