<svg height="512" width="512" xmlns="http://www.w3.org/2000/svg"><g data-name="filled outline"><path d="M480 480a8 8 0 01-8-8v-88a8 8 0 0116 0v88a8 8 0 01-8 8z" fill="#a98e72"/><path d="M240 272l-24.5 12.251a16 16 0 00-8.684 12.048L200 344h112l-6.814-47.7a16 16 0 00-8.684-12.048L272 272z" fill="#69b9e7"/><path d="M32 480a8 8 0 01-8-8v-72a8 8 0 0116 0v72a8 8 0 01-8 8z" fill="#a98e72"/><path d="M120 376h32v96h-32zM360 376h32v96h-32z" fill="#8e7760"/><path d="M120 376h32v16h-32zM360 376h32v16h-32z" fill="#746250"/><path d="M232 304h48v40h-48z" fill="#cdcdcd"/><path d="M456 360l-64 40 40 72h16l-16-64 56-24v-24z" fill="#a8e6c7"/><path d="M392 352h-40a8 8 0 01-7.891-6.684l-8-48a8 8 0 0115.782-2.632L358.777 336H392a8 8 0 010 16zM120 352h40a8 8 0 007.891-6.684l8-48a8 8 0 10-15.781-2.632L153.222 336H120a8 8 0 000 16z" fill="#d9d9d9"/><path d="M56 368l40 24 24 80H88l-16-56-48-16v-32zM46.28 290.168L96 320h32v24H88l-32-16z" fill="#bef5fa"/><path d="M272 472h-32l-8-64-11.314-11.314A16 16 0 01216 385.373V376h80v9.373a16 16 0 01-4.686 11.313L280 408z" fill="#69b9e7"/><path d="M368 48h-80a16 16 0 00-16 16v48a16 16 0 0016 16v32l48-32h32a16 16 0 0016-16V64a16 16 0 00-16-16z" fill="#fdb62f"/><path d="M64 152v32l48-32h40a16 16 0 0016-16V88a16 16 0 00-16-16H56a16 16 0 00-16 16v48a16 16 0 0016 16z" fill="#fcd795"/><path d="M344 80h80a16 16 0 0116 16v48a16 16 0 01-16 16v32l-48-32h-32a16 16 0 01-16-16V96a16 16 0 0116-16z" fill="#fdb62f"/><path d="M344 80a16 16 0 00-16 16v37.333l8-5.333h32a16 16 0 0016-16V80z" fill="#ec9e15"/><g fill="#fdb62f"><path d="M64 104h16v16H64zM96 104h16v16H96zM128 104h16v16h-16z"/></g><path d="M16 464h480v16H16z" fill="#746250"/><circle cx="256" cy="224" fill="#69b9e7" r="24"/><circle cx="464" cy="240" fill="#a8e6c7" r="24"/><circle cx="48" cy="240" fill="#bef5fa" r="24"/><path d="M40 288a16 16 0 00-16 16v64h32v-64a16 16 0 00-16-16z" fill="#bef5fa"/><path d="M472 288a16 16 0 0116 16v56h-32v-56a16 16 0 0116-16z" fill="#a8e6c7"/><path d="M464 291.2L416 320h-32v24h40l32-16z" fill="#a8e6c7"/><path d="M112 344h288v32H112z" fill="#a98e72"/><path d="M472 280c-10.285 0-18.285 6.957-21.023 9.688L413.785 312H384a8 8 0 00-8 8v16h-17.223l-6.886-41.316a8 8 0 00-15.782 2.632L342.557 336h-23.62l-5.832-40.836a24 24 0 00-13.027-18.07l-24.5-12.25A8 8 0 00272 264h-32a8 8 0 00-3.578.844l-24.5 12.25a24 24 0 00-13.022 18.074L193.063 336h-23.62l6.448-38.684a8 8 0 10-15.782-2.632L153.223 336H136v-16a8 8 0 00-8-8H98.215l-37.192-22.312C58.285 286.957 50.285 280 40 280a24.027 24.027 0 00-24 24v96a8 8 0 005.469 7.59l2.531.844V464h-8v16h480v-16h-8v-71.3l3.152-1.351A8 8 0 00496 384v-80a24.027 24.027 0 00-24-24zm-72 150.873L418.4 464H400zM400 352h24a8 8 0 003.578-.844L448 340.945v14.621l-48 30zm-185.27-54.562a8.014 8.014 0 014.348-6.032L241.887 280h28.226l22.813 11.406a8.018 8.018 0 014.344 6.028L302.777 336H288v-32a8 8 0 00-8-8h-48a8 8 0 00-8 8v32h-14.777zM272 336h-32v-24h32zm112 16v16H128v-16zm-80 33.371V384h48v80h-70.938l6.536-52.285 9.371-9.371A23.841 23.841 0 00304 385.371zm-88.969 16.973l9.371 9.371L230.938 464H160v-80h48v1.371a23.841 23.841 0 007.031 16.973zM112 417.49l-8.336-27.79a8.006 8.006 0 00-3.547-4.562L64 363.469v-22.524l20.422 10.211A8 8 0 0088 352h24zm-72-3.724l25.469 8.488L77.4 464H40zM94.035 464l-14.344-50.2a8 8 0 00-5.16-5.391L32 394.234V304a8.011 8.011 0 018-8c4.188 0 8.793 3.98 10.039 5.336a7.912 7.912 0 001.844 1.523l40 24A8.014 8.014 0 0096 328h24v8H89.887l-30.309-15.156A8 8 0 0048 328v40a8 8 0 003.883 6.859l37.344 22.407L109.246 464zM128 464v-80h16v80zm119.062 0l-7.125-56.992a7.98 7.98 0 00-2.281-4.664l-11.312-11.313a7.951 7.951 0 01-2.344-5.66V384h64v1.371a7.951 7.951 0 01-2.344 5.66l-11.312 11.313a7.987 7.987 0 00-2.282 4.664L264.937 464zM368 464v-80h16v80zm68.707 0l-34.023-61.242 57.554-35.973A8.006 8.006 0 00464 360v-32a8 8 0 00-11.578-7.156L422.113 336H392v-8h24a8.014 8.014 0 004.117-1.141l40-24a7.912 7.912 0 001.844-1.523C462.969 300.211 467.633 296 472 296a8.011 8.011 0 018 8v74.727l-51.152 21.921a8 8 0 00-4.61 9.293L437.754 464zM472 464h-17.753l-12.833-51.332L472 399.56zM280 134.629V160a8 8 0 0012.437 6.656l27.963-18.645A23.986 23.986 0 00344 168h29.578l45.984 30.656A8 8 0 00432 192v-25.371A24.041 24.041 0 00448 144V96a24.027 24.027 0 00-24-24h-32v-8a24.027 24.027 0 00-24-24h-80a24.027 24.027 0 00-24 24v48a24.04 24.04 0 0016 22.629zM424 88a8.011 8.011 0 018 8v48a8.011 8.011 0 01-8 8 8 8 0 00-8 8v17.051l-35.563-23.707A8.005 8.005 0 00376 152h-32a8.011 8.011 0 01-8-8v-6.385l2.422-1.615H368a24.027 24.027 0 0024-24V88zm-88 32V96a8.011 8.011 0 018-8h32v24a8.011 8.011 0 01-8 8zm-56-56a8.011 8.011 0 018-8h80a8.011 8.011 0 018 8v8h-32a24.027 24.027 0 00-24 24v33.052l-24 16V128a8 8 0 00-8-8 8.011 8.011 0 01-8-8zM56 160v24a8 8 0 0012.438 6.656L114.422 160H152a24.027 24.027 0 0024-24V88a24.027 24.027 0 00-24-24H56a24.027 24.027 0 00-24 24v48a24.027 24.027 0 0024 24zm-8-72a8.011 8.011 0 018-8h96a8.011 8.011 0 018 8v48a8.011 8.011 0 01-8 8h-40a8.011 8.011 0 00-4.438 1.344L72 169.051V152a8 8 0 00-8-8h-8a8.011 8.011 0 01-8-8z"/><path d="M64 104h16v16H64zM96 104h16v16H96zM128 104h16v16h-16zM256 256a32 32 0 10-32-32 32.036 32.036 0 0032 32zm0-48a16 16 0 11-16 16 16.016 16.016 0 0116-16zM432 240a32 32 0 1032-32 32.036 32.036 0 00-32 32zm32-16a16 16 0 11-16 16 16.016 16.016 0 0116-16zM48 272a32 32 0 10-32-32 32.036 32.036 0 0032 32zm0-48a16 16 0 11-16 16 16.016 16.016 0 0116-16z"/></g></svg>