<svg height="512" viewBox="0 0 512 512" width="512" xmlns="http://www.w3.org/2000/svg"><g id="filled_outline" data-name="filled outline"><path d="m480 480a8 8 0 0 1 -8-8v-88a8 8 0 0 1 16 0v88a8 8 0 0 1 -8 8z" fill="#a98e72"/><path d="m240 272-24.5 12.251a16 16 0 0 0 -8.684 12.048l-6.816 47.701h112l-6.814-47.7a16 16 0 0 0 -8.684-12.048l-24.502-12.252z" fill="#69b9e7"/><path d="m32 480a8 8 0 0 1 -8-8v-72a8 8 0 0 1 16 0v72a8 8 0 0 1 -8 8z" fill="#a98e72"/><path d="m120 376h32v96h-32z" fill="#8e7760"/><path d="m360 376h32v96h-32z" fill="#8e7760"/><path d="m120 376h32v16h-32z" fill="#746250"/><path d="m360 376h32v16h-32z" fill="#746250"/><path d="m232 304h48v40h-48z" fill="#cdcdcd"/><path d="m456 360-64 40 40 72h16l-16-64 56-24v-24z" fill="#a8e6c7"/><path d="m392 352h-40a8 8 0 0 1 -7.891-6.684l-8-48a8 8 0 0 1 15.782-2.632l6.886 41.316h33.223a8 8 0 0 1 0 16z" fill="#d9d9d9"/><path d="m120 352h40a8 8 0 0 0 7.891-6.684l8-48a8 8 0 1 0 -15.781-2.632l-6.888 41.316h-33.222a8 8 0 0 0 0 16z" fill="#d9d9d9"/><path d="m56 368 40 24 24 80h-32l-16-56-48-16v-32z" fill="#bef5fa"/><path d="m46.28 290.168 49.72 29.832h32v24h-40l-32-16z" fill="#bef5fa"/><path d="m272 472h-32l-8-64-11.314-11.314a16 16 0 0 1 -4.686-11.313v-9.373h80v9.373a16 16 0 0 1 -4.686 11.313l-11.314 11.314z" fill="#69b9e7"/><path d="m368 48h-80a16 16 0 0 0 -16 16v48a16 16 0 0 0 16 16v32l48-32h32a16 16 0 0 0 16-16v-48a16 16 0 0 0 -16-16z" fill="#fdb62f"/><path d="m64 152v32l48-32h40a16 16 0 0 0 16-16v-48a16 16 0 0 0 -16-16h-96a16 16 0 0 0 -16 16v48a16 16 0 0 0 16 16z" fill="#fcd795"/><path d="m344 80h80a16 16 0 0 1 16 16v48a16 16 0 0 1 -16 16v32l-48-32h-32a16 16 0 0 1 -16-16v-48a16 16 0 0 1 16-16z" fill="#fdb62f"/><path d="m344 80a16 16 0 0 0 -16 16v37.333l8-5.333h32a16 16 0 0 0 16-16v-32z" fill="#ec9e15"/><g fill="#fdb62f"><path d="m64 104h16v16h-16z"/><path d="m96 104h16v16h-16z"/><path d="m128 104h16v16h-16z"/></g><path d="m16 464h480v16h-480z" fill="#746250"/><circle cx="256" cy="224" fill="#69b9e7" r="24"/><circle cx="464" cy="240" fill="#a8e6c7" r="24"/><circle cx="48" cy="240" fill="#bef5fa" r="24"/><path d="m40 288a16 16 0 0 0 -16 16v64h32v-64a16 16 0 0 0 -16-16z" fill="#bef5fa"/><path d="m472 288a16 16 0 0 1 16 16v56h-32v-56a16 16 0 0 1 16-16z" fill="#a8e6c7"/><path d="m464 291.2-48 28.8h-32v24h40l32-16z" fill="#a8e6c7"/><path d="m112 344h288v32h-288z" fill="#a98e72"/><path d="m472 280c-10.285 0-18.285 6.957-21.023 9.688l-37.192 22.312h-29.785a8 8 0 0 0 -8 8v16h-17.223l-6.886-41.316a8 8 0 0 0 -15.782 2.632l6.448 38.684h-23.62l-5.832-40.836a24 24 0 0 0 -13.027-18.07l-24.5-12.25a8 8 0 0 0 -3.578-.844h-32a8 8 0 0 0 -3.578.844l-24.5 12.25a24 24 0 0 0 -13.022 18.074l-5.837 40.832h-23.62l6.448-38.684a8 8 0 1 0 -15.782-2.632l-6.886 41.316h-17.223v-16a8 8 0 0 0 -8-8h-29.785l-37.192-22.312c-2.738-2.731-10.738-9.688-21.023-9.688a24.027 24.027 0 0 0 -24 24v96a8 8 0 0 0 5.469 7.59l2.531.844v55.566h-8v16h480v-16h-8v-71.3l3.152-1.351a8 8 0 0 0 4.848-7.349v-80a24.027 24.027 0 0 0 -24-24zm-72 150.873 18.4 33.127h-18.4zm0-78.873h24a8 8 0 0 0 3.578-.844l20.422-10.211v14.621l-48 30zm-185.27-54.562a8.014 8.014 0 0 1 4.348-6.032l22.809-11.406h28.226l22.813 11.406a8.018 8.018 0 0 1 4.344 6.028l5.507 38.566h-14.777v-32a8 8 0 0 0 -8-8h-48a8 8 0 0 0 -8 8v32h-14.777zm57.27 38.562h-32v-24h32zm112 16v16h-256v-16zm-80 33.371v-1.371h48v80h-70.938l6.536-52.285 9.371-9.371a23.841 23.841 0 0 0 7.031-16.973zm-88.969 16.973 9.371 9.371 6.536 52.285h-70.938v-80h48v1.371a23.841 23.841 0 0 0 7.031 16.973zm-103.031 15.146-8.336-27.79a8.006 8.006 0 0 0 -3.547-4.562l-36.117-21.669v-22.524l20.422 10.211a8 8 0 0 0 3.578.844h24zm-72-3.724 25.469 8.488 11.931 41.746h-37.4zm54.035 50.234-14.344-50.2a8 8 0 0 0 -5.16-5.391l-42.531-14.175v-90.234a8.011 8.011 0 0 1 8-8c4.188 0 8.793 3.98 10.039 5.336a7.912 7.912 0 0 0 1.844 1.523l40 24a8.014 8.014 0 0 0 4.117 1.141h24v8h-30.113l-30.309-15.156a8 8 0 0 0 -11.578 7.156v40a8 8 0 0 0 3.883 6.859l37.344 22.407 20.019 66.734zm33.965 0v-80h16v80zm119.062 0-7.125-56.992a7.98 7.98 0 0 0 -2.281-4.664l-11.312-11.313a7.951 7.951 0 0 1 -2.344-5.66v-1.371h64v1.371a7.951 7.951 0 0 1 -2.344 5.66l-11.312 11.313a7.987 7.987 0 0 0 -2.282 4.664l-7.125 56.992zm120.938 0v-80h16v80zm68.707 0-34.023-61.242 57.554-35.973a8.006 8.006 0 0 0 3.762-6.785v-32a8 8 0 0 0 -11.578-7.156l-30.309 15.156h-30.113v-8h24a8.014 8.014 0 0 0 4.117-1.141l40-24a7.912 7.912 0 0 0 1.844-1.523c1.008-1.125 5.672-5.336 10.039-5.336a8.011 8.011 0 0 1 8 8v74.727l-51.152 21.921a8 8 0 0 0 -4.61 9.293l13.516 54.059zm35.293 0h-17.753l-12.833-51.332 30.586-13.108z"/><path d="m280 134.629v25.371a8 8 0 0 0 12.437 6.656l27.963-18.645a23.986 23.986 0 0 0 23.6 19.989h29.578l45.984 30.656a8 8 0 0 0 12.438-6.656v-25.371a24.041 24.041 0 0 0 16-22.629v-48a24.027 24.027 0 0 0 -24-24h-32v-8a24.027 24.027 0 0 0 -24-24h-80a24.027 24.027 0 0 0 -24 24v48a24.04 24.04 0 0 0 16 22.629zm144-46.629a8.011 8.011 0 0 1 8 8v48a8.011 8.011 0 0 1 -8 8 8 8 0 0 0 -8 8v17.051l-35.563-23.707a8.005 8.005 0 0 0 -4.437-1.344h-32a8.011 8.011 0 0 1 -8-8v-6.385l2.422-1.615h29.578a24.027 24.027 0 0 0 24-24v-24zm-88 32v-24a8.011 8.011 0 0 1 8-8h32v24a8.011 8.011 0 0 1 -8 8zm-56-56a8.011 8.011 0 0 1 8-8h80a8.011 8.011 0 0 1 8 8v8h-32a24.027 24.027 0 0 0 -24 24v33.052l-24 16v-17.052a8 8 0 0 0 -8-8 8.011 8.011 0 0 1 -8-8z"/><path d="m56 160v24a8 8 0 0 0 12.438 6.656l45.984-30.656h37.578a24.027 24.027 0 0 0 24-24v-48a24.027 24.027 0 0 0 -24-24h-96a24.027 24.027 0 0 0 -24 24v48a24.027 24.027 0 0 0 24 24zm-8-72a8.011 8.011 0 0 1 8-8h96a8.011 8.011 0 0 1 8 8v48a8.011 8.011 0 0 1 -8 8h-40a8.011 8.011 0 0 0 -4.438 1.344l-35.562 23.707v-17.051a8 8 0 0 0 -8-8h-8a8.011 8.011 0 0 1 -8-8z"/><path d="m64 104h16v16h-16z"/><path d="m96 104h16v16h-16z"/><path d="m128 104h16v16h-16z"/><path d="m256 256a32 32 0 1 0 -32-32 32.036 32.036 0 0 0 32 32zm0-48a16 16 0 1 1 -16 16 16.016 16.016 0 0 1 16-16z"/><path d="m432 240a32 32 0 1 0 32-32 32.036 32.036 0 0 0 -32 32zm32-16a16 16 0 1 1 -16 16 16.016 16.016 0 0 1 16-16z"/><path d="m48 272a32 32 0 1 0 -32-32 32.036 32.036 0 0 0 32 32zm0-48a16 16 0 1 1 -16 16 16.016 16.016 0 0 1 16-16z"/></g></svg>