<svg xmlns="http://www.w3.org/2000/svg" viewBox="0 0 512 512"><path d="M506.029 289.999L419.03 416c-16.8 22.5-43.801 36-72.001 36h-257L74.428 294.2l15.601-14.099c22.8-20.101 37.8-33.9 67.2-40.801 35.099-8.099 70 1.8 93.1 22.8 6 5.101 9.6 9.901 17.1 9.901h79.6c16.5 0 30 13.5 30 30s-13.5 30-30 30h-61c-8.401 0-15 6.599-15 15s6.599 15 15 15h70.901c5.7 0 16.5-3.6 22.2-9.6l81-100.8c10.199-11.1 27.299-12.9 39.6-3.9 13.498 9.9 16.199 29.098 6.299 42.298z" fill="#fedbab"/><g fill="#fec478"><path d="M271.029 347v-75h76c16.5 0 30 13.5 30 30s-13.5 30-30 30h-61c-8.401 0-15 6.599-15 15z"/><path d="M506.029 289.999L419.03 416c-16.8 22.5-43.801 36-72.001 36h-76V347c0 8.401 6.599 15 15 15h70.901c5.7 0 16.5-3.6 22.2-9.6l81-100.8c10.199-11.1 27.299-12.9 39.6-3.9 13.498 9.901 16.199 29.099 6.299 42.299z"/></g><path d="M91.611 503.709l-90-180c-3.706-7.412-.703-16.421 6.709-20.127L41.484 287c22.222-11.089 49.277-2.065 60.381 20.127l63.164 126.328c11.125 22.25 2.123 49.256-20.127 60.381l-33.164 16.582c-7.487 3.718-16.441.642-20.127-6.709z" fill="#17ace8"/><path d="M271.029 90c-49.501 0-91 41.499-91 91v16c0 8.401 6.599 15 15 15h152c8.401 0 15-6.599 15-15v-16c0-49.501-41.499-91-91-91z" fill="#1689fc"/><path d="M362.029 181v16c0 8.401-6.599 15-15 15h-76V90c49.501 0 91 41.499 91 91z" fill="#136ef1"/><path d="M271.029 0c-32.999 0-61 27.001-61 60s28.001 60 61 60 61-27.001 61-60-28.001-60-61-60z" fill="#17ace8"/><path d="M332.029 60c0 32.999-28.001 60-61 60V0c32.999 0 61 27.001 61 60z" fill="#1689fc"/></svg>