<svg height="512" width="512" xmlns="http://www.w3.org/2000/svg"><g clip-rule="evenodd" fill-rule="evenodd"><path d="M117.583 256.34h67.663c22.111 6.605 37.106 19.475 37.106 34.271v191.114l-141.847-68.23V290.611c0-14.796 14.996-27.666 37.078-34.271z" fill="#a5cdff"/><path d="M160.273 256.34h24.973c22.111 6.605 37.106 19.475 37.106 34.271v191.114l-25.001-12.019V290.611c0-14.796-14.996-27.666-37.078-34.271z" fill="#8abfff"/><path d="M326.697 256.34h67.777c22.11 6.605 37.134 19.475 37.134 34.271v130.622l-142.046 64.489V290.611c0-14.796 15.024-27.666 37.135-34.271z" fill="#ccf49f"/><path d="M369.529 256.34h25.002c22.082 6.605 37.078 19.475 37.078 34.271v131.133l-25.002-12.048V290.611c-.001-14.796-14.996-27.666-37.078-34.271z" fill="#b3e59f"/><path d="M222.324 353.399h67.353c21.997 6.633 36.907 19.502 36.907 34.3v74.637H185.416v-74.637c0-14.798 14.939-27.667 36.908-34.3z" fill="#ebd2ff"/><path d="M264.674 353.399h25.003c21.997 6.633 36.907 19.502 36.907 34.3v74.637h-25.002v-74.637c-.001-14.798-14.911-27.667-36.908-34.3z" fill="#d7bef0"/><path d="M467.581 111.856C495.615 152.903 512 202.538 512 256c0 141.395-114.606 256-256 256-70.697 0-134.675-28.658-181.022-74.978l35.122-35.121c37.361 37.332 88.924 60.435 145.901 60.435 113.954 0 206.336-92.382 206.336-206.336 0-42.321-12.756-81.667-34.612-114.407 16.611-5.046 30.671-15.734 39.856-29.737z" fill="#ffe5a0"/><path d="M130.055 389.825v59.272c0 5.301-2.551 7.881-7.852 7.881H62.901c-3.033 0-4.053-3.799-2.296-5.557l8.816-8.815c4.791-4.903 4.592-6.435.085-11.225C26.476 385.432 0 323.919 0 256 0 114.605 114.606 0 256 0c70.697 0 134.704 28.658 181.022 74.978L401.9 110.099C364.568 72.767 312.977 49.692 256 49.692 142.046 49.692 49.692 142.046 49.692 256c0 54.199 20.949 103.239 54.964 140.231 5.103 5.557 6.322 4.791 11.027.114l8.816-8.816c2.296-2.324 5.556-.935 5.556 2.296z" fill="#ff6978"/><path d="M487.706 146.979c-11.565-24.549-27.071-46.574-45.185-66.332-5.868-6.406-4.478-6.689.085-11.225l8.816-8.816c2.069-2.098.624-5.584-2.324-5.584h-59.273c-5.159 0-7.88 2.807-7.88 7.881v59.301c0 3.316 3.26 4.621 5.584 2.296l8.816-8.815c4.365-4.451 5.811-5.528 11.027.113 16.497 17.858 29.905 38.523 39.345 61.37a91.2 91.2 0 0040.989-30.189z" fill="#ffe5a0"/><path d="M256 512c141.394 0 256-114.605 256-256 0-51.194-15.619-102.02-44.476-144.059-7.597-10.998-15.988-21.43-25.002-31.295-5.868-6.406-4.478-6.689.085-11.225l8.816-8.816c2.069-2.098.624-5.584-2.324-5.584H389.826c-2.892 0-5.018.879-6.35 2.552-1.389 1.813-1.531 3.883-1.531 6.065a231.803 231.803 0 0136.709 29.735c11.452 11.396 21.742 23.981 30.615 37.589a228.804 228.804 0 0118.793 34.979c12.076 28.062 18.794 58.99 18.794 91.475 0 57.488-20.977 110.07-55.673 150.55a230.667 230.667 0 01-24.208 24.322c-40.593 35.207-93.573 56.495-151.514 56.495-46.318 0-89.462-13.607-125.661-37.05-.766 3.515-3.26 5.244-7.597 5.244H97.399C141.025 491.448 196.104 512 256 512z" fill="#f2ce7e"/><path d="M255.461 26.022c-127.787 0-231.366 103.608-231.366 231.395 0 58.083 21.401 111.148 56.75 151.798 2.268 2.579 4.564 5.131 6.945 7.625a153.25 153.25 0 003.629 3.741 233.488 233.488 0 0038.382 31.153c.17-.794.255-1.673.255-2.637v-59.272c0-3.231-3.26-4.62-5.556-2.296l-8.816 8.816c-4.706 4.677-5.924 5.442-11.027-.114-8.873-9.666-16.866-20.127-23.811-31.295C61.144 333.302 49.692 296.082 49.692 256c0-113.954 92.354-206.308 206.308-206.308 47.424 0 91.106 15.987 125.945 42.86V63.639c-36.341-23.784-79.797-37.617-126.484-37.617z" fill="#e85a68"/><path d="M402.751 231.82c0 23.188-18.964 42.151-42.151 42.151s-42.18-18.964-42.18-42.151v-45.185c0-12.983 10.63-23.613 23.612-23.613h37.135c12.954 0 23.584 10.63 23.584 23.613zM193.581 231.82c0 23.188-18.964 42.151-42.152 42.151s-42.18-18.964-42.18-42.151v-45.185c0-12.983 10.63-23.613 23.612-23.613h54.454c4.309 0 6.265 2.494 6.265 6.293l.001 62.505z" fill="#ffcbbe"/><path d="M318.42 186.636v27.724l28.828-14.118c3.912-1.928 7.682-2.098 11.594-.765l43.909 14.883v-27.724c0-12.983-10.63-23.613-23.584-23.613h-37.135c-12.982 0-23.612 10.629-23.612 23.613z" fill="#d09080"/><path d="M109.249 186.636v13.605h84.332v-30.926c0-3.799-1.957-6.293-6.265-6.293h-54.454c-12.983.001-23.613 10.63-23.613 23.614z" fill="#ffe5a0"/><path d="M298.18 328.908c0 23.188-18.992 42.151-42.18 42.151s-42.152-18.964-42.152-42.151v-45.186c0-12.982 10.63-23.612 23.585-23.612h37.134c12.983 0 23.613 10.63 23.613 23.612z" fill="#d8a595"/><path d="M213.848 283.723v16.414c11.878 4.422 21.799.708 27.525-2.553 4.451-2.523 5.159-3.005 9.553.851 20.24 17.717 47.254 7.88 47.254 7.88v-22.593c0-12.982-10.63-23.612-23.613-23.612h-37.134c-12.955 0-23.585 10.63-23.585 23.613z" fill="#477b9e"/><path d="M377.749 231.82c0 18.822-12.529 34.895-29.651 40.252a42.221 42.221 0 0012.501 1.899c23.188 0 42.151-18.964 42.151-42.151v-17.461l-25.002-8.477v25.938z" fill="#f7beaf"/><path d="M377.749 186.636v19.247l25.002 8.477v-27.724c0-12.983-10.63-23.613-23.584-23.613h-25.002c12.955 0 23.584 10.629 23.584 23.613z" fill="#be694f"/><path d="M273.178 328.908c0 18.822-12.529 34.895-29.679 40.252A42.513 42.513 0 00256 371.059c23.188 0 42.18-18.964 42.18-42.151v-22.593s-11.452 4.167-25.003 2.184v20.409z" fill="#d09080"/><path d="M273.178 283.723v24.776c13.55 1.983 25.003-2.184 25.003-2.184v-22.593c0-12.982-10.63-23.612-23.613-23.612h-25.001c12.981 0 23.611 10.63 23.611 23.613z" fill="#365e7d"/><path d="M168.579 231.82c0 18.822-12.529 34.895-29.651 40.252a42.221 42.221 0 0012.501 1.899c23.188 0 42.152-18.964 42.152-42.151v-31.579h-25.002z" fill="#f7beaf"/><path d="M168.579 169.315v30.926h25.002v-30.926c0-3.799-1.957-6.293-6.265-6.293h-25.001c4.308.001 6.264 2.495 6.264 6.293z" fill="#f2ce7e"/></g></svg>