<svg height="512" viewBox="0 0 64 64" width="512" xmlns="http://www.w3.org/2000/svg"><path d="M55 19l-7.07 7.07c-.84-2.26-2.14-4.29-3.8-5.98l-.11-.11L50 14zM25.2 48.8L17 57l-5-5 8.76-8.76c1.69 1.65 3.37 3.3 4.44 5.56z" fill="#5cd6b3"/><path d="M20.76 43.24L12 52l-5-5 9.27-9.27c.84 1.69 2.02 3.04 3.28 4.32.4.4.8.8 1.21 1.19zM50 14l-5.98 5.98a16.858 16.858 0 00-6.09-3.91L45 9z" fill="#ff826e"/><path d="M62 9.07c0 1.88-.74 3.67-2.07 5L58 16 48 6l1.93-1.93a7.052 7.052 0 015-2.07c1.95 0 3.72.79 5 2.07S62 7.12 62 9.07z" fill="#aab2bd"/><path d="M17 57L4.29 61.89a1.694 1.694 0 01-2.18-2.18L7 47l5 5z" fill="#ccd1d9"/><path d="M58 16l-3 3-5-5-5-5 3-3z" fill="#e6e9ed"/><path d="M51 33.05c0 1.19.71 2.25 1.8 2.7.01 0 .03.01.04.01 1.09.46 2.35.22 3.19-.62l.75-.75 2.83 2.83-.75.75c-.84.84-1.08 2.1-.62 3.19 0 .01.01.03.01.04.45 1.09 1.51 1.8 2.7 1.8H62v4h-1.05c-1.19 0-2.25.71-2.7 1.8 0 .01-.01.03-.01.04-.46 1.09-.22 2.35.62 3.19l.75.75-2.83 2.83-.75-.75c-.84-.84-2.1-1.08-3.19-.62-.01 0-.03.01-.04.01-1.09.45-1.8 1.51-1.8 2.7V58h-4v-1.05c0-1.19-.71-2.25-1.8-2.7-.01 0-.03-.01-.04-.01a2.907 2.907 0 00-3.19.62l-.75.75-2.53-2.53c.2-.31.31-.68.31-1.08 0-.66-.33-1.26-.83-1.62.97-3.12 3.03-5.15 5.1-7.16-.17.57-.27 1.16-.27 1.78 0 3.31 2.69 6 6 6s6-2.69 6-6a6.005 6.005 0 00-8.31-5.54C48.04 37.57 49 35.26 49 32h2z" fill="#ffc729"/><path d="M49 39c3.31 0 6 2.69 6 6s-2.69 6-6 6-6-2.69-6-6c0-.62.1-1.21.27-1.78v-.01c1.21-1.17 2.42-2.35 3.42-3.75.71-.29 1.49-.46 2.31-.46zm2 6c0-1.1-.9-2-2-2s-2 .9-2 2 .9 2 2 2 2-.9 2-2z" fill="#fcd770"/><path d="M32 62c-2.35 0-4.4-1.6-4.97-3.88L27 58h10l-.03.12a5.162 5.162 0 01-1.82 2.8C34.28 61.6 33.18 62 32 62z" fill="#aab2bd"/><path d="M37 54c1.1 0 2 .9 2 2 0 .55-.22 1.05-.59 1.41-.36.37-.86.59-1.41.59H27c-1.1 0-2-.9-2-2 0-.55.22-1.05.59-1.41.36-.37.86-.59 1.41-.59zM39 52c0 .4-.11.77-.31 1.08-.08.12-.18.23-.28.33-.36.37-.86.59-1.41.59H27c-1.1 0-2-.9-2-2 0-.55.22-1.05.59-1.41.07-.08.15-.15.24-.21.33-.24.73-.38 1.17-.38h10a2.007 2.007 0 012 2z" fill="#ccd1d9"/><path d="M47.93 26.07c-.84-2.26-2.14-4.29-3.8-5.98l-.11-.11a16.858 16.858 0 00-6.09-3.91c-1.75-.66-3.63-1.03-5.6-1.07h-.01c.44.91.68 1.92.68 3 0 .78-.13 1.54-.37 2.24v.01c.43-.16.89-.25 1.37-.25 2.21 0 4 1.79 4 4s-1.79 4-4 4H15.47c-.31 1.28-.47 2.62-.47 4 0 2.34.49 4.18 1.27 5.73.84 1.69 2.02 3.04 3.28 4.32.4.4.8.8 1.21 1.19 1.69 1.65 3.37 3.3 4.44 5.56.25.49.46 1.02.63 1.58.33-.24.73-.38 1.17-.38h10c.44 0 .84.14 1.17.38.97-3.12 3.03-5.15 5.1-7.16v-.01c1.21-1.17 2.42-2.35 3.42-3.75C48.04 37.57 49 35.26 49 32c0-2.09-.38-4.09-1.07-5.93z" fill="#ffeaa7"/><path d="M23.3 11.54c.83-.35 1.74-.54 2.7-.54 2.8 0 5.2 1.63 6.32 4 .44.91.68 1.92.68 3 0 .78-.13 1.54-.37 2.24v.01c.43-.16.89-.25 1.37-.25 2.21 0 4 1.79 4 4s-1.79 4-4 4H7c-2.76 0-5-2.24-5-5 0-2.6 1.98-4.73 4.52-4.97v-.01C6.18 17.08 6 16.06 6 15a9 9 0 019-9c3.73 0 6.93 2.27 8.29 5.5z" fill="#e6e9ed"/><g><path d="M49 48c1.654 0 3-1.346 3-3s-1.346-3-3-3-3 1.346-3 3 1.346 3 3 3zm0-4a1.001 1.001 0 11-1 1c0-.552.449-1 1-1z"/><path d="M59.16 40.778a1.919 1.919 0 01.409-2.103l1.455-1.456-4.244-4.244-1.457 1.456c-.551.552-1.377.712-2.141.392A1.906 1.906 0 0152 33.055V31h-2.051a17.716 17.716 0 00-.886-4.649l11.572-11.572A8.02 8.02 0 0063 9.071C63 4.621 59.379 1 54.929 1c-2.156 0-4.183.84-5.707 2.364l-11.56 11.561a17.764 17.764 0 00-4.717-.881C31.565 11.633 28.972 10 26 10c-.761 0-1.495.114-2.194.313C22.08 7.068 18.727 5 15 5 9.486 5 5 9.486 5 15c0 .766.094 1.52.265 2.258A6.009 6.009 0 001 23c0 3.309 2.691 6 6 6h7.254A18.132 18.132 0 0014 32c0 2.201.407 3.992 1.064 5.522l-8.921 8.922L1.179 59.35a2.69 2.69 0 003.472 3.471l12.906-4.964 6.523-6.524c-.049.215-.08.437-.08.667 0 .771.301 1.468.78 2a2.976 2.976 0 00-.78 2c0 1.39.955 2.552 2.24 2.89C27.092 61.33 29.374 63 32 63s4.908-1.67 5.76-4.11A2.996 2.996 0 0040 56c0-.075-.017-.145-.022-.218l1.242 1.242 1.457-1.456c.551-.552 1.374-.713 2.14-.394A1.914 1.914 0 0146 56.945V59h6v-2.055c0-.778.465-1.473 1.222-1.786a1.917 1.917 0 012.102.409l1.456 1.456 4.244-4.244-1.455-1.456c-.551-.552-.712-1.377-.393-2.141A1.909 1.909 0 0160.945 48H63v-6h-2.055c-.778 0-1.472-.465-1.785-1.222zm-14.984 2.948c1.091-1.065 2.184-2.153 3.127-3.411A4.941 4.941 0 0149 40c2.757 0 5 2.243 5 5s-2.243 5-5 5-5-2.243-5-5c0-.433.067-.859.176-1.274zm1.201-23.688L50 15.414 53.586 19l-5.341 5.341a18.148 18.148 0 00-2.868-4.303zM46.414 9L48 7.414 56.586 16 55 17.586zm8.515-6A6.079 6.079 0 0161 9.071a6.032 6.032 0 01-1.778 4.293L58 14.586 49.414 6l1.222-1.222A6.034 6.034 0 0154.929 3zM45 10.414L48.586 14l-4.621 4.621a18.128 18.128 0 00-4.301-2.871zM48 32c0 5.203-2.62 7.759-5.394 10.464-1.91 1.863-3.872 3.789-5.014 6.596A2.957 2.957 0 0037 49h-4v-5c0-1.654-1.346-3-3-3h-2a1.001 1.001 0 010-2h10c1.654 0 3-1.346 3-3s-1.346-3-3-3h-8c-.551 0-1-.448-1-1v-3h5c2.757 0 5-2.243 5-5s-2.243-5-5-5c-.028 0-.054.008-.082.008.043-.334.082-.668.082-1.008a8.01 8.01 0 00-.236-1.896C41.736 16.992 48 23.834 48 32zM26 52c0-.552.449-1 1-1h10a1.001 1.001 0 010 2H27c-.551 0-1-.448-1-1zm-12.586 0l7.351-7.351c1.23 1.22 2.372 2.454 3.214 3.957L17 55.586zM3 23c0-2.206 1.794-4 4-4s4 1.794 4 4h2c0-3.222-2.555-5.852-5.744-5.987A7.993 7.993 0 017 15c0-4.411 3.589-8 8-8a7.975 7.975 0 016.969 4.101 8.006 8.006 0 00-3.919 6.025C16.304 17.556 15 19.123 15 21h2c0-1.103.897-2 2-2s2 .897 2 2h2c0-1.835-1.248-3.368-2.935-3.838C20.475 14.25 22.976 12 26 12c3.309 0 6 2.691 6 6 0 .526-.086 1.041-.22 1.543C30.14 20.364 29 22.044 29 24h2c0-1.654 1.346-3 3-3s3 1.346 3 3-1.346 3-3 3H7c-2.206 0-4-1.794-4-4zm24 6v3c0 1.654 1.346 3 3 3h8a1.001 1.001 0 010 2H28c-1.654 0-3 1.346-3 3s1.346 3 3 3h2c.551 0 1 .448 1 1v5h-4c-.203 0-.401.021-.592.06-1.142-2.807-3.104-4.733-5.014-6.596C18.62 39.759 16 37.203 16 32c0-1.011.121-2.013.308-3zm-7.663 14.249L12 50.586 8.414 47l7.63-7.63c.939 1.474 2.103 2.704 3.293 3.879zM7.381 48.795l7.824 7.824-6.624 2.548-3.748-3.748zM3.934 60.954c-.433.168-.934-.177-.934-.641 0-.085.016-.168.045-.246l1.002-2.606 2.491 2.491zM32 61a4.109 4.109 0 01-3.524-2h7.048A4.109 4.109 0 0132 61zm5-4H27a1.001 1.001 0 010-2h10a1.001 1.001 0 010 2zm24-11h-.055c-1.591 0-3.011.95-3.631 2.452a3.912 3.912 0 00.84 4.286l.042.042-1.416 1.416-.042-.042c-1.128-1.128-2.812-1.459-4.319-.827A3.903 3.903 0 0050 56.945V57h-2v-.055c0-1.591-.95-3.011-2.452-3.632a3.909 3.909 0 00-4.287.841l-.042.042-1.355-1.355c.08-.269.136-.547.136-.841 0-.71-.258-1.354-.672-1.869.622-1.679 1.597-3.022 2.732-4.262C42.49 49.319 45.435 52 49 52c3.86 0 7-3.141 7-7s-3.14-7-7-7c-.098 0-.193.01-.29.014.677-1.405 1.142-3.034 1.259-5.014H50v.055c0 1.591.95 3.012 2.451 3.631a3.907 3.907 0 004.287-.84l.042-.042 1.416 1.416-.042.042c-1.126 1.127-1.456 2.81-.827 4.318A3.902 3.902 0 0060.945 44H61z"/></g></svg>