<svg id="Layer_1" data-name="Layer 1" xmlns="http://www.w3.org/2000/svg" viewBox="0 0 371.62 347.47"><defs><style>.cls-1{fill:#b4cae1}.cls-2{opacity:.5}.cls-3{fill:#fff}.cls-4{fill:#2b3d60}.cls-5{fill:#fac8a7}.cls-6{fill:#f26f51}.cls-7{fill:#ffa04a}.cls-8{fill:#37445e}.cls-9{fill:#54382c}.cls-10{fill:#f2ac8a}.cls-12{fill:#86a4bf}.cls-13{fill:#ffdbc7}.cls-14{fill:#f7c0a4}.cls-16{fill:#2b577a}.cls-17{fill:#d8d8d8}.cls-19{fill:#e8a885}</style></defs><path class="cls-1" d="M53.68 377.82c0 11.9 20.53 21.54 48.81 31.1 33.2 11.22 51 16.56 132.38 19.39 49.09 1.7 70.06-4.35 96.9-8.08 64-8.89 84.29-25.14 84.29-42.41 0-25.89-81.12-46.88-181.19-46.88-34.8 0-68.44-1.55-96.16 2-62.71 8.14-85.03 27.99-85.03 44.88z" transform="translate(-49.85 -101.58)"/><g class="cls-2"><path class="cls-3" d="M374.19 363.32a35.71 35.71 0 007.32 5.6c2.48 1.57 5.18 3.15 7 5.54a9 9 0 01.69 9.62c-1.77 3.55-5 5.86-8.61 7.32a82.31 82.31 0 01-12.06 3.37q-6.6 1.59-13.22 3-13.41 2.91-26.94 5.19a573.31 573.31 0 01-108.11 8c-35.67-.78-71.7-4.7-106.4-13.18a133.88 133.88 0 01-23.19-7.61A83.2 83.2 0 0180 384.49c-3.25-2.09-6.75-4.39-9.1-7.52-2-2.73-3-6.49-1.25-9.61s5.07-4.92 8.08-6.41c7.57-3.77 16.11-5.79 24.24-8a286.41 286.41 0 0141.22-8.34 279.36 279.36 0 0131.15-1.69h7.34a1.59 1.59 0 000-3.18c-10.68 0-21.35.09-32 1a266.38 266.38 0 00-40.42 7c-8.6 2.13-17.27 4.37-25.63 7.32-6.36 2.23-15.14 5.49-17.56 12.51-2.71 7.87 4.29 14.09 10 18.09a91.46 91.46 0 0022.54 11.05 204.41 204.41 0 0024.71 6.46q13.86 2.91 27.87 5a536.42 536.42 0 0056.71 5.54 573.19 573.19 0 00112.73-6.36A538.65 538.65 0 00376 396.2c7.35-1.94 15.37-5.64 17.18-13.83 1.59-7.2-3.43-12-9-15.51-2.72-1.75-5.53-3.39-7.75-5.78-1.39-1.5-3.63.75-2.24 2.24z" transform="translate(-49.85 -101.58)"/></g><g class="cls-2"><path class="cls-3" d="M349.76 365.77c3.61 0 5.6 3.93 5.74 7.11.19 4.41-3.05 7.87-6.59 10-4.4 2.68-9.57 4-14.56 5.14-5.73 1.25-11.57 2-17.38 2.69a597.23 597.23 0 01-71.73 4.38 597.43 597.43 0 01-71.5-4.26q-17.94-2.13-35.74-5.39c-5.64-1-11.35-2-16.92-3.4-4.66-1.18-9.51-3.26-11.51-8a7.71 7.71 0 01-.12-6.31 9.56 9.56 0 014.54-4.18 32.79 32.79 0 016.1-2.17q4.39-1.23 8.84-2.29a230.72 230.72 0 0135.34-5.62q4.42-.35 8.86-.54c2-.08 2-3.26 0-3.17a237 237 0 00-38 4.7c-6 1.23-12 2.64-17.79 4.42-4.37 1.33-9.06 3.45-10.92 7.94s.06 9.85 3.47 13.14c4 3.87 9.72 5.05 15 6.13q18.75 3.84 37.71 6.47a600.92 600.92 0 0075.92 5.66 593.46 593.46 0 0076.32-4.08c6.12-.73 12.27-1.45 18.33-2.64 5.48-1.08 11.11-2.51 16.08-5.15 4.09-2.18 8.16-5.77 9.18-10.51a12.06 12.06 0 00-3.43-11.22 7.86 7.86 0 00-5.28-2 1.59 1.59 0 000 3.17z" transform="translate(-49.85 -101.58)"/></g><g class="cls-2"><path class="cls-3" d="M306.88 357.69c3 1.1 6.13 2.23 8.64 4.27a10.22 10.22 0 014.08 7.54c0 6.68-8.72 8.74-13.84 9.44-3.78.52-7.62.61-11.42.77q-6 .26-12 .42-12 .33-23.94.29-23.94-.07-47.86-1.61c-7.73-.5-15.5-1-23.21-1.88A61.65 61.65 0 01177.1 375a34.37 34.37 0 01-4.95-1.79c-1.35-.63-3.1-1.31-4.06-2.51a2.78 2.78 0 01.1-3.24 6.26 6.26 0 013.39-2.34 91.83 91.83 0 0110.85-2.79 164.78 164.78 0 0123-3.31c1.87-.13 3.76-.23 5.64-.31s2-3.25 0-3.17a170 170 0 00-24.65 2.76q-6 1.13-11.92 2.68c-3.41.9-7.49 1.84-9.25 5.27a6.14 6.14 0 00-.48 4.9 7.68 7.68 0 003.86 3.82 39.9 39.9 0 0010.53 3.82 90.28 90.28 0 0011.34 1.63c4.14.39 8.29.72 12.44 1q25.26 1.88 50.6 2.11 12.73.12 25.48-.17 6.28-.15 12.58-.4c4-.15 8.1-.26 12.13-.64 6.64-.64 15.63-2.34 18.43-9.37 1.27-3.18.49-6.87-1.27-9.72a18.11 18.11 0 00-8.24-6.67c-1.6-.73-3.25-1.35-4.91-2a1.6 1.6 0 00-2 1.11 1.62 1.62 0 001.11 1.95z" transform="translate(-49.85 -101.58)"/></g><path class="cls-1" d="M90.07 402.86c0-.08 0 0 0 0v.19l-.06.3c0 .21-.11.42-.17.63a6.32 6.32 0 01-.22.61v.06l-.06.14-.15.31a8.32 8.32 0 01-.69 1.09c-.08.1.07-.08 0 0l-.1.12-.22.25a5.44 5.44 0 01-.48.48.79.79 0 000 1.12.81.81 0 001.12 0 8.66 8.66 0 002.68-5.34.8.8 0 00-.8-.79.82.82 0 00-.79.79zM84.29 399.63a26.15 26.15 0 01-3.43 5.87.83.83 0 000 1.12.81.81 0 001.13 0 27.77 27.77 0 003.67-6.19.81.81 0 00-.28-1.08.8.8 0 00-1.09.28zM420.68 369.19a56.12 56.12 0 00-12.26 3c-.95.35-.54 1.88.42 1.53a53.67 53.67 0 0111.84-3 .84.84 0 00.79-.8c0-.38-.37-.85-.79-.79zM415.6 364.57a41.68 41.68 0 01-11.08 5.64c-1 .32-.55 1.85.43 1.53a43 43 0 0011.45-5.8c.83-.58 0-2-.8-1.37zM409.79 361.38a39.88 39.88 0 00-6.81 5.76c-.7.74.42 1.86 1.12 1.12a38.39 38.39 0 016.49-5.51.79.79 0 00-.8-1.37zM414.44 391.73a39.68 39.68 0 01-5.66-4 .8.8 0 00-1.12 1.13 42.92 42.92 0 006 4.21.79.79 0 001.08-.28.81.81 0 00-.28-1.09zM409.75 401.85L398 394.71a.79.79 0 00-.8 1.37l11.8 7.14a.79.79 0 00.8-1.37zM402.34 405.36a33.54 33.54 0 01-5.77-7.42.79.79 0 00-1.37.8 35.67 35.67 0 006 7.75c.74.71 1.86-.41 1.12-1.13zM419.71 382.4a66.76 66.76 0 00-10.71-1.63c-1-.08-1 1.51 0 1.58a64.93 64.93 0 0110.29 1.58c1 .23 1.42-1.3.42-1.53zM394.15 406.08l-2.73-5.66a.79.79 0 00-1.37.8l2.73 5.66a.79.79 0 001.37-.8zM385.88 413.4l-5-7.29a.82.82 0 00-1.09-.28.8.8 0 00-.28 1.08l5 7.3a.82.82 0 001.09.28.8.8 0 00.28-1.09zM381.53 415l-4.9-9.78c-.46-.91-1.83-.11-1.37.8l4.9 9.78c.46.92 1.83.11 1.37-.8zM372.42 416.12a59.24 59.24 0 01-4.61-10.28c-.32-1-1.85-.55-1.53.42a61 61 0 004.77 10.66.79.79 0 001.37-.8zM354.64 421.17q-1.65-5.42-3.31-10.84a.79.79 0 00-1.53.42q1.67 5.42 3.31 10.84c.3 1 1.83.56 1.53-.42zM349.69 422.86a47.61 47.61 0 00-2.41-9.39.81.81 0 00-1-.55.79.79 0 00-.55 1 47.61 47.61 0 012.41 9.39.8.8 0 001 .56.82.82 0 00.56-1zM336.24 428.3c-.2-4.32-.57-8.64-1.08-12.94-.12-1-1.71-1-1.59 0q.78 6.45 1.08 12.94c.05 1 1.64 1 1.59 0zM331.12 425.26c-.55-3.09-1.11-6.17-1.67-9.26a.79.79 0 10-1.53.42q.84 4.63 1.67 9.27a.8.8 0 001 .55.81.81 0 00.55-1zM316.27 429.52a41.85 41.85 0 00-1-11.16c-.22-1-1.75-.57-1.53.42a40.39 40.39 0 01.92 10.74c-.05 1 1.54 1 1.58 0zM308.66 430.32q-.44-6.06-.86-12.11c-.07-1-1.66-1-1.59 0q.44 6 .86 12.11c.07 1 1.66 1 1.59 0zM322.11 427.5a54 54 0 00-1.39-13.17c-.23-1-1.76-.58-1.53.42a52.58 52.58 0 011.34 12.75.79.79 0 001.58 0zM301.88 429.92a49 49 0 00-.21-8.9.81.81 0 00-.79-.8.8.8 0 00-.79.8 49.91 49.91 0 01.2 8.9c-.06 1 1.52 1 1.59 0zM285.62 433.55a90.16 90.16 0 01-.44-12.51c0-1-1.55-1-1.58 0a90.16 90.16 0 00.43 12.51c.1 1 1.69 1 1.59 0zM277 433.56v-8.08a.79.79 0 00-1.58 0v8.08a.79.79 0 001.58 0zM270 430.33v-5.25a.8.8 0 00-.79-.8.82.82 0 00-.8.8v5.25a.8.8 0 001.59 0zM245 426.06a11.52 11.52 0 00-.72 6.09.79.79 0 001 .55.81.81 0 00.56-1 10.08 10.08 0 01.72-5.25.79.79 0 00-1.53-.42zM239.7 425.29l-1.23 5.64a.82.82 0 00.56 1 .79.79 0 001-.55l1.23-5.65a.8.8 0 00-.56-1 .79.79 0 00-1 .55zM228.06 425.7l-1.35 8a.82.82 0 00.55 1 .8.8 0 001-.55l1.35-8.05a.83.83 0 00-.56-1 .8.8 0 00-1 .56zM217 423.86a26.28 26.28 0 01-2.3 9.27.83.83 0 00.29 1.09.79.79 0 001.08-.29 28.5 28.5 0 002.52-10.07c.06-1-1.52-1-1.59 0zM210.3 424.44l-1.08 6.48a.82.82 0 00.56 1 .8.8 0 001-.55l1.08-6.48a.82.82 0 00-.56-1 .8.8 0 00-1 .55zM204.52 424.27v5.65a.8.8 0 101.59 0v-5.65a.82.82 0 00-.8-.8.81.81 0 00-.79.8zM148.32 333.4l-4.16-6.54a.82.82 0 00-1.09-.29.81.81 0 00-.28 1.09l4.21 6.54a.79.79 0 101.37-.8zM137.92 335.4l-5.85-7.2a.81.81 0 00-1.13 0 .83.83 0 000 1.13q2.94 3.59 5.86 7.19a.8.8 0 001.12 0 .81.81 0 000-1.12zM126.12 337l-2.7-4.87a.8.8 0 00-1.08-.28.81.81 0 00-.29 1.08l2.7 4.87a.8.8 0 001.08.28.81.81 0 00.29-1.08zM120.51 339.34a15.21 15.21 0 01-2.78-5.39.81.81 0 00-1-.55.8.8 0 00-.55 1 17.15 17.15 0 003.19 6.08.8.8 0 001.12 0 .81.81 0 000-1.12zM112.51 341.46a53.72 53.72 0 01-3-9.11c-.23-1-1.77-.57-1.53.43a56.84 56.84 0 003.17 9.49.8.8 0 001.09.28.82.82 0 00.28-1.09z" transform="translate(-49.85 -101.58)"/><path class="cls-1" d="M148.47 326.91l-.48 7.27a.8.8 0 001.59 0l.48-7.27a.81.81 0 00-.8-.79.8.8 0 00-.79.79zM138.27 330.15l.48 6.05a.8.8 0 001.59 0l-.48-6.05a.82.82 0 00-.8-.8.81.81 0 00-.79.8zM106.43 340.57a32.45 32.45 0 00-3.79-5.31.79.79 0 00-1.12 0 .81.81 0 000 1.12 30.4 30.4 0 013.54 5 .79.79 0 001.37-.8zM100.12 342.86L94 338.25a.79.79 0 00-1.08.28.82.82 0 00.28 1.09l6.12 4.61a.79.79 0 10.8-1.37zM93.54 346a38.38 38.38 0 01-6.81-4.77.79.79 0 00-1.12 1.12 40.72 40.72 0 007.13 5 .79.79 0 00.8-1.37zM87.31 348.85L78 344.69a.81.81 0 00-1.09.28.8.8 0 00.29 1.09l9.29 4.16a.83.83 0 001.09-.29.79.79 0 00-.29-1.08zM78.35 350.31a38.51 38.51 0 01-6.47-1.31.79.79 0 00-.42 1.53 40.45 40.45 0 006.89 1.39.79.79 0 00.79-.79.8.8 0 00-.79-.79zM72.12 355.18l-8.56-.91a.8.8 0 00-.8.79.82.82 0 00.8.8l8.56.91a.8.8 0 00.79-.79.82.82 0 00-.79-.8zM63.94 359.24h-5.07a.8.8 0 000 1.59h5.07a.8.8 0 00.79-.79.81.81 0 00-.79-.8zM60 365.71h-5a.79.79 0 100 1.58h5a.79.79 0 000-1.58zM56.71 370.16l-3.11.45a.81.81 0 00-.47.36.83.83 0 00-.08.62.81.81 0 00.36.47.92.92 0 00.61.08l3.11-.45a.78.78 0 00.48-.37.81.81 0 00.08-.61.82.82 0 00-.37-.47.92.92 0 00-.61-.08zM55.09 377.64a14.68 14.68 0 01-4.85 6.69.81.81 0 00-.28 1.08.79.79 0 001.08.29 16.56 16.56 0 005.58-7.64.81.81 0 00-.56-1 .8.8 0 00-1 .56zM58.25 384.51a11.91 11.91 0 01-2.72 4.81.79.79 0 001.12 1.12 13.71 13.71 0 003.13-5.51.79.79 0 00-.55-1 .81.81 0 00-1 .55zM64.32 390.55c0 .1 0 .11 0 0a1 1 0 000 .17V392.58c0 .04 0-.06 0 0a9.14 9.14 0 01-.27 1.15c-.06.19-.12.37-.19.56v.12l-.15.3a.82.82 0 00.29 1.09.8.8 0 001.08-.29 9.11 9.11 0 00.82-5.46.81.81 0 00-1-.56.83.83 0 00-.55 1zM76 396.79c-.22 1.89-.43 3.78-.65 5.67a.8.8 0 00.79.8.81.81 0 00.79-.8l.66-5.67a.8.8 0 00-.79-.79.82.82 0 00-.8.79zM197.12 425.08a19.41 19.41 0 01-.39 5.43.82.82 0 00.56 1 .79.79 0 001-.55 21.39 21.39 0 00.44-5.86.81.81 0 00-.79-.8.8.8 0 00-.79.8zM189.78 424.24a22.22 22.22 0 00-2 5.47.79.79 0 101.53.43 20.25 20.25 0 011.81-5.1.81.81 0 00-.29-1.08.79.79 0 00-1.08.28zM184.41 423.48l-3.22 6.41a.81.81 0 00.28 1.08.8.8 0 001.09-.28l3.22-6.41a.81.81 0 00-.29-1.08.79.79 0 00-1.08.28zM179.82 424.51a17 17 0 00-3.24 4.6.81.81 0 00.28 1.09.8.8 0 001.09-.28 16.26 16.26 0 011.35-2.33l.39-.53c.08-.1-.07.08 0 0l.11-.15.2-.24q.43-.52.93-1a.81.81 0 000-1.12.82.82 0 00-1.13 0zM169.49 422a18.25 18.25 0 00-1.19 7.49.8.8 0 00.79.79.79.79 0 00.79-.79 17.16 17.16 0 011.14-7.06.8.8 0 00-.55-1 .82.82 0 00-1 .55zM160.82 420.51a14.25 14.25 0 00-2.06 6.2.79.79 0 00.79.79.81.81 0 00.8-.79 12.64 12.64 0 011.84-5.4.79.79 0 10-1.37-.8zM149.09 419.29a20.6 20.6 0 00-3 5.14.8.8 0 00.55 1 .82.82 0 001-.56c.11-.29.32-.74.51-1.12s.42-.8.65-1.19.47-.77.72-1.14c.13-.18.26-.37.4-.55l.13-.17a2.65 2.65 0 01.21-.26.84.84 0 000-1.13.82.82 0 00-1.13 0zM137.65 417a16.83 16.83 0 00-1.7 5.64.79.79 0 00.8.79.82.82 0 00.79-.79 15.17 15.17 0 011.48-4.84.82.82 0 00-.28-1.09.81.81 0 00-1.09.29zM130.21 415.37l-1.55 2.83a.79.79 0 001.37.8l1.55-2.83a.79.79 0 10-1.37-.8zM123 414.42c-.91 1.07-1.81 2.15-2.72 3.23a.79.79 0 001.12 1.12l2.73-3.23a.82.82 0 000-1.12.8.8 0 00-1.13 0zM114.47 410.5a9.91 9.91 0 00-4.11 5.5.79.79 0 00.55 1 .81.81 0 001-.55c.07-.25.16-.5.25-.75 0 0 .08-.19 0-.12l.06-.12a3.78 3.78 0 01.17-.35 9.07 9.07 0 01.8-1.3s.11-.15 0-.06l.1-.12.25-.3a7 7 0 01.54-.55 7.19 7.19 0 01.59-.51c-.07.05 0 0 0 0l.15-.11.36-.24a.79.79 0 00-.8-1.37zM106.78 408.7a10.22 10.22 0 01-.31 1.08c-.06.17-.13.35-.2.52s0 .09 0 .13a2.14 2.14 0 00-.1.22c-.16.32-.33.64-.52 1a4.53 4.53 0 01-.3.46l-.16.23s-.19.25-.08.11a.88.88 0 00-.23.57.79.79 0 001.35.56 11.55 11.55 0 002.13-4.4.8.8 0 00-.55-1 .81.81 0 00-1 .55zM101.77 404.52a17.3 17.3 0 00-5 7.45.8.8 0 00.55 1 .81.81 0 001-.55 15.7 15.7 0 014.62-6.75.79.79 0 000-1.12.8.8 0 00-1.12 0zM94 401.78a19.64 19.64 0 00-3.93 7.34.8.8 0 001.53.43 17.7 17.7 0 013.52-6.65.81.81 0 000-1.12.79.79 0 00-1.12 0z" transform="translate(-49.85 -101.58)"/><path class="cls-4" d="M333.88 308.2s28.77 2.55 47.79 9.16c7.6 2.65-36.11 28-36.11 28l-37.75 11.88-63.71-6.49-14.73-38.32s-1.08-3.79 3.06-6c5.85-3.17 21.67-3.21 25-3.52s72.66-1 72.66-1z" transform="translate(-49.85 -101.58)"/><path class="cls-5" d="M336.59 366.07c-3.64-2.91-4.92-3.6-11.41-6-6-2.24-12.27-8-12.27-8-2.61-3.39-5.41-6.17-9.06-7.48-6.66-2.41-9.41 1.38-19 2s-13.43-1-13.43-1c-.49 4.1-1.84 18-1.84 18s10.36 2.68 20.23 4.08c1.71.25 3.39.43 5 .56 5.79.63 33 2.91 41.73 4.53 7.8 1.38 7.26-5.38.05-6.69zM250.34 425.87c-.33-1.69-.61-3.3-.84-4.73-2.26-9.57-7.76-23.36-3.61-29.39 3-4.34 8.6-1.81 14.3-2.83 5.45-1 9.18-1.86 13.73-3 9.35-2.25 14-6.35 14-6.35 1.59 3.79 12.85 19.07 12.85 19.07s-15.34 3.24-24.41 7.51c-1.57.74-3.13 1.4-4.64 2a12.06 12.06 0 00-2.92 2.36c-.08.16-.16.31-.23.49-1.51 3.83-2.6 12.11-2.43 15.94s-2.86 10.55-2.36 15.34c.68 6.39-4.28 8.6-6.8 5s-1.68-5-4.37-12.7a67.34 67.34 0 01-2.27-8.68z" transform="translate(-49.85 -101.58)"/><path class="cls-4" d="M372.41 316.8c11.88-1.79 29.65 7.46 32.25 23.9s-2.55 22.79-24 34.36c-15.73 8.49-76 25.42-86 28.61a122.84 122.84 0 01-20.89 4.84l-7.52-22s94.28-67.93 106.16-69.71zM229.37 308.58s-2.43.79-20.19 1c-17.42.22-37.91 5-47.75 11s-14.46 20.45-9.54 32 16.38 22 48 20.34c12.85-.67 73.95-6.06 73.95-6.06V342.4l-37.12-36.07z" transform="translate(-49.85 -101.58)"/><path class="cls-5" d="M250.87 183s9.17 20.25 32.8 20.93c0 0 21.08.13 33.41-20.92 0 0-15.58-3.86-19.3-6.37-2-1.35-3.5-9.95-3.18-17.69.08-2.2.21-4.32.33-6.19.28-4 .57-6.79.57-6.79l-11.5 3.59-13.29-.25-3.38-.06V151.15c0 2.21 0 6.11-.29 10.21 0 .56-.41 12.72-1.71 14.48a7.19 7.19 0 01-1.84 1.62c-4.1 2.83-12.62 5.54-12.62 5.54zM260.21 140.3a5.76 5.76 0 00-2.36-4.17 4 4 0 00-4.42-.16c-3.34 2.34-.24 13.6 4.62 13.77 2.82.1 2.5-6.19 2.16-9.44z" transform="translate(-49.85 -101.58)"/><path class="cls-6" d="M250.17 126.81s-.27 3-.39 6.06 1.49 5.19 3.24 7.54 1.65 4.57 2.48 4.71 1.29-3.78 1.29-5.42-.84-9.65-.84-9.65" transform="translate(-49.85 -101.58)"/><path class="cls-7" d="M234.54 305.41c0 1.91 3.8 5.34 5.49 5.73 7.44 1.67 10.76-.4 21.36-.87 6.93.52 13.71 2.81 19.86 2.49 6.17.32 15.95 1.5 22.88 1 10.6.45 15.32-5 22.13-5.38 2.49-.1 4.94-.18 7.29-.18 1.79-3.54 1.9-8.32 1.38-14.12-.12-1.76-.32-3.61-.6-5.51-1.33-10.25-.52-43.63.28-56.49 1-15.42 2-22.46 2.38-28.54.41-4.31.73-7.8.94-10.08a8.62 8.62 0 00-.71-.63c-5-4.25-11.71-7-14.75-8.18a1.32 1.32 0 01-.3-.1 4.27 4.27 0 00-.46-.16 1.42 1.42 0 00-.33-.11l-.26-.1-.19-.06-.13-.05c-4.47-1.5-9.25-3-13.6-4.32-4.11-1.56-6.46-2.48-6.46-2.48 0 .19-.05 19-16.64 21-1 .13-1.93.2-2.85.23s-1.85-.1-2.84-.23c-16.6-2-16.65-20.81-16.65-21 0 0-2.34.92-6.45 2.48-4.35 1.28-9.13 2.82-13.62 4.32l-.11.05-.2.06c-.06 0-.15.07-.26.1a1.82 1.82 0 00-.33.11 4.16 4.16 0 00-.45.16 1.76 1.76 0 01-.3.1c-.41.22-6.87 4.09-8.74 10.76-2 6.85 1.35 21.72 4.37 50.14s-1.13 59.86-1.13 59.86z" transform="translate(-49.85 -101.58)"/><path class="cls-5" d="M355.22 237.41s4.29 24.07 9.21 40.2c2.89 9.47-23.18 17.89-28.62.14-4.05-13.22-6-16.76-7.55-24.63 0 0 24.74-13.12 26.96-15.71z" transform="translate(-49.85 -101.58)"/><path class="cls-7" d="M361.13 254.77s-6.84 9.3-27.43 10.24c-1.45.07-7.42.82-11 .1-4.79-9.63-8.95-28.85-12.19-45 3.77-12.59 17.89-27 19.85-32 9 4.67 11.94 8.23 13 10.25 6.97 13.3 17.77 56.41 17.77 56.41z" transform="translate(-49.85 -101.58)"/><path class="cls-5" d="M211.75 227.56s-9.41 20.46-15.16 36.25c-2.26 6.19 4.41 21.53 12.6 23.05 4.09.75 6.41-.87 9.53-6.16a170.15 170.15 0 0013-27.92s-18.17-22.3-19.97-25.22z" transform="translate(-49.85 -101.58)"/><path class="cls-7" d="M203.1 243.64s5.22 10.36 25.36 14.9c1.42.32 7.18 2.11 10.83 2 6.3-8.65 13.52-26.87 19.34-42.21-1.66-13.07-13.24-29.71-14.35-35-9.68 3-13.11 6-14.49 7.83-9.04 11.84-26.69 52.48-26.69 52.48z" transform="translate(-49.85 -101.58)"/><path class="cls-5" d="M253.71 128.16a65.89 65.89 0 00.83 10.12c1 5.56 1.77 16.45 4.09 25.53 3.54 13.82 19.15 12.83 24.95 6.89 5.18-5.3 8.57-12.71 10.81-19.52s4.77-13.75 6.61-23.18c1.36-7.2-7.71-18.95-22.22-19.24-13.35-.3-25.25 6.67-25.07 19.4z" transform="translate(-49.85 -101.58)"/><path class="cls-8" d="M355.07 328.33l-9 5.65-9.23 5.75c-3.39 2.09-7 4.32-10.57 6.61s-7.22 4.46-10.57 6.6l-9.2 5.81-6.5 4.11-2.48 1.55 2.31-1.81c1.49-1.13 3.59-2.77 6.2-4.62s5.63-4 9-6.22 6.89-4.53 10.49-6.81 7.27-4.4 10.69-6.43 6.7-3.79 9.49-5.33 5.16-2.72 6.8-3.57zM272.78 346.54s-5.15-.21-12.79-1.36c-3.81-.61-8.25-1.41-13-2.55s-9.63-2.67-14.58-4l-7.38-2.06c-2.44-.65-4.85-1.25-7.19-1.79l-6.77-1.45c-2.16-.42-4.21-.79-6.11-1.07s-3.64-.5-5.19-.73-2.91-.34-4-.43l-3.52-.31h3.53c2.25.06 5.47.12 9.31.56 1.93.19 4 .48 6.2.8l3.36.55 3.49.71c2.37.51 4.8 1.08 7.27 1.69s5 1.27 7.42 2c5 1.45 9.86 3 14.5 4.25s9 2.28 12.78 3 6.93 1.33 9.15 1.67z" transform="translate(-49.85 -101.58)"/><path class="cls-9" d="M266 142.82c-.07 1.09-.63 1.94-1.25 1.9s-1.07-1-1-2.06.63-1.95 1.25-1.9 1.07.96 1 2.06zM281.74 144.78c-.13 1.09-.74 1.9-1.35 1.82s-1-1-.89-2.11.74-1.91 1.36-1.83 1.01 1.03.88 2.12z" transform="translate(-49.85 -101.58)"/><path class="cls-10" d="M272.69 153.94a.39.39 0 01-.21 0c-.68-.31-2.91-1.39-3.18-2.47s1.39-6.16 1.83-7.77c.07-.23.16-.49.31-.45s.17.26.11.5a36 36 0 00-1.43 7.49c.12.47 1.49 1.34 2.7 1.89a.46.46 0 01.22.58.43.43 0 01-.35.23z" transform="translate(-49.85 -101.58)"/><path class="cls-5" d="M293.25 143.1a5.62 5.62 0 012.93-3.76 4 4 0 014.4.53c3 2.83-1.74 13.48-6.57 12.89-2.8-.34-1.58-6.51-.76-9.66z" transform="translate(-49.85 -101.58)"/><path class="cls-10" d="M298.16 142a1.21 1.21 0 00-.35.13 2.69 2.69 0 00-.81.56 4.14 4.14 0 00-.86 1.13 6.63 6.63 0 00-.55 1.55 5.18 5.18 0 00-.12 1.66 1.91 1.91 0 00.27.78 1.08 1.08 0 00.6.45 1.65 1.65 0 001-.11 2.21 2.21 0 00.32-.18 2.43 2.43 0 01-.35.07 1.7 1.7 0 01-.87-.08 1 1 0 01-.48-1 6.12 6.12 0 01.18-1.49 7 7 0 011.1-2.58 4.05 4.05 0 01.92-.89z" transform="translate(-49.85 -101.58)"/><path class="cls-6" d="M286.06 139.87a6.73 6.73 0 00-3.07-1.45c-2.19-.41-3.53.13-3.63.45s-.23 1.09.29 1.1a9.21 9.21 0 013.19-.23c2.7.5 3.82 1.57 4.09 1.35s-.49-.92-.87-1.22zM261.55 137.53a6.65 6.65 0 013.28-.81c2.23 0 3.43.82 3.47 1.16s0 1.12-.48 1a9.37 9.37 0 00-3.09-.86c-2.74 0-4 .78-4.27.52s.66-.8 1.09-1.01z" transform="translate(-49.85 -101.58)"/><path d="M247.27 244.53s2.71 13.36 14.41 19.09c14.74 7.21 33.45 5.4 43.29 12.3s14.67 20.65 14.67 20.65-10.49-13.11-26.47-16.19-44.7-9.08-45.9-35.85z" transform="translate(-49.85 -101.58)" fill="#f79748"/><path class="cls-5" d="M364.43 277.61s3.19 9.11-5.52 17.39-20.66 10.2-20.66 10.2l-1.88-11.82s1.17-12.32 6.23-16.76 18.15-4.62 21.83.99z" transform="translate(-49.85 -101.58)"/><path class="cls-6" d="M298.34 138.87c2.76-4.28 5.18-8.42 6.07-13.49.5-2.83.29-6-1.4-8.25-1.94-2.6-5.32-3.49-7.76-5.58a21.57 21.57 0 01-4.53-4.86c-1.6-2.63-7.82-6.54-11.44-4.57-1.71.92-5.22 5.91-11.78 4.63-1.86-.36-10.31-2.65-13 2-.81 1.4-.67 3.76-1.27 4.49-2.89 3.5-6.07.41-9.95 2.65-6 3.46-.54 16.34 6 14.39.85-.26 2.59.53 3.43.82a18.07 18.07 0 012.89 1.77 10.6 10.6 0 005.21 1.11 32.36 32.36 0 009.17-1.2c4.34-1.22 8.68-3.36 13.12-2.6a11.55 11.55 0 018.94 8.77 34.7 34.7 0 01.54 4.2c.08.69.41 1.58 1.07 1.48a1.25 1.25 0 00.75-.63 10.76 10.76 0 001.75-3.46" transform="translate(-49.85 -101.58)"/><path class="cls-6" d="M294 152.76c.75-3.8 1-11.27 3-12.91 1.2-1-4.52.75-4.61 1.6-.48 4.52-.72 11.33-3.15 15.34-2.29 3.76-4 3.77-6.12 3.77-2.92 0-4.4-1.7-7.91-3.11a15.24 15.24 0 00-10.41-.61c-3.93 1-7.54.6-7.68-.16s-.57 2.28-.34 4.45a47.47 47.47 0 001.56 10.25c1.44 4.94 6.85 9.43 11.49 9.7 10.3.61 16.53-7.52 18.38-10.85 3.5-6.23 5.49-15.88 5.79-17.47z" transform="translate(-49.85 -101.58)"/><path class="cls-3" d="M265.54 160.56s10.82 1.37 11.2 1.81-3 4.53-7.31 3.76c-3.64-.65-4.81-5.69-3.89-5.57z" transform="translate(-49.85 -101.58)"/><path class="cls-12" d="M314.92 256.56a34.22 34.22 0 01-19 5s-4.2 4.53-4.74 18.08c-.27 6.57 1.06 28.12 1.06 28.12l.25.06a51 51 0 0133.79 24.59c3 5.35 4.44 10.21 1.48 12.39 0 0 6.63 0 9.39-13.36s2.46-30.56.44-40.87-7.48-29.09-22.67-34.01z" transform="translate(-49.85 -101.58)"/><path class="cls-5" d="M329.7 311.69a27.21 27.21 0 0014.12-7c4.95-3.42 5.68-16.39 2.11-22.72a27.38 27.38 0 00-5.57-6.56c-2-1.58-10.6-8.57-11.73-7.59-.42.36-1.95 4.3 1.52 7.77s5.39 6.85 5.22 9.31-6.93 5.56-9.67 6.69c-1.64.67-11.25-.25-14.84-.43-2.42-.12-2.65 1.29-2.4 2.06a6.4 6.4 0 001.21 1.91 2.64 2.64 0 00-1.82.5c-1.39 1.33 1.27 3.85 3.57 5.86-2.24.73 1.78 5.28 3.12 6.26s10.97 4.68 15.16 3.94z" transform="translate(-49.85 -101.58)"/><path class="cls-13" d="M309.17 266.86s-9.58 8-14.07 12.81l-28.1-3.2-2 8.77s21 13.48 29.28 14.41 23.68-9.82 27.05-12.15c5.8-4 8.17-10.92 4.11-17.37-4.76-7.62-11.44-6.73-16.27-3.27z" transform="translate(-49.85 -101.58)"/><path class="cls-12" d="M300.21 273.94s3.52-.88 7.16 4.33c3 4.26 4.83 11.51 4.9 15.82 0 0 10.86-5.41 14.91-11.21s-.59-14-2.91-16.56-11.99-7.07-24.06 7.62z" transform="translate(-49.85 -101.58)"/><path class="cls-5" d="M296.8 310.5l-18.93 26.12a2 2 0 01-.15-.21s-11.25 4.58-22.27 4.27a8.75 8.75 0 00-6.88 2.92c-1.25 1.42-2.91 2.58-4.71 1.88-3.75-1.51-4.36-5-8.49-12.12s-4.72-9.06-2.59-9.3 7.77 3.9 11.23 5.17 17.06-9.46 25.95-14.35c8.53-4.69 19.78-8.88 26.84-4.38z" transform="translate(-49.85 -101.58)"/><path class="cls-13" d="M292.28 307.72s14.37-.73 27.24 6.11c21.67 2 17.69 27.85 8.28 30.93-16.29 5.34-36.81-4.39-36.81-4.39s-6.34 10.67-15.33 17.3a9.32 9.32 0 00-3.81 6.62c-.17 1.91-.82 3.88-2.67 4.43-3.87 1.15-6.35-1.24-13.81-4.39s-9-4.29-7.45-5.82 8.46-1.72 12-2.87S268 337.46 272.31 328s11.21-20.32 19.97-20.28zM309.78 263.75c-3 3.19-10 7.64-12.94 6.9-1.53-.37-1.61-3-1.37-5.49.19-2.14.47-3.11.4-3.54 0-.18.83-5.51.83-5.51.08-.64-.7-.37.25-1.31 4.22-4.22 19.81-10.75 18.78-6.8a25.36 25.36 0 00-.81 8.56s-1.13 2.92-5.14 7.19z" transform="translate(-49.85 -101.58)"/><path class="cls-14" d="M309.78 251.65s-4.81 12.51-14.15 12.09c.26-2.83.84-5.52.76-6.09 0-.23-.07-.47-.1-.68a3.84 3.84 0 001.76-.19z" transform="translate(-49.85 -101.58)"/><path class="cls-6" d="M289.92 219.78c-.79.44-2.09-2.29-5.47 2.76a6.17 6.17 0 00-1.35 2.38c-.27 1.78 1 3.57.56 5.32a4.75 4.75 0 00-.32 1.52c.08.86.92 1.39 1.67 1.78a.89.89 0 00.54.15.93.93 0 00.51-.37c.39-.45.77-.9 1.16-1.34" transform="translate(-49.85 -101.58)"/><path class="cls-13" d="M287.44 256.28c5.7 3.31 16 3 23-5.37 1.17-1.39 4.29-.83 5.37-2.2.85-1 1.61-2.12 2.3-3.1a53.457 53.457 0 003.07-5.24s1.65-3.6 1.72-11c0 0 2.34-9.66-4-14.29-2.84-2.08-8.91-4.31-15.28-4.6-4.14 2.2-15.52 8.75-17.42 15.45s-4.17 7.79-4.44 14.23a33.63 33.63 0 000 7.33 12.72 12.72 0 005.68 8.79z" transform="translate(-49.85 -101.58)"/><path class="cls-6" d="M280.13 217.23c1.54 6.65 6.49 6.86 9.69 6.8a5.16 5.16 0 014 1.7c4 4.59 10.26 3.43 11.69 3.93 5.42 1.91 4.91 10.31 7.05 9.43 1.29-.52.44 2 .2 4.56.7.73 1.54 5.7 3 5.07 3.93-1.72 17.76-16.72 9.24-24.53-1.2-3.84-2-9-5.64-10.43-7.75-3-6.67-8.65-14.12-9-4.22-.23-10.51 5.49-14.57 5.37-2.64-.08-6.72-1.46-8.17-.46-3.34 2.33-3 4.84-2.37 7.56z" transform="translate(-49.85 -101.58)"/><path class="cls-13" d="M308.19 241.24a6.56 6.56 0 011.41-3.46 3.8 3.8 0 015.23-.91c4.53 3.16-1.32 10.65-4.64 10.62-2.42-.01-2.27-4.05-2-6.25z" transform="translate(-49.85 -101.58)"/><path class="cls-14" d="M291.71 239.25s-2.57 2.48-2.21 4.19 2.69 1.88 2.69 1.88a2.82 2.82 0 01-1.7-2.46 7.09 7.09 0 011.22-3.61z" transform="translate(-49.85 -101.58)"/><path d="M298.7 307.7s3.75 2.31 3.29 8.53c-.56 7.51-5.64 19.55-9.57 24.77a25.44 25.44 0 0013.12 6.84c8.35 1.6 37.41 8.64 33.22-27.55 0 0-22.76-12.29-40.06-12.59z" transform="translate(-49.85 -101.58)" fill="#2b3151"/><path class="cls-9" d="M296.43 239.06a1.36 1.36 0 00.42 1.78c.54.23 1.22-.19 1.52-.94a1.36 1.36 0 00-.42-1.78c-.54-.23-1.22.19-1.52.94zM287.37 235.32a1.36 1.36 0 00.55 1.74c.55.19 1.2-.29 1.45-1.06a1.36 1.36 0 00-.55-1.74c-.55-.19-1.2.28-1.45 1.06z" transform="translate(-49.85 -101.58)"/><path class="cls-3" d="M290 248a4.7 4.7 0 01-.31 3.22c-.81 1.19-2.91 1.46-3.12 0a5.28 5.28 0 011.5-4.15c.93-.75 1.83.14 1.93.93z" transform="translate(-49.85 -101.58)"/><path class="cls-14" d="M296.3 244.1c-.52 1 .11 2.43 1.42 3.16s2.79.48 3.32-.54-.11-2.43-1.42-3.15-2.79-.49-3.32.53zM282.36 237.33c-.53 1 .11 2.43 1.42 3.15s2.79.49 3.31-.53-.11-2.43-1.42-3.15-2.79-.49-3.31.53z" transform="translate(-49.85 -101.58)"/><path class="cls-16" d="M203.29 251s8.26-11.28 6-20.56l20 48-21.75-15.11z" transform="translate(-49.85 -101.58)"/><path class="cls-17" d="M253.07 242.73s8.93 12.58 20.13 78.15l-1.63 1.78-19.93-25.8-7.83-48.33z" transform="translate(-49.85 -101.58)"/><path class="cls-3" d="M204.08 251l3.21-.08s31.57-7.07 42.76-4.55l3-3.65a105.58 105.58 0 00-33 1.56s-3.49-10.23-5.77-14.2l-4.14.36s2.14 9.48-6.06 20.56z" transform="translate(-49.85 -101.58)"/><path class="cls-16" d="M159.91 149.34l-6.48.09 21.05 61.72h6.17l.85-41.24-21.59-20.57z"/><path d="M252.41 245.06s-28.57-3.26-45.12 5.86L228 312.73s30.22 0 44.54 11.62c.03 0-7.8-49.8-20.13-79.29z" transform="translate(-49.85 -101.58)" fill="#3a6793"/><path class="cls-17" d="M211.39 247a58.88 58.88 0 018.7-2.73s-3.49-10.23-5.77-14.2.18 12.93-2.93 16.93z" transform="translate(-49.85 -101.58)"/><path class="cls-19" d="M346.3 301.62a20.52 20.52 0 001.53-5.33 23.3 23.3 0 00.28-2.67 21.47 21.47 0 000-3 25.25 25.25 0 00-.47-3.15c-.13-.52-.27-1.05-.41-1.58s-.34-1-.51-1.56-.41-1-.62-1.52-.41-1-.7-1.46a20.5 20.5 0 00-1.71-2.6 22.65 22.65 0 00-3.91-3.88c-1.28-1-2.42-1.76-3.18-2.35s-1.19-.94-1.19-.94l1.32.72a36.14 36.14 0 013.44 2 18.79 18.79 0 014.23 3.85 15.7 15.7 0 011.76 2.77 27.79 27.79 0 011.32 3.12c.17.54.37 1.08.51 1.62s.26 1.11.38 1.65a25 25 0 01.36 3.27 22.15 22.15 0 01-.07 3.07 18.89 18.89 0 01-.42 2.7 18.38 18.38 0 01-1.94 5.27z" transform="translate(-49.85 -101.58)"/><path class="cls-19" d="M358 273.32a19.66 19.66 0 00-2.76-.73 21.76 21.76 0 00-6.19-.34 14.92 14.92 0 00-1.65.26 10.53 10.53 0 00-1.54.41 8.74 8.74 0 00-1.39.54 7.67 7.67 0 00-1.18.62l-.94.6-.67.55-.57.48-1-1.23.69-.49.8-.55 1.1-.57a7.82 7.82 0 011.34-.56 10.36 10.36 0 011.55-.46 13.09 13.09 0 011.68-.29 16.76 16.76 0 011.75-.12 22.31 22.31 0 016.28.9 19.57 19.57 0 012.7.98z" transform="translate(-49.85 -101.58)"/><path class="cls-13" d="M252.79 280.11a1 1 0 01-.06-.16c-.94-.93-1.72-1.9-1.62-3s2-1.16 2.76-.55c.27.22.73.58 1.24 1a10.82 10.82 0 01-.78-1c-.73-.71-1.09-2.4-.31-2.65 1.89-.61 2.23.95 3.9 1.81a20.49 20.49 0 004.84 1.5c1 .21.74-.75.29-1.12a18.9 18.9 0 01-2.74-2.61c-.88-1-1.33-2.73-.33-3.14s3.43 1.32 5.46 2.66c1.37.91 3.24 2.76 4.58 3.39a22.66 22.66 0 003.2 1.15l2.55 14.24s-8-4.17-12.11-5.27a41.81 41.81 0 01-5.5-.24c-1.79-.3-4.64-2.07-4-3.15-1.15-.93-2-2.11-1.51-2.73a2.09 2.09 0 01.14-.13z" transform="translate(-49.85 -101.58)"/><path class="cls-19" d="M330.14 295.91a5.84 5.84 0 01-.79.46 14.71 14.71 0 01-2.24.88c-.48.15-1 .28-1.56.41a16.89 16.89 0 01-1.78.3 11.27 11.27 0 01-1.94.05c-.66 0-1.32-.1-2-.18a45.45 45.45 0 01-7.07-1.58c-1.89-.58-3.11-1.08-3.11-1.08l3.23.54c1.93.34 4.5.83 7.07 1.17.64.08 1.28.16 1.91.2a14 14 0 001.83 0 28.46 28.46 0 003.28-.41 17.38 17.38 0 003.17-.76zM331.65 302.17a18.06 18.06 0 01-6.25 2.51 15.56 15.56 0 01-3.93.14 23.75 23.75 0 01-7.1-1.73 15.72 15.72 0 01-2.95-1.56l.84.34c.54.22 1.32.49 2.25.78a34.93 34.93 0 007 1.37 18.31 18.31 0 003.78 0 19 19 0 003.24-.71 27.2 27.2 0 003.12-1.14zM331.65 308.33a10.42 10.42 0 01-2.51 1.2 13.25 13.25 0 01-6.05.57 35.54 35.54 0 01-5.94-1.39c-1.59-.5-2.61-.92-2.61-.92s1.06.3 2.67.7a50.22 50.22 0 005.92 1.21 14.45 14.45 0 005.95-.38 11.66 11.66 0 002.57-.99z" transform="translate(-49.85 -101.58)"/><path class="cls-5" d="M238.26 276.1c1.06-1.47 3.57-4.19 0-5.05a6.21 6.21 0 00-3.6.31c1.08-1.32 1.79-2.65 1.2-3.39-.91-1.14-4.12-.59-6.82 1-1.77 1-9.92 5.79-12.93 5.6a14.79 14.79 0 01-5.3-1.35l-2.74-8c-2.24 1.78-.56 6.9-.56 6.9s-1.06-1.1-7.2-4-1.93 3.82-1.93 3.82l13.48 10h.5l.43 2.13h-.32l.13.67-8.36.26s2.57 5.81 2.94 6.27a11.89 11.89 0 008 4.2c1.52.14 11.16-1.79 12.82-2.79s8.23-7.28 8.1-8.23a1.52 1.52 0 00-1.61-1.36 17 17 0 001.8-1.84c.82-1.12 2.55-3 1.12-4.08a9.43 9.43 0 00.85-1.07z" transform="translate(-49.85 -101.58)"/><path class="cls-19" d="M208.07 265.16l-.47 1.07c-.3.67-.69 1.66-1.11 2.85a12.68 12.68 0 00-.55 1.94 21.36 21.36 0 00-.24 2.24c0 .79-.11 1.63-.22 2.47s-.33 1.73-.47 2.52a16.83 16.83 0 00-.36 4.86 16.07 16.07 0 00.87 4.17 26.66 26.66 0 001.14 2.83c.32.67.52 1 .52 1a17.93 17.93 0 01-2.09-3.69 14.75 14.75 0 01-1.14-4.28 18 18 0 01.26-5.1c.18-.87.42-1.64.52-2.46s.2-1.62.27-2.42a12.51 12.51 0 011.06-4.3 27 27 0 011.4-2.75c.37-.6.61-.95.61-.95zM234.29 271.92s-.83 1-2.2 2.27a31.59 31.59 0 01-5.43 4.34 8.18 8.18 0 01-1.79.72c-.6.18-1.19.3-1.76.43-1.15.25-2.22.4-3.14.54-1.85.26-3.09.32-3.09.32l3-.78L223 279l1.69-.49a6.92 6.92 0 001.63-.68 30.15 30.15 0 003-2c.93-.7 1.81-1.35 2.54-1.93 1.44-1.21 2.43-1.98 2.43-1.98zM237.39 277.05s-1 1-2.52 2.47a43.14 43.14 0 01-6.08 4.81 8.75 8.75 0 01-1 .52 5.88 5.88 0 01-1 .35c-.69.18-1.35.31-2 .42-1.29.22-2.5.32-3.54.42s-1.91.1-2.51.11a8.2 8.2 0 01-1 0s1.38-.2 3.41-.57c1-.17 2.2-.42 3.46-.68.63-.14 1.28-.29 1.91-.46a4.93 4.93 0 00.92-.33 9.41 9.41 0 00.88-.47c1.16-.71 2.29-1.53 3.34-2.3s2-1.5 2.86-2.15zM234.47 283s-.75.88-2 2.13c-.61.61-1.31 1.34-2.1 2.08-.4.37-.8.76-1.24 1.13a15.73 15.73 0 01-1.39 1.13 9.38 9.38 0 01-1.64.66c-.55.18-1.09.31-1.61.44-1 .26-2 .41-2.88.54a14.7 14.7 0 01-2.07.14 3.55 3.55 0 01-.78-.07 6.84 6.84 0 00.77-.09c.49-.07 1.17-.25 2-.45s1.77-.48 2.78-.78l1.55-.5a8.23 8.23 0 001.49-.63 15.2 15.2 0 001.28-1l1.27-1.07 2.27-1.88c1.37-1.13 2.3-1.78 2.3-1.78z" transform="translate(-49.85 -101.58)"/><path d="M194.63 389.4s17.21 12.19 28.1 20.16l8.74-1.93a15.3 15.3 0 010 8.65c0 .76-88.82 20.12-90.6 20s-33-27.3-33-27.91 86.76-18.97 86.76-18.97z" transform="translate(-49.85 -101.58)" fill="#70758e"/><path class="cls-3" d="M139.89 425.64s.32 8.21 0 8.21S113 411.64 110.16 409c0 0-.14-5.52 0-7.74" transform="translate(-49.85 -101.58)"/><path d="M194.63 380.76s36.84 26.1 36.84 26.87-88.82 20.13-90.6 20-33-27.31-33-27.91 86.76-18.96 86.76-18.96z" transform="translate(-49.85 -101.58)" fill="#7a7e9b"/><path d="M111.35 364.41a11.4 11.4 0 1011.39-11.81 11.61 11.61 0 00-11.39 11.81z" transform="translate(-49.85 -101.58)" fill="#e2b760"/><path d="M120.62 361.51a5.53 5.53 0 105.53-5.73 5.64 5.64 0 00-5.53 5.73z" transform="translate(-49.85 -101.58)" fill="#efc478"/><ellipse cx="55.77" cy="269.79" rx="16.16" ry="16.76" fill="#c7e3ff"/><path d="M102.61 367.27a7.86 7.86 0 107.85-8.14 8 8 0 00-7.85 8.14z" transform="translate(-49.85 -101.58)" fill="#def0ff"/></svg>