<svg id="Capa_1" enable-background="new 0 0 512 512" height="512" viewBox="0 0 512 512" width="512" xmlns="http://www.w3.org/2000/svg"><g><path d="m442.373 54.093h31.062v31.062h-31.062z" fill="#fe646f"/><path d="m395.941 23.031h46.432v31.062h-46.432z" fill="#fe646f"/><path d="m380.453 364.696h124.044v139.802h-124.044z" fill="#aee69c"/><path d="m380.449 364.697h20v139.803h-20z" fill="#89daa4"/><path d="m255.999 395.758h124.454v108.74h-124.454z" fill="#8ac9fe"/><path d="m255.999 395.757h20v108.743h-20z" fill="#60b7ff"/><path d="m131.75 426.82h124.249v77.677h-124.249z" fill="#ffe177"/><path d="m131.749 426.817h20v77.683h-20z" fill="#ffd15b"/><path d="m7.501 458.087h124.249v46.41h-124.249z" fill="#fe646f"/><path d="m7.499 458.087h20v46.413h-20z" fill="#fd4755"/><path d="m402.486 272.9-53.3-32.454h-31.062-31.062v155.311h31.062v-128.231l62.005 29.412v67.758h31.301v-77.656c-.001-6.045-3.482-11.549-8.944-14.14z" fill="#68748f"/><path d="m287.059 240.447h15v155.31h-15z" fill="#5d6980"/><path d="m395.129 296.937v67.76h-15v-67.76l-47.01-22.3v-7.11z" fill="#5d6980"/><path d="m185.05 335.025-53.3-32.454h-31.062-31.063v155.311h31.062v-128.232l62.005 29.412v67.758h31.301v-77.656c0-6.044-3.481-11.549-8.943-14.139z" fill="#68748f"/><path d="m69.629 302.567h15v155.32h-15z" fill="#5d6980"/><path d="m177.689 359.067v67.75h-15v-67.75l-47-22.3v-7.12z" fill="#5d6980"/><path d="m318.124 131.729c-12.866 0-23.297-10.43-23.297-23.297v-15.531c0-12.866 10.43-23.297 23.297-23.297 12.866 0 23.297 10.43 23.297 23.297v15.531c-.001 12.867-10.431 23.297-23.297 23.297z" fill="#ffcebf"/><path d="m328.119 129.477c-3.03 1.44-6.42 2.25-10 2.25-12.86 0-23.29-10.43-23.29-23.29v-15.54c0-12.86 10.43-23.29 23.29-23.29 3.58 0 6.97.81 10 2.25-7.86 3.74-13.29 11.76-13.29 21.04v15.54c0 9.28 5.43 17.3 13.29 21.04z" fill="#ffb09e"/><path d="m100.688 193.853c-12.866 0-23.297-10.43-23.297-23.297v-15.531c0-12.866 10.43-23.297 23.297-23.297 12.866 0 23.297 10.43 23.297 23.297v15.531c-.001 12.867-10.431 23.297-23.297 23.297z" fill="#ffcebf"/><path d="m110.689 191.607c-3.03 1.44-6.42 2.25-10 2.25-12.87 0-23.3-10.43-23.3-23.3v-15.53c0-12.87 10.43-23.3 23.3-23.3 3.58 0 6.97.81 10 2.25-7.87 3.74-13.3 11.76-13.3 21.05v15.53c0 9.29 5.43 17.31 13.3 21.05z" fill="#ffb09e"/><path d="m207.019 177.547v35l-21.68 10.84c-2.17 1.08-4.57 1.65-7 1.65h-46.59v77.53h-62.12v31.08l-10.09-.01c-11.59-.01-20.98-9.41-20.98-21v-88.2c0-16.89 13.7-30.58 30.59-30.58l105.5-.12z" fill="#aee69c"/><path d="m207.019 177.547v7.5l-17.37 8.69-105.5.12c-16.89 0-30.59 13.69-30.59 30.58v88.2c0 9.9 6.85 18.2 16.07 20.41v.6l-10.09-.01c-11.59-.01-20.98-9.41-20.98-21v-88.2c0-16.89 13.7-30.58 30.59-30.58l105.5-.12z" fill="#89daa4"/><path d="m411.429 100.647v41.14c0 11.6-9.4 21-21 21h-41.24v77.66h-62.13v-77.54h-9.05l-26.47 26.48c-1.19 1.19-2.57 2.18-4.07 2.93l-40.45 20.23v-35l24.18-12.09 29.26-29.26c2.94-2.94 6.92-4.59 11.07-4.59l108.92.12v-31.08c0-8.56 6.94-15.49 15.49-15.49 8.56 0 15.49 6.93 15.49 15.49z" fill="#8ac9fe"/><g fill="#60b7ff"><path d="m271.529 131.607 14.23.02c-3.87.19-7.54 1.81-10.3 4.57l-29.26 29.26-24.18 12.09v27.5l-15 7.5v-35l24.18-12.09 29.26-29.26c2.94-2.94 6.92-4.59 11.07-4.59z"/><path d="m293.009 162.907h9.05v77.54h-15v-71.59z"/><path d="m403.439 87.097c-4.76 2.64-7.99 7.71-7.99 13.55v31.08l-15-.02v-31.06c0-8.56 6.94-15.49 15.49-15.49 2.72 0 5.28.7 7.5 1.94z"/><path d="m286.529 131.607 93.92.1v.02l-94.53-.1c.2-.02.41-.02.61-.02z"/></g><path d="m504.499 357.197h-30.25c-4.142 0-7.5 3.357-7.5 7.5s3.358 7.5 7.5 7.5h22.75v124.803h-109.046l-.003-124.803h53.61c4.142 0 7.5-3.357 7.5-7.5s-3.358-7.5-7.5-7.5h-22.63v-70.157c0-8.751-5.027-16.84-12.843-20.729l-49.397-30.077v-18.218c0-4.143-3.358-7.5-7.5-7.5s-7.5 3.357-7.5 7.5v14.931h-47.13v-70.04c0-4.143-3.358-7.5-7.5-7.5h-9.05c-1.99 0-3.897.791-5.304 2.197l-26.47 26.48c-.615.615-1.329 1.128-2.12 1.523l-29.596 14.801v-18.225l20.035-10.019c.721-.36 1.379-.835 1.949-1.404l29.26-29.261c1.543-1.543 3.591-2.394 5.758-2.394l108.92.12c4.576-.425 7.078-2.925 7.508-7.5v-31.08c0-4.405 3.584-7.989 7.99-7.989s7.99 3.584 7.99 7.989v41.141c-.398 7.749-4.898 12.249-13.5 13.5h-41.24c-4.142 0-7.5 3.357-7.5 7.5v22.55c0 4.143 3.358 7.5 7.5 7.5s7.5-3.357 7.5-7.5v-15.05h33.74c14.997 0 28.5-13.427 28.5-28.5v-41.141c0-10.05-6.485-18.608-15.488-21.726v-17.325h31.432v23.562c0 4.143 3.358 7.5 7.5 7.5h31.062c4.142 0 7.5-3.357 7.5-7.5v-31.062c0-4.143-3.358-7.5-7.5-7.5h-23.562v-23.563c0-4.143-3.358-7.5-7.5-7.5h-38.932v-8.031c0-4.143-3.358-7.5-7.5-7.5s-7.5 3.357-7.5 7.5v71.419c-9.005 3.116-15.492 11.676-15.492 21.727v23.572l-28.378-.031c2.758-4.613 4.349-10.001 4.349-15.755v-15.531c0-16.981-13.815-30.797-30.797-30.797s-30.797 13.815-30.797 30.797v15.531c0 5.73 1.578 11.096 4.315 15.696l-20.113-.022c-6.182 0-11.997 2.411-16.373 6.787l-28.399 28.399-53.882 26.945-45.726.052c2.75-4.608 4.336-9.988 4.336-15.734v-15.531c0-16.981-13.815-30.797-30.797-30.797-16.981 0-30.796 13.815-30.796 30.797v15.531c0 5.77 1.598 11.173 4.371 15.794l-5.113.006c-21.003 0-38.09 17.083-38.09 38.08v88.2c0 17.978 14.667 28.023 31.066 28.502v109.448h-54.625c-4.142 0-7.5 3.357-7.5 7.5v46.411c0 4.143 3.358 7.5 7.5 7.5l496.998.004c4.142 0 7.5-3.357 7.5-7.5v-139.803c0-4.142-3.358-7.5-7.5-7.5zm-38.564-279.542h-16.062v-16.061h16.062zm-31.062-47.124v16.063h-31.432v-16.063zm-132.546 77.902v-15.532c0-8.71 7.086-15.797 15.797-15.797s15.797 7.087 15.797 15.797v15.531c-.001 19.949-31.594 20.677-31.594.001zm70.622 279.825h-47.326v-108.874l47.005 22.298zm-25.867-140.311s51.955 31.618 52.189 31.729c2.83 1.342 4.658 4.232 4.658 7.363v70.156h-16.301v-60.258c0-2.896-1.668-5.535-4.286-6.776l-62.005-29.413c-6.339-2.782-10.756-.032-10.714 6.776v120.732h-16.062v-140.309zm-262.191-77.39v-15.531c0-8.71 7.086-15.797 15.797-15.797 8.71 0 15.796 7.087 15.796 15.797v15.531c0 19.878-31.593 20.736-31.593 0zm-38.832 142.08v-88.2c0-12.727 10.358-23.08 23.099-23.08l105.5-.12c1.161-.001 2.307-.272 3.346-.792l21.516-10.759v18.225l-17.522 8.763c-1.137.565-2.401.864-3.658.864h-46.59c-4.142 0-7.5 3.357-7.5 7.5v21.81c0 4.143 3.358 7.5 7.5 7.5s7.5-3.357 7.5-7.5v-14.31h39.09c3.564 0 7.14-.843 10.354-2.442l62.131-31.07c2.237-1.118 4.262-2.577 6.02-4.335l22.716-22.725.002 216.293h-23.563c-4.142 0-7.5 3.357-7.5 7.5v23.563h-47.006v-70.155c0-8.752-5.027-16.841-12.844-20.729l-49.4-30.08v-18.83c0-4.143-3.358-7.5-7.5-7.5s-7.5 3.357-7.5 7.5v15.54h-47.125v-54.91c0-4.143-3.358-7.5-7.5-7.5s-7.5 3.357-7.5 7.5v85.983c-9.376-.049-16.099-2.924-16.066-13.504zm119.848 39.649-62.005-29.412c-6.278-2.532-10.653.468-10.714 6.776v120.732h-16.063l.003-140.312h52.518s51.955 31.619 52.19 31.73c2.829 1.342 4.657 4.231 4.657 7.363v70.155h-16.301v-60.258c0-2.894-1.668-5.533-4.285-6.774zm-57.719-10.777 47.005 22.297v55.515h-23.443c-4.142 0-7.5 3.357-7.5 7.5v23.767h-16.063v-109.079zm-93.187 124.078h109.249v31.411h-109.249zm124.249-31.267h109.249v62.678h-109.249zm124.249-31.062h109.45v93.74h-109.45z"/></g></svg>