<svg height="512" viewBox="0 0 480.001 480.001" width="512" xmlns="http://www.w3.org/2000/svg"><path d="M394 424.52V464c0 4.42-3.58 8-8 8H94c-4.42 0-8-3.58-8-8v-39.48c0-41.24 33.74-73.95 74.98-74.35 13.637-.145 25.994-6.858 33.57-17.67 8.282-11.832 7.45-22.489 7.45-30.5l.15-.37c-35.9-14.86-61.15-50.23-61.15-91.5V207c-8.458 0-15.693-3.936-20.22-10.06 0-.01-.01-.01-.01-.02-2.698-3.409-4.77-8.841-4.77-14.46V85c0-14.91 12.09-27 27-27 12.06-30.132 41.24-50 73.85-50 47.586 0 78.169-.356 80.72.92.6.091 6.115 1.073 6.55 1.29 7.91 1.818 16.66 5.851 17.06 6.25 25.99 13.08 43.82 40 43.82 71.08V181c0 14.36-11.64 26-26 26v3.13c0 41.27-25.25 76.64-61.15 91.5l.15.37c0 7.782-.899 18.573 7.45 30.5a41.413 41.413 0 0033.57 17.67c41.24.4 74.98 33.11 74.98 74.35z" fill="#ffdfba"/><path d="M365 87.54V181c0 14.36-11.64 26-26 26v-55.37c0-4.23-3.29-7.73-7.51-7.98-46.889-2.796-93.839-17.062-136.12-43.78-4.6-2.91-10.65-.51-12.05 4.75-2.09 7.91-6.79 18.04-17.32 24.38-9.685 5.83-17.182 4.678-20 5.84-2.95 1.18-5 4.06-5 7.4V207c-8.458 0-15.693-3.936-20.22-10.06 0-.01-.01-.01-.01-.02-1.793-2.265-3.582-5.989-4.32-9.8-.642-3.27-.45 4.109-.45-102.12 0-14.91 12.09-27 27-27 11.998-29.977 41.092-50 73.85-50 47.586 0 78.169-.356 80.72.92 7.759 1.176 15.407 3.62 21.51 6.52.119.059 2.022.942 2.1 1.02 25.99 13.08 43.82 40 43.82 71.08z" fill="#42434d"/><path d="M394 424.52V464c0 4.42-3.58 8-8 8H94c-4.42 0-8-3.58-8-8v-39.48c0-41.24 33.74-73.95 74.98-74.35 13.637-.145 25.994-6.858 33.57-17.67 34.762 38.63 26.765 29.742 39.5 43.9 3.18 3.53 8.72 3.53 11.9 0 11.419-12.696 2.097-2.336 39.5-43.9a41.413 41.413 0 0033.57 17.67c41.24.4 74.98 33.11 74.98 74.35z" fill="#d6f4fc"/><path d="M303.08 346.83c-.124.264-9.994 45.164-9.931 44.878-1.302 5.907-8.778 7.809-12.745 3.242-26.257-30.236-22.675-26.293-25.334-28.691l30.38-33.76a41.551 41.551 0 0017.63 14.331zM194.55 332.5l29.66 32.96-24.603 29.155c-3.932 4.66-11.5 2.792-12.812-3.163-.063-.285-9.75-44.359-9.875-44.623a41.547 41.547 0 0017.63-14.329z" fill="#e8f8fc"/><path d="M339 210.13c0 54.696-44.348 99-99 99-54.65 0-99-44.302-99-99v-67.886c0-4.254 3.325-7.744 7.572-7.986 16.201-.923 29.841-11.072 34.752-29.641 1.391-5.26 7.446-7.656 12.046-4.75 40.919 25.849 87.541 40.883 136.12 43.782a7.99 7.99 0 017.51 7.983z" fill="#ffebd2"/><path d="M315.89 38h-69.04c-30.55 0-58.23 17.48-71.48 44.66-1.51 3.1-4.43 5.2-7.81 5.89C155.26 91.07 146 101.95 146 115v19.84c-2.95 1.18-5 4.06-5 7.4v47.49c0 11.235-14.644 15.641-20.68 6.58-1.374-1.83-3.132-5.592-3.67-8.28-.903-3.881-.65 3.629-.65-103.03 0-14.91 12.09-27 27-27 12.109-30.253 41.387-50 73.85-50 47.265 0 78.165-.358 80.72.92 9.593 1.454 18.394 4.987 19.68 5.7.314.132 3.781 1.691 3.93 1.84 10.77 5.44 6.8 21.6-5.29 21.54z" fill="#4d4e59"/><path d="M279.13 318.42c-24.637 10.313-51.712 11.113-78.26 0 1.356-5.626 1.13-9.27 1.13-16.42l.15-.37c24.082 9.996 51.571 10.016 75.7 0l.15.37c0 7.153-.225 10.796 1.13 16.42z" fill="#ffd6a6"/><path d="M182.12 370.25c-39.58 1.8-71.12 34.47-71.12 74.49V472H94a8 8 0 01-8-8v-39.418c0-41.254 33.753-73.989 75.006-74.414a41.426 41.426 0 0015.914-3.338c.125.264 5.138 23.135 5.2 23.42z" fill="#e8f8fc"/><path d="M297.88 370.25c39.58 1.8 71.12 34.47 71.12 74.49V472h17a8 8 0 008-8v-39.418c0-41.254-33.753-73.989-75.006-74.414a41.426 41.426 0 01-15.914-3.338c-.124.264-5.137 23.135-5.2 23.42z" fill="#bdeffc"/><path d="M195.18 374.5c1.49 6.77 3.08 13.98 4.43 20.11-3.932 4.661-11.5 2.799-12.812-3.157-3.845-17.462-9.794-44.445-9.878-44.623a41.556 41.556 0 0017.63-14.33l8.54 9.5c-7.34 9.14-10.45 20.99-7.91 32.5z" fill="#f1fafc"/><path d="M218.164 121.882c-1.758 14.173-7.974 26.888-18.342 34.593C181.362 170.197 171 192.272 171 215.273v24.857c0 14.828-18.874 17.518-23.567 5.176-4.156-10.931-6.433-22.788-6.433-35.176v-67.886c0-4.254 3.325-7.744 7.572-7.986 16.246-.926 29.854-11.114 34.753-29.643 1.39-5.256 7.436-7.657 12.033-4.754a284.036 284.036 0 0016.499 9.662c4.458 2.415 6.931 7.328 6.307 12.359z" fill="#fff3e4"/><path d="M255.07 366.26L270 472h-60l14.21-106.54 9.844 10.935c3.178 3.53 8.713 3.53 11.891 0z" fill="#fe4f60"/><path d="M234.66 377.07L222 472h-12l14.21-106.54z" fill="#e84857"/><path d="M319.427 342.172c-11.782 0-22.472-6-28.594-16.051a8 8 0 10-13.664 8.323c4.258 6.99 10.022 12.634 16.732 16.673l-8.291 37.627-19.989-23.017c3.629-4.172 2.753-9.046-.373-11.764a8 8 0 00-11.286.787l-14.066 16.176-35.432-39.369a48.862 48.862 0 005.365-18.77C278.403 332.973 347 281.218 347 210.125V144a8 8 0 00-16 0v66.125c0 50.177-40.822 91-91 91s-91-40.822-91-91v-67.893c19.503-1.107 36.092-13.352 42.004-35.544 33.31 21.332 70.648 35.153 109.832 40.638a8.001 8.001 0 002.219-15.846c-39.9-5.585-78.836-20.518-113.433-45.01-5.289-3.746-12.654.065-12.622 6.581.001.199-.074 20.04-15.124 29.094-9.517 5.726-19.143 3.877-20.799 3.859a8.006 8.006 0 00-8.02 7.076c-.088.774-.057-1.861-.057 64.016-5.344-2.772-9-8.288-9-14.636V85c0-10.477 8.523-19 19-19a8.001 8.001 0 007.428-5.029C161.356 33.652 187.428 16 216.852 16h68.607C324.908 16 357 48.093 357 87.541v94.919a8 8 0 0016 0V87.541C373 39.271 333.73 0 285.459 0h-68.607c-34.32 0-64.917 19.63-79.285 50.421C120.839 53.04 108 67.549 108 85v97.46c0 15.305 10.708 28.168 25.081 31.621 1.493 40.859 26 75.943 60.919 92.639v2.11c0 8.913-3.476 17.287-9.787 23.581-11.193 11.161-25.298 9.761-23.642 9.761-45.636 0-82.571 36.93-82.571 82.571V472a8 8 0 0016 0v-47.257c0-36.795 29.775-66.572 66.573-66.571a49.93 49.93 0 0010.452-1.111l11.163 50.66c1.413 6.415 9.551 8.476 13.853 3.524l15.761-18.148-9.739 77.911a8 8 0 0015.877 1.984l11.255-90.041c.509.565 4.956 5.552 5.526 6.055a7.998 7.998 0 0011.268-.707c1.582-1.811-2.51 2.892 4.798-5.512l11.275 90.204a7.999 7.999 0 008.931 6.946 8 8 0 006.946-8.93l-9.739-77.911 15.761 18.148c4.308 4.961 12.442 2.88 13.853-3.524l11.163-50.662a50.237 50.237 0 0010.451 1.112c36.794.001 66.572 29.775 66.572 66.573V472a8 8 0 0016 0v-47.257c0-45.637-36.931-82.573-82.573-82.571zM194.39 388.744l-8.293-37.638a49.673 49.673 0 008.548-6.543l19.396 21.552z"/></svg>