<svg xmlns="http://www.w3.org/2000/svg" viewBox="0 0 512 512"><g fill="#fe90c5"><path d="M477.299 64.002c-7.068 0-13.441 3.045-17.944 7.926-4.502-4.88-10.876-7.926-17.944-7.926-13.642 0-24.701 11.343-24.701 25.336 0 19.6 42.645 52.204 42.645 52.204S502 108.938 502 89.338c0-13.993-11.059-25.336-24.701-25.336zM70.589 10.002c-7.068 0-13.441 3.045-17.944 7.926-4.502-4.88-10.876-7.926-17.944-7.926C21.059 10.002 10 21.345 10 35.338c0 19.6 42.645 52.204 42.645 52.204S95.29 54.938 95.29 35.338c0-13.993-11.059-25.336-24.701-25.336z"/></g><path d="M389.373 501.075L502 388.449l-53.711-53.711.063-44.582a143.09 143.09 0 00-24.246-79.894l-44.015-65.638c-9.341-13.93-28.334-17.437-42.039-7.73-12.887 9.127-16.066 26.96-7.879 40.465l16.823 27.751c2.635 4.346-3.124 8.863-6.717 5.269L216.452 86.551c-11.434-11.434-30.159-12.005-41.667-.645-11.051 10.908-11.533 28.399-1.506 39.919l-18.06-18.06c-11.272-11.272-29.466-11.402-40.898-.391-11.788 11.355-11.43 30.654.143 42.228l17.518 17.518c-11.519-10.027-29.011-9.545-39.919 1.506-11.36 11.509-10.789 30.233.645 41.667l19.625 19.625c-11.471-9.985-28.865-9.549-39.782 1.368-11.404 11.403-11.404 29.892 0 41.296l94.856 94.856 38.058 38.058a143.08 143.08 0 00101.38 41.908l28.814-.041 53.714 53.712z" fill="#ffd4ac"/><path d="M90.969 501.994l43.967-43.967 32.051.046c20.453.029 40.45-6.04 57.437-17.43L271.613 409c9.982-6.694 12.519-20.281 5.626-30.126-6.482-9.257-19.034-11.899-28.697-6.041l-20.397 12.365c-3.127 1.895-6.376-2.247-3.791-4.832l67.516-67.516c8.198-8.198 8.198-21.49 0-29.688s-21.49-8.198-29.688 0l-47.167 47.167 14.757-14.652 47.167-47.167c8.198-8.198 8.198-21.49 0-29.688s-21.49-8.198-29.688 0l-47.167 47.167-14.652 14.757 47.167-47.167c8.198-8.198 8.198-21.49 0-29.688s-21.49-8.198-29.688 0l-47.167 47.167.052.052 12.349-12.349c8.198-8.198 8.198-21.49 0-29.688s-21.49-8.198-29.688 0l-27.031 27.025 22.266-22.266-49.627 49.627a102.868 102.868 0 00-30.129 72.884l.03 20.715L10 421.025l80.969 80.969z" fill="#ffcc9c"/><path d="M342.733 440.293a10.003 10.003 0 00-7.071-2.929h-.014l-28.815.041h-.189c-15.906 0-31.84-2.925-46.753-8.506l17.291-11.595c7.078-4.746 11.837-11.973 13.402-20.35 1.564-8.378-.266-16.836-5.154-23.818-6.078-8.68-15.866-13.392-25.832-13.392-.162 0-.324.001-.487.004l39.829-39.829c12.083-12.084 12.083-31.746 0-43.83a30.939 30.939 0 00-10.099-6.753c2.766-4.702 4.245-10.073 4.245-15.672 0-8.278-3.224-16.062-9.077-21.916-5.854-5.854-13.637-9.078-21.916-9.078-5.599 0-10.969 1.48-15.672 4.246a30.954 30.954 0 00-6.753-10.1c-5.854-5.854-13.637-9.078-21.916-9.078s-16.062 3.224-21.916 9.078l-14.301 14.301a31.013 31.013 0 00-6.322-9.12c-5.854-5.854-13.637-9.077-21.916-9.077s-16.062 3.224-21.916 9.077l-6.339 6.339-25.771-25.626c-7.486-7.486-7.486-19.667 0-27.153 7.013-7.013 18.145-7.455 25.678-1.33l24.958 24.959c1.953 1.953 4.512 2.929 7.071 2.929s5.119-.977 7.071-2.929c3.905-3.905 3.905-10.237 0-14.142l-43.056-43.056c-7.486-7.487-7.486-19.668 0-27.154 7.486-7.487 19.668-7.486 27.154 0l75.437 75.582c1.953 1.953 4.512 2.929 7.071 2.929s5.119-.977 7.071-2.929c3.905-3.905 3.905-10.237 0-14.142l-57.339-57.485c-6.125-7.534-5.682-18.665 1.33-25.677 7.487-7.486 19.669-7.486 27.154 0l21.008 21.009c3.906 3.906 10.238 3.906 14.142 0 3.905-3.905 3.906-10.237 0-14.142L223.013 78.97c-15.285-15.284-40.154-15.283-55.438 0a38.948 38.948 0 00-10.134 17.604c-6.621-4.778-14.545-7.363-22.871-7.363-10.471 0-20.315 4.078-27.719 11.481-13.758 13.758-15.124 35.279-4.114 50.589a38.945 38.945 0 00-17.608 10.135c-14.424 14.425-15.228 37.382-2.427 52.767a38.94 38.94 0 00-17.221 10.031c-15.283 15.284-15.283 40.153 0 55.438l4.463 4.463c-16.875 20.262-26.046 45.543-26.008 72.24l.024 16.564-41.031 41.034c-3.905 3.905-3.905 10.237 0 14.143 1.953 1.952 4.512 2.929 7.071 2.929s5.119-.977 7.071-2.929l43.966-43.967a10 10 0 002.929-7.086l-.03-20.715c-.036-24.854 9.625-48.223 27.2-65.798l49.626-49.627.001-.001 4.76-4.76c2.076-2.077 4.836-3.22 7.773-3.22s5.697 1.143 7.773 3.22a10.916 10.916 0 013.22 7.773 10.9 10.9 0 01-2.402 6.85l-13.219 13.219c-3.905 3.905-3.905 10.237 0 14.143.009.009.019.016.027.025l.025.027c1.953 1.952 4.512 2.929 7.071 2.929s5.119-.977 7.071-2.929l47.114-47.219c2.076-2.077 4.836-3.22 7.773-3.22s5.697 1.144 7.773 3.22c3.99 3.99 4.261 10.308.821 14.62l-47.988 48.093c-3.905 3.905-3.905 10.237 0 14.143 1.953 1.952 4.512 2.929 7.071 2.929s5.119-.977 7.071-2.929l61.819-61.924c2.076-2.077 4.836-3.22 7.773-3.22s5.697 1.144 7.773 3.22c4.286 4.286 4.286 11.26 0 15.546l-61.923 61.818c-3.905 3.905-3.906 10.237 0 14.143 3.906 3.904 10.238 3.905 14.142 0l48.094-47.988c4.311-3.441 10.629-3.17 14.619.822 4.286 4.285 4.286 11.26 0 15.545l-67.515 67.517c-4.756 4.755-5.196 12.047-1.045 17.339 4.15 5.292 11.338 6.603 17.09 3.116l20.397-12.365c5.142-3.119 11.872-1.702 15.321 3.225a11.368 11.368 0 011.877 8.675 11.37 11.37 0 01-4.88 7.41l-47.189 31.644c-15.355 10.297-33.236 15.736-51.722 15.736h-.131l-32.051-.046h-.014a10.001 10.001 0 00-7.071 2.929l-43.967 43.967c-3.905 3.905-3.905 10.237 0 14.143 1.953 1.952 4.512 2.929 7.071 2.929s5.119-.977 7.071-2.929l41.032-41.032 27.901.04h.158c22.465 0 44.201-6.612 62.861-19.125l10.105-6.776c20.649 9.964 43.623 15.233 66.546 15.233h.218l24.664-.035 50.776 50.776c1.953 1.952 4.512 2.929 7.071 2.929s5.119-.977 7.071-2.929c3.905-3.905 3.905-10.237 0-14.143l-53.706-53.713zM79.624 238.358c7.013-7.013 18.145-7.455 25.678-1.33l5.526 5.526-6.473 6.473-.002.002-20.606 20.606-4.123-4.123c-7.486-7.487-7.486-19.668 0-27.154zM502 378.452c-2.63 0-5.21 1.06-7.07 2.93a10.058 10.058 0 00-2.93 7.07c0 2.63 1.07 5.21 2.93 7.069 1.86 1.86 4.44 2.931 7.07 2.931s5.21-1.07 7.07-2.931a10.091 10.091 0 002.93-7.069c0-2.641-1.07-5.21-2.93-7.07a10.033 10.033 0 00-7.07-2.93zM458.294 330.602l.058-40.432c.043-30.548-8.926-60.105-25.94-85.477l-44.015-65.638c-6.012-8.966-15.167-14.995-25.778-16.977-10.612-1.982-21.325.337-30.167 6.529-14.488 10.145-20.249 28.449-15.126 44.675l-26.135-26.136c-3.905-3.904-10.237-3.904-14.143 0-3.905 3.905-3.905 10.237 0 14.143l56.144 56.144c5.194 5.194 13.161 5.675 18.941 1.14 5.78-4.534 7.212-12.385 3.403-18.668l-17.2-28.372c-5.4-8.908-2.946-20.567 5.587-26.542a19.699 19.699 0 0115.024-3.251 19.694 19.694 0 0112.838 8.455l44.015 65.638c14.791 22.058 22.589 47.753 22.551 74.309l-.063 44.582a10 10 0 002.929 7.086l26.821 26.821c1.953 1.952 4.512 2.929 7.071 2.929s5.119-.977 7.071-2.929c3.905-3.905 3.905-10.237 0-14.143l-23.886-23.886z"/><path d="M260.62 140.712c2.63 0 5.2-1.07 7.06-2.93 1.87-1.86 2.94-4.44 2.94-7.07s-1.07-5.21-2.94-7.07a10.035 10.035 0 00-7.06-2.93 10.1 10.1 0 00-7.08 2.93 10.076 10.076 0 00-2.93 7.07c0 2.64 1.07 5.21 2.93 7.07a10.1 10.1 0 007.08 2.93zM360.485 278.824c3.905-3.905 3.905-10.237 0-14.143-3.905-3.904-10.237-3.904-14.143 0l-4.362 4.362c-18.674 18.675-18.674 49.061 0 67.735a9.972 9.972 0 007.071 2.929 9.97 9.97 0 007.071-2.929c3.905-3.905 3.906-10.237 0-14.143-10.876-10.876-10.876-28.574 0-39.45l4.363-4.361zM477.299 54.002c-6.357 0-12.571 1.804-17.944 5.103-5.373-3.299-11.587-5.103-17.944-5.103-19.134 0-34.701 15.852-34.701 35.335 0 11.042 7.939 24.303 24.271 40.543 10.996 10.934 21.843 19.256 22.3 19.605 1.792 1.371 3.933 2.056 6.074 2.056s4.281-.685 6.074-2.056c.457-.349 11.304-8.672 22.3-19.605C504.061 113.641 512 100.379 512 89.337c0-19.484-15.567-35.335-34.701-35.335zm-17.947 74.746c-16.712-13.88-32.642-31.59-32.642-39.411 0-8.456 6.595-15.335 14.701-15.335 4.032 0 7.794 1.671 10.594 4.707a10.001 10.001 0 0014.7 0c2.8-3.035 6.562-4.707 10.594-4.707 8.106 0 14.701 6.879 14.701 15.335 0 7.801-15.935 25.516-32.648 39.411zM46.571 95.486c1.792 1.371 3.933 2.056 6.074 2.056s4.281-.685 6.074-2.056c.457-.349 11.304-8.672 22.3-19.605 16.332-16.24 24.271-29.501 24.271-40.543C105.29 15.854 89.723.003 70.589.003c-6.357 0-12.571 1.804-17.944 5.103C47.272 1.807 41.058.003 34.701.003 15.567.002 0 15.853 0 35.337 0 46.379 7.939 59.64 24.271 75.88c10.996 10.934 21.844 19.257 22.3 19.606zm-11.87-75.484c4.032 0 7.794 1.671 10.594 4.707a10.001 10.001 0 0014.7 0c2.8-3.035 6.562-4.707 10.594-4.707 8.106 0 14.701 6.879 14.701 15.335 0 7.8-15.935 25.516-32.648 39.411C35.929 60.868 20 43.159 20 35.337c0-8.456 6.595-15.335 14.701-15.335z"/></svg>