<svg id="_x33_0" enable-background="new 0 0 64 64" height="512" viewBox="0 0 64 64" width="512" xmlns="http://www.w3.org/2000/svg"><g><g><g><path d="m37 33h-9-3c-3.31 0-6-2.69-6-6 0-1.66.67-3.16 1.76-4.24 1.08-1.09 2.58-1.76 4.24-1.76h.51c1.6 0 3.12.63 4.25 1.76l.24.24h5.26c.25 0 .5.01.74.04 3.92.37 7 3.68 7 7.7 0 .84-.13 1.66-.4 2.45l-.54 1.63c-.53-.5-1.26-.82-2.06-.82h-1.27c-.35-.6-.99-1-1.73-1z" fill="#b27946"/></g><g><path d="m23 62h-8v-2.94c0-3.16 1.58-6.11 4.21-7.87 1.18-.78 2.52-1.29 3.91-1.49l4.88-.7.05.15c.57 1.7 2.16 2.85 3.95 2.85.9 0 1.74-.29 2.43-.79s1.23-1.21 1.52-2.06l.05-.15 4.88.7c1.39.2 2.73.71 3.91 1.49 1.31.87 2.35 2.04 3.08 3.38.72 1.34 1.12 2.86 1.13 4.43v3h-8z" fill="#4fc1e9"/></g><g><path d="m35.07 45.29.93 3.71-.05.15c-.29.85-.83 1.56-1.52 2.06s-1.53.79-2.43.79c-1.79 0-3.38-1.15-3.95-2.85l-.05-.15.93-3.71c.92.46 1.96.71 3.07.71s2.15-.25 3.07-.71z" fill="#f0d0b4"/></g><g><path d="m38.92 40c.06-.33.08-.66.08-1v-4c0-.36-.1-.71-.27-1h1.27c.8 0 1.53.32 2.06.82.58.55.94 1.32.94 2.18 0 .83-.34 1.58-.88 2.12s-1.29.88-2.12.88h-1.07z" fill="#f0d0b4"/></g><g><path d="m39 35v4c0 .34-.02.67-.08 1-.21 1.54-.92 2.9-1.97 3.95-.55.55-1.18 1-1.88 1.34-.92.46-1.96.71-3.07.71s-2.15-.25-3.07-.71c-2.04-.99-3.53-2.95-3.85-5.29-.06-.33-.08-.66-.08-1v-5-1h3 9c.74 0 1.38.4 1.73 1 .17.29.27.64.27 1z" fill="#f0d0b4"/></g><g><path d="m24 40c-.83 0-1.58-.34-2.12-.88s-.88-1.29-.88-2.12c0-1.66 1.34-3 3-3h1v5c0 .34.02.67.08 1h-.01z" fill="#f0d0b4"/></g><g><path d="m14 36v8h-12v-16h12z" fill="#e6e9ed"/></g><g><path d="m20 7.24v.16c0 1.65-.71 3.23-1.94 4.33l-7.06 6.27-7.06-6.27c-1.23-1.1-1.94-2.68-1.94-4.33v-.16c0-1.43.57-2.81 1.59-3.83.9-.9 2.13-1.41 3.41-1.41s2.51.51 3.41 1.41l.59.59.59-.59c.9-.9 2.13-1.41 3.41-1.41s2.51.51 3.41 1.41c1.02 1.02 1.59 2.4 1.59 3.83z" fill="#ff826e"/></g><g><path d="m56 14c1.08 0 2.09-.28 2.96-.78l-.8 3.98c-.09.46-.5.8-.98.8h-2.36c-.48 0-.89-.34-.98-.8l-.8-3.98c.87.5 1.88.78 2.96.78z" fill="#aab2bd"/></g><g><path d="m56 14c-1.08 0-2.09-.28-2.96-.78-1.81-1.03-3.04-2.99-3.04-5.22 0-.7.12-1.37.34-2 .82-2.33 3.05-4 5.66-4 3.31 0 6 2.69 6 6 0 2.23-1.23 4.19-3.04 5.22-.87.5-1.88.78-2.96.78z" fill="#ffeaa7"/></g><g><circle cx="56" cy="8" fill="#fcd770" r="2"/></g><g><path d="m50.06 37.01c0-.01 0-.01 0-.02 0-.35-.18-.67-.49-.85l-1.57-.91 1.98-3.46 1.55.9c.31.18.68.18.99 0 0 0 0 0 .01-.01.3-.17.49-.5.49-.85v-1.81h3.96v1.81c0 .35.19.68.49.85.01.01.01.01.01.01.31.18.68.18.99 0l1.55-.9 1.98 3.46-1.57.91c-.31.18-.49.5-.49.85v.02c0 .35.18.67.49.85l1.57.91-1.98 3.46-1.55-.9c-.31-.18-.68-.18-.99 0 0 0 0 0-.01.01-.3.17-.49.5-.49.85v1.81h-3.96v-1.81c0-.35-.19-.68-.49-.85-.01-.01-.01-.01-.01-.01-.31-.18-.68-.18-.99 0l-1.55.9-1.98-3.46 1.32-.77.25-.14c.31-.18.49-.5.49-.85zm6.94-.01c0-1.1-.9-2-2-2s-2 .9-2 2 .9 2 2 2 2-.9 2-2z" fill="#fcd770"/></g></g><g><circle cx="29" cy="37" r="1"/><circle cx="35" cy="37" r="1"/><path d="m34 39.764c-.381.762-1.147 1.236-2 1.236s-1.619-.474-2-1.236l-.105-.211-1.789.895.105.21c.722 1.445 2.174 2.342 3.789 2.342s3.067-.897 3.789-2.342l.105-.211-1.789-.895z"/><path d="m55 34c-1.654 0-3 1.346-3 3s1.346 3 3 3 3-1.346 3-3-1.346-3-3-3zm0 4c-.552 0-1-.449-1-1s.448-1 1-1 1 .449 1 1-.448 1-1 1z"/><path d="m63.362 35.595-2.979-5.197-2.399 1.411v-2.809h-5.967l.018 2.81-2.417-1.412-2.979 5.197 2.434 1.395-.018.01h-5.055c0-.901-.31-1.724-.814-2.393l.365-1.098c.298-.892.449-1.822.449-2.765 0-4.224-3.011-7.758-7-8.568v-2.176c0-.551.448-1 1-1h3v-2h-3c-1.654 0-3 1.346-3 3v2h-4v-14c0-.551.448-1 1-1h17.08c-.047.328-.08.66-.08 1 0 2.437 1.254 4.585 3.148 5.839l.71 3.554c.187.931 1.012 1.607 1.961 1.607h2.361c.949 0 1.774-.676 1.961-1.608l.71-3.553c1.895-1.254 3.149-3.402 3.149-5.839 0-3.86-3.141-7-7-7-2.785 0-5.188 1.639-6.315 4h-17.685c-1.654 0-3 1.346-3 3v12.935c-1.05-.606-2.241-.935-3.485-.935h-.515v-8c0-1.654-1.346-3-3-3h-1.199c.127-.52.199-1.056.199-1.601v-.156c0-1.713-.667-3.324-1.879-4.536-1.085-1.085-2.587-1.707-4.121-1.707-1.478 0-2.926.577-4 1.589-1.074-1.012-2.522-1.589-4-1.589-1.534 0-3.036.622-4.121 1.707-1.212 1.211-1.879 2.822-1.879 4.536v.156c0 1.939.831 3.79 2.28 5.077l7.72 6.862 7.72-6.862c.487-.433.898-.933 1.237-1.476h2.043c.552 0 1 .449 1 1v8.295c-2.887.863-5 3.541-5 6.705 0 2.878 1.747 5.354 4.235 6.428-.704.349-1.285.895-1.679 1.572h-5.556v-8h-14v18h14v-8h5c0 2.206 1.794 4 4 4h.263c.519 2.007 1.796 3.707 3.511 4.78l-.582 2.325-4.209.602c-1.538.22-3.033.792-4.324 1.652-2.917 1.944-4.659 5.199-4.659 8.705v3.936h36v-4.007c-.023-3.477-1.766-6.705-4.659-8.634-1.291-.861-2.786-1.432-4.324-1.652l-4.209-.602-.582-2.325c1.715-1.073 2.991-2.773 3.511-4.78h.263c1.474 0 2.75-.81 3.444-2h3.535l2.638 4.602 2.345-1.439.055.036v2.801h5.967l-.005-2.802 2.404 1.404 2.979-5.197-2.418-1.405zm-6.181-18.595h-2.361l-.439-2.197c.52.124 1.061.197 1.619.197s1.099-.073 1.62-.197zm-2.181-9c0-.551.448-1 1-1s1 .449 1 1-.448 1-1 1-1-.449-1-1zm1-5c2.757 0 5 2.243 5 5 0 2.414-1.721 4.434-4 4.899v-2.083c1.161-.414 2-1.514 2-2.816 0-1.654-1.346-3-3-3s-3 1.346-3 3c0 1.302.839 2.402 2 2.816v2.083c-2.279-.465-4-2.484-4-4.899 0-2.757 2.243-5 5-5zm-37 4.399c0 1.368-.586 2.673-1.608 3.582l-6.392 5.681-6.392-5.682c-1.022-.908-1.608-2.213-1.608-3.581v-.156c0-1.179.459-2.288 1.293-3.122.713-.712 1.699-1.121 2.707-1.121s1.994.409 2.707 1.121l1.293 1.293 1.293-1.293c.713-.712 1.699-1.121 2.707-1.121s1.994.409 2.707 1.121c.834.834 1.293 1.942 1.293 3.122zm-6 35.601h-10v-14h10zm7-16c0-2.757 2.243-5 5-5h.515c1.335 0 2.591.52 3.535 1.464l.535.536h5.672c3.718 0 6.743 3.025 6.743 6.744 0 .727-.116 1.444-.347 2.132l-.142.425c-.466-.191-.976-.301-1.511-.301h-.78c-.549-.609-1.337-1-2.22-1h-9c-1.103 0-2-.897-2-2s.897-2 2-2 2 .897 2 2h2c0-2.206-1.794-4-4-4s-4 1.794-4 4c0 .713.203 1.372.531 1.953-2.535-.241-4.531-2.357-4.531-4.953zm2 10c0-1.103.897-2 2-2v4c-1.103 0-2-.897-2-2zm22.231 15.023c2.341 1.56 3.749 4.171 3.769 6.977v2h-6v-4h-2v4h-16v-4h-2v4h-6v-1.936c0-2.836 1.409-5.469 3.769-7.042 1.044-.696 2.254-1.159 3.498-1.337l4.103-.585c.856 1.756 2.636 2.9 4.63 2.9 1.995 0 3.775-1.145 4.63-2.9l4.103.586c1.245.178 2.455.641 3.498 1.337zm-9.276-3.079c-.462 1.232-1.631 2.056-2.955 2.056s-2.492-.823-2.955-2.058l.575-2.304c.752.235 1.552.362 2.38.362s1.628-.127 2.379-.361zm3.045-9.944c0 3.309-2.691 6-6 6s-6-2.691-6-6v-5h11c.552 0 1 .449 1 1zm2 0v-4c1.103 0 2 .897 2 2s-.897 2-2 2zm19.923-.28.715.416-.987 1.723-.676-.395c-.565-.33-1.256-.355-1.883-.052l-.123.062c-.608.355-.985 1.014-.985 1.718v.808h-1.967v-.809c0-.704-.377-1.362-.985-1.718l-.086-.048c-.604-.318-1.332-.305-1.919.038l-.677.395-.987-1.723.715-.416c.607-.354.984-1.011.982-1.724.002-.705-.375-1.362-.982-1.716l-.715-.416.987-1.723.676.395c.613.359 1.38.357 2.005-.009.608-.355.986-1.014.986-1.718v-.808h1.967v.809c0 .705.378 1.363.994 1.723.619.362 1.385.364 1.996.005l.677-.395.987 1.723-.715.416c-.607.354-.984 1.011-.982 1.724-.003.703.374 1.361.982 1.715z"/><path d="m47 17h2v2h-2z"/><path d="m43 17h2v2h-2z"/><path d="m5 31h6v2h-6z"/><path d="m5 35h6v2h-6z"/><path d="m5 39h6v2h-6z"/></g></g></svg>