<svg height="512" viewBox="0 0 64 64" width="512" xmlns="http://www.w3.org/2000/svg"><path d="M37 33H25c-3.31 0-6-2.69-6-6 0-1.66.67-3.16 1.76-4.24A5.944 5.944 0 0125 21h.51c1.6 0 3.12.63 4.25 1.76L30 23h5.26c.25 0 .5.01.74.04 3.92.37 7 3.68 7 7.7 0 .84-.13 1.66-.4 2.45l-.54 1.63c-.53-.5-1.26-.82-2.06-.82h-1.27c-.35-.6-.99-1-1.73-1z" fill="#b27946"/><path d="M23 62h-8v-2.94c0-3.16 1.58-6.11 4.21-7.87a9.578 9.578 0 013.91-1.49L28 49l.05.15C28.62 50.85 30.21 52 32 52c.9 0 1.74-.29 2.43-.79s1.23-1.21 1.52-2.06L36 49l4.88.7c1.39.2 2.73.71 3.91 1.49 1.31.87 2.35 2.04 3.08 3.38A9.493 9.493 0 0149 59v3h-8z" fill="#4fc1e9"/><path d="M35.07 45.29L36 49l-.05.15c-.29.85-.83 1.56-1.52 2.06S32.9 52 32 52c-1.79 0-3.38-1.15-3.95-2.85L28 49l.93-3.71c.92.46 1.96.71 3.07.71s2.15-.25 3.07-.71zM38.92 40c.06-.33.08-.66.08-1v-4c0-.36-.1-.71-.27-1H40c.8 0 1.53.32 2.06.82a2.993 2.993 0 01.06 4.3c-.54.54-1.29.88-2.12.88h-1.07z" fill="#f0d0b4"/><path d="M39 35v4c0 .34-.02.67-.08 1-.21 1.54-.92 2.9-1.97 3.95-.55.55-1.18 1-1.88 1.34-.92.46-1.96.71-3.07.71s-2.15-.25-3.07-.71A6.94 6.94 0 0125.08 40c-.06-.33-.08-.66-.08-1v-6h12c.74 0 1.38.4 1.73 1 .17.29.27.64.27 1z" fill="#f0d0b4"/><path d="M24 40c-.83 0-1.58-.34-2.12-.88S21 37.83 21 37c0-1.66 1.34-3 3-3h1v5c0 .34.02.67.08 1h-.01z" fill="#f0d0b4"/><path d="M14 36v8H2V28h12z" fill="#e6e9ed"/><path d="M20 7.24v.16c0 1.65-.71 3.23-1.94 4.33L11 18l-7.06-6.27A5.822 5.822 0 012 7.4v-.16c0-1.43.57-2.81 1.59-3.83a4.83 4.83 0 016.82 0L11 4l.59-.59a4.83 4.83 0 016.82 0A5.42 5.42 0 0120 7.24z" fill="#ff826e"/><path d="M56 14c1.08 0 2.09-.28 2.96-.78l-.8 3.98c-.09.46-.5.8-.98.8h-2.36c-.48 0-.89-.34-.98-.8l-.8-3.98c.87.5 1.88.78 2.96.78z" fill="#aab2bd"/><path d="M56 14c-1.08 0-2.09-.28-2.96-.78A6.016 6.016 0 0150.34 6c.82-2.33 3.05-4 5.66-4 3.31 0 6 2.69 6 6 0 2.23-1.23 4.19-3.04 5.22-.87.5-1.88.78-2.96.78z" fill="#ffeaa7"/><circle cx="56" cy="8" fill="#fcd770" r="2"/><path d="M50.06 37.01v-.02c0-.35-.18-.67-.49-.85L48 35.23l1.98-3.46 1.55.9c.31.18.68.18.99 0l.01-.01c.3-.17.49-.5.49-.85V30h3.96v1.81c0 .35.19.68.49.85l.01.01c.31.18.68.18.99 0l1.55-.9L62 35.23l-1.57.91c-.31.18-.49.5-.49.85v.02c0 .35.18.67.49.85l1.57.91-1.98 3.46-1.55-.9a.975.975 0 00-.99 0l-.01.01c-.3.17-.49.5-.49.85V44h-3.96v-1.81c0-.35-.19-.68-.49-.85l-.01-.01a.975.975 0 00-.99 0l-1.55.9L48 38.77l1.32-.77.25-.14c.31-.18.49-.5.49-.85zM57 37c0-1.1-.9-2-2-2s-2 .9-2 2 .9 2 2 2 2-.9 2-2z" fill="#fcd770"/><g><circle cx="29" cy="37" r="1"/><circle cx="35" cy="37" r="1"/><path d="M34 39.764c-.381.762-1.147 1.236-2 1.236s-1.619-.474-2-1.236l-.105-.211-1.789.895.105.21C28.933 42.103 30.385 43 32 43s3.067-.897 3.789-2.342l.105-.211-1.789-.895zM55 34c-1.654 0-3 1.346-3 3s1.346 3 3 3 3-1.346 3-3-1.346-3-3-3zm0 4a1.001 1.001 0 010-2 1.001 1.001 0 010 2z"/><path d="M63.362 35.595l-2.979-5.197-2.399 1.411V29h-5.967l.018 2.81-2.417-1.412-2.979 5.197 2.434 1.395-.018.01H44c0-.901-.31-1.724-.814-2.393l.365-1.098A8.708 8.708 0 0044 30.744c0-4.224-3.011-7.758-7-8.568V20c0-.551.448-1 1-1h3v-2h-3c-1.654 0-3 1.346-3 3v2h-4V8c0-.551.448-1 1-1h17.08c-.047.328-.08.66-.08 1a6.998 6.998 0 003.148 5.839l.71 3.554A2.007 2.007 0 0054.819 19h2.361c.949 0 1.774-.676 1.961-1.608l.71-3.553A6.997 6.997 0 0063 8c0-3.86-3.141-7-7-7-2.785 0-5.188 1.639-6.315 4H32c-1.654 0-3 1.346-3 3v12.935A6.947 6.947 0 0025.515 20H25v-8c0-1.654-1.346-3-3-3h-1.199c.127-.52.199-1.056.199-1.601v-.156a6.373 6.373 0 00-1.879-4.536A5.868 5.868 0 0015 1a5.871 5.871 0 00-4 1.589A5.871 5.871 0 007 1a5.868 5.868 0 00-4.121 1.707A6.37 6.37 0 001 7.243v.156c0 1.939.831 3.79 2.28 5.077L11 19.338l7.72-6.862A6.75 6.75 0 0019.957 11H22c.552 0 1 .449 1 1v8.295c-2.887.863-5 3.541-5 6.705a7.008 7.008 0 004.235 6.428A3.992 3.992 0 0020.556 35H15v-8H1v18h14v-8h5c0 2.206 1.794 4 4 4h.263a8.014 8.014 0 003.511 4.78l-.582 2.325-4.209.602a10.54 10.54 0 00-4.324 1.652A10.44 10.44 0 0014 59.064V63h36v-4.007a10.45 10.45 0 00-4.659-8.634 10.526 10.526 0 00-4.324-1.652l-4.209-.602-.582-2.325A8.018 8.018 0 0039.737 41H40c1.474 0 2.75-.81 3.444-2h3.535l2.638 4.602 2.345-1.439.055.036V45h5.967l-.005-2.802 2.404 1.404 2.979-5.197L60.944 37zM57.181 17H54.82l-.439-2.197c.52.124 1.061.197 1.619.197s1.099-.073 1.62-.197zM55 8a1.001 1.001 0 111 1c-.552 0-1-.449-1-1zm1-5c2.757 0 5 2.243 5 5a5.01 5.01 0 01-4 4.899v-2.083A2.996 2.996 0 0059 8c0-1.654-1.346-3-3-3s-3 1.346-3 3c0 1.302.839 2.402 2 2.816v2.083A5.009 5.009 0 0151 8c0-2.757 2.243-5 5-5zM19 7.399a4.797 4.797 0 01-1.608 3.582L11 16.662 4.608 10.98A4.793 4.793 0 013 7.399v-.156c0-1.179.459-2.288 1.293-3.122C5.006 3.409 5.992 3 7 3s1.994.409 2.707 1.121L11 5.414l1.293-1.293C13.006 3.409 13.992 3 15 3s1.994.409 2.707 1.121A4.385 4.385 0 0119 7.243zM13 43H3V29h10zm7-16c0-2.757 2.243-5 5-5h.515c1.335 0 2.591.52 3.535 1.464l.535.536h5.672A6.751 6.751 0 0142 30.744c0 .727-.116 1.444-.347 2.132l-.142.425A3.977 3.977 0 0040 33h-.78A2.983 2.983 0 0037 32h-9c-1.103 0-2-.897-2-2s.897-2 2-2 2 .897 2 2h2c0-2.206-1.794-4-4-4s-4 1.794-4 4c0 .713.203 1.372.531 1.953C21.996 31.712 20 29.596 20 27zm2 10c0-1.103.897-2 2-2v4c-1.103 0-2-.897-2-2zm22.231 15.023A8.451 8.451 0 0148 59v2h-6v-4h-2v4H24v-4h-2v4h-6v-1.936a8.446 8.446 0 013.769-7.042 8.523 8.523 0 013.498-1.337l4.103-.585a5.147 5.147 0 009.26 0l4.103.586a8.512 8.512 0 013.498 1.337zm-9.276-3.079C34.493 50.176 33.324 51 32 51s-2.492-.823-2.955-2.058l.575-2.304a7.99 7.99 0 004.759.001zM38 39c0 3.309-2.691 6-6 6s-6-2.691-6-6v-5h11c.552 0 1 .449 1 1zm2 0v-4c1.103 0 2 .897 2 2s-.897 2-2 2zm19.923-.28l.715.416-.987 1.723-.676-.395c-.565-.33-1.256-.355-1.883-.052l-.123.062a1.996 1.996 0 00-.985 1.718V43h-1.967v-.809c0-.704-.377-1.362-.985-1.718l-.086-.048a1.981 1.981 0 00-1.919.038l-.677.395-.987-1.723.715-.416a1.989 1.989 0 00.982-1.724 1.986 1.986 0 00-.982-1.716l-.715-.416.987-1.723.676.395a1.997 1.997 0 002.991-1.727V31h1.967v.809a2 2 0 00.994 1.723 1.977 1.977 0 001.996.005l.677-.395.987 1.723-.715.416a1.989 1.989 0 00-.982 1.724 1.982 1.982 0 00.982 1.715z"/><path d="M47 17h2v2h-2zM43 17h2v2h-2zM5 31h6v2H5zM5 35h6v2H5zM5 39h6v2H5z"/></g></svg>