<svg height="512pt" viewBox="0 0 512.001 512" width="512pt" xmlns="http://www.w3.org/2000/svg"><path d="M397.598 397.535c-78.235 78.227-205.082 78.227-283.32 0-78.239-78.23-78.239-205.066 0-283.297 78.238-78.23 205.085-78.23 283.32 0 78.238 78.23 78.238 205.067 0 283.297zm0 0" fill="#fecbaa"/><path d="M397.598 114.238a200.51 200.51 0 00-42.016-32.175c49.645 77.523 40.594 181.757-27.18 249.523-65.398 65.394-164.757 76.11-241.304 32.176a201.238 201.238 0 0027.18 33.773c78.238 78.227 205.085 78.227 283.32 0 78.238-78.23 78.238-205.066 0-283.297zm0 0" fill="#ffae85"/><path d="M487.527 120.832l-50.117 50.11c-2.687-5.786-5.687-11.442-8.957-17a200.394 200.394 0 00-27.133-35.848 164.088 164.088 0 00-3.734-3.852 51.093 51.093 0 00-1.535-1.515 205.281 205.281 0 00-5.465-5.157 200.158 200.158 0 00-34.809-25.414 199.98 199.98 0 00-16.27-8.367l50.485-50.48zm0 0" fill="#4f7693"/><path d="M482.82 160.832l-35.554 35.55a198.39 198.39 0 00-9.856-25.445 196.685 196.685 0 00-8.96-16.992l18.988-18.988c8.171-8.172 8.171-21.426 0-29.598l-42.63-42.625c-8.175-8.175-21.43-8.175-29.605 0l-51.824 51.82c-8.457 8.458-22.172 8.458-30.629 0-8.457-8.456-8.457-22.167 0-30.628l56.578-56.574c25.207-25.204 65.324-26.41 91.969-3.598a76.191 76.191 0 013.879 3.598l37.644 37.644a66.9 66.9 0 013.95 4.305c22.453 26.62 21.128 66.457-3.95 91.531zm0 0" fill="#ff84a7"/><path d="M292.75 108.809l56.578-56.57c25.207-25.208 65.324-26.415 91.969-3.598a72.789 72.789 0 013.879 3.597l37.644 37.64a66.9 66.9 0 013.95 4.306 67.354 67.354 0 0114.753 31.152c3.602-19.414-1.304-40.094-14.753-56.035a65.878 65.878 0 00-3.95-4.305l-37.644-37.644a74.451 74.451 0 00-3.88-3.598C414.653.94 374.537 2.148 349.329 27.352L292.75 83.926c-7.559 7.558-8.344 19.304-2.39 27.758a21.754 21.754 0 012.39-2.875zm0 0M449.438 132.602a20.59 20.59 0 01-2 2.355l-18.989 18.988a197.15 197.15 0 018.613 16.27l10.375-10.371c7.43-7.43 8.083-19.047 2-27.242zm0 0" fill="#ef6085"/><path d="M433.27 91.195l-13.907-13.902c-8.73-8.73-8.73-22.883 0-31.613l27.282-27.282c8.73-8.726 22.878-8.726 31.609 0l13.906 13.907c8.73 8.73 8.73 22.883 0 31.61l-27.285 27.28c-8.727 8.73-22.879 8.73-31.605 0zm0 0" fill="#fecbaa"/><path d="M448.469 76l-13.91-13.906c-8.73-8.727-8.73-22.88 0-31.61l12.086-12.086c8.73-8.726 22.878-8.726 31.609 0l13.906 13.907c8.73 8.73 8.73 22.883 0 31.61L480.074 76c-8.726 8.727-22.879 8.727-31.605 0zm0 0" fill="#c97f4c"/><path d="M172.531 438.176l-50.488 50.469-97.52-97.512 50.114-50.121a195.77 195.77 0 008.957 17.004 200.164 200.164 0 0027.125 35.847 172.138 172.138 0 003.73 3.852c.512.508 1.024 1.02 1.535 1.512a205.42 205.42 0 005.47 5.156A200.44 200.44 0 00156.27 429.8a203.06 203.06 0 0016.261 8.375zm0 0" fill="#4f7693"/><path d="M29.223 351.125l35.554-35.55a198.614 198.614 0 009.856 25.445 196.685 196.685 0 008.96 16.992l-18.988 18.984c-8.171 8.176-8.171 21.426 0 29.602l42.633 42.625c8.172 8.175 21.426 8.175 29.602 0l51.824-51.82c8.457-8.458 22.172-8.458 30.629 0 8.457 8.456 8.457 22.167 0 30.624l-56.578 56.575c-25.207 25.207-65.328 26.41-91.969 3.597a72.789 72.789 0 01-3.879-3.597L29.223 446.96a67.954 67.954 0 01-3.95-4.305c-22.453-26.62-21.128-66.457 3.95-91.531zm0 0" fill="#ff84a7"/><path d="M60.418 400.555l-1.887 1.886c-8.172 8.172-8.172 21.426 0 29.602l42.633 42.625c8.172 8.172 21.426 8.172 29.602 0l51.824-51.82c8.457-8.457 22.172-8.457 30.629 0a21.56 21.56 0 014.547 6.71l1.527-1.527c8.457-8.457 8.457-22.172 0-30.629s-22.172-8.457-30.629 0l-51.824 51.82c-8.176 8.176-21.43 8.176-29.602 0l-42.633-42.624c-1.8-1.801-3.18-3.86-4.187-6.043zm0 0M23.148 376.566l15.696-15.691c9.031-9.031 24.195-6.23 29.597 5.34l.118.246c.695 1.488 1.41 2.969 2.14 4.445l12.899-12.894a196.726 196.726 0 01-8.965-16.992 198.614 198.614 0 01-9.856-25.446l-35.554 35.551c-12.543 12.543-19.145 28.777-19.797 45.203a67.544 67.544 0 0113.722-19.762zm0 0" fill="#ef6085"/><path d="M78.773 420.758l13.907 13.906c8.73 8.73 8.73 22.883 0 31.61l-27.285 27.285c-8.727 8.726-22.88 8.726-31.606 0l-13.906-13.907c-8.73-8.73-8.73-22.882 0-31.613l27.281-27.281c8.73-8.727 22.883-8.727 31.61 0zm0 0" fill="#fecbaa"/><path d="M63.758 435.773l13.91 13.907c8.727 8.726 8.727 22.879 0 31.61l-12.273 12.269c-8.727 8.726-22.88 8.726-31.606 0l-13.906-13.907c-8.73-8.73-8.73-22.882 0-31.613l12.27-12.266c8.726-8.726 22.878-8.726 31.605 0zm0 0" fill="#c97f4c"/><path d="M488.691 389.922l-97.523 97.52-50.117-50.11a199.637 199.637 0 0016.996-8.965 199.46 199.46 0 0035.86-27.125 156.628 156.628 0 003.84-3.73c.51-.512 1.023-1.012 1.526-1.535a187.365 187.365 0 005.145-5.465 199.952 199.952 0 0025.418-34.805 202.588 202.588 0 008.375-16.27zm0 0" fill="#4f7693"/><path d="M351.156 482.734l-35.554-35.546a199.043 199.043 0 0025.449-9.86 195.606 195.606 0 0016.992-8.96l18.988 18.987c8.176 8.172 21.43 8.172 29.602 0l42.633-42.625c8.171-8.175 8.171-21.43 0-29.601l-51.825-51.82c-8.46-8.457-8.46-22.168 0-30.625 8.457-8.461 22.168-8.461 30.63 0l56.577 56.57c25.207 25.207 26.415 65.32 3.598 91.96a72.908 72.908 0 01-3.598 3.88L447 482.734a65.721 65.721 0 01-4.305 3.946c-26.62 22.457-66.46 21.129-91.539-3.946zm0 0" fill="#83d9ff"/><path d="M397.441 318.707c8.457-8.457 22.168-8.457 30.63 0l56.577 56.574a67.396 67.396 0 0118.586 34.946c4.18-21.391-2.015-44.403-18.586-60.973l-56.578-56.57c-8.46-8.461-22.172-8.461-30.629 0-7.734 7.726-8.375 19.84-1.972 28.324a21.792 21.792 0 011.972-2.301zm0 0M335.363 465.895c14.078-6.477 30.711-3.473 41.668 7.484 8.176 8.176 21.43 8.176 29.602 0l42.633-42.625c7.601-7.606 8.125-19.598 1.582-27.813a21.87 21.87 0 01-1.582 1.79l-42.633 42.624c-8.172 8.172-21.426 8.172-29.602 0l-18.988-18.984a196.643 196.643 0 01-16.992 8.957 199.043 199.043 0 01-25.45 9.86l19.04 19.03c.164-.07.41-.179.722-.323zm0 0" fill="#5fc9ed"/><path d="M420.8 433.188l13.91-13.907c8.728-8.726 22.88-8.726 31.606 0l27.286 27.281c8.73 8.727 8.73 22.88 0 31.61l-13.91 13.906c-8.727 8.727-22.88 8.727-31.606 0L420.8 464.797c-8.73-8.73-8.73-22.883 0-31.61zm0 0" fill="#fecbaa"/><path d="M435.992 448.379l13.91-13.906c8.727-8.727 22.88-8.727 31.606 0l12.094 12.09c8.726 8.726 8.726 22.878 0 31.609l-13.91 13.906c-8.727 8.727-22.88 8.727-31.606 0l-12.094-12.09c-8.726-8.73-8.726-22.883 0-31.61zm0 0" fill="#c97f4c"/><path d="M170.957 74.582a196.137 196.137 0 00-16.992 8.969 199.144 199.144 0 00-35.863 27.12 150.156 150.156 0 00-3.852 3.731 198.322 198.322 0 00-6.66 7.012 199.86 199.86 0 00-25.43 34.797 199.27 199.27 0 00-8.367 16.266l-50.484-50.48 97.53-97.524zm0 0" fill="#4f7693"/><path d="M160.848 29.18l35.554 35.55a198.442 198.442 0 00-25.449 9.856 196.685 196.685 0 00-16.992 8.96L134.973 64.56c-8.176-8.172-21.43-8.172-29.602 0l-42.633 42.629c-8.172 8.171-8.172 21.425 0 29.597l51.825 51.82c8.46 8.458 8.46 22.172 0 30.63-8.458 8.456-22.168 8.456-30.63 0L27.356 162.66C2.148 137.453.941 97.34 23.758 70.7a71.243 71.243 0 013.597-3.876L65 29.18a66.892 66.892 0 014.309-3.946c26.62-22.453 66.46-21.129 91.539 3.946zm0 0" fill="#83d9ff"/><path d="M62.738 136.79a21.081 21.081 0 01-2.277-2.735c-5.785 8.168-5.04 19.547 2.277 26.863l51.825 51.82a21.803 21.803 0 012.667 3.25c5.66-8.422 4.778-19.933-2.668-27.379zm0 0M23.758 94.832a71.313 71.313 0 013.597-3.879L65 53.313a66.737 66.737 0 014.305-3.946c26.625-22.457 66.465-21.129 91.543 3.946l17.851 17.851a199.898 199.898 0 0117.7-6.434l-35.551-35.55C135.77 4.105 95.93 2.78 69.308 25.234A66.892 66.892 0 0065 29.18L27.355 66.824a71.243 71.243 0 00-3.597 3.875C10.125 86.617 5.074 107.344 8.59 126.824c2.07-11.508 7.113-22.59 15.168-31.992zm0 0" fill="#5fc9ed"/><path d="M91.203 78.73l-13.91 13.907c-8.727 8.726-22.879 8.726-31.606 0L18.402 65.355c-8.726-8.73-8.726-22.882 0-31.613l13.91-13.902c8.727-8.73 22.88-8.73 31.606 0L91.203 47.12c8.727 8.727 8.727 22.879 0 31.61zm0 0" fill="#fecbaa"/><path d="M73.73 61.258L59.82 75.164c-8.726 8.727-22.879 8.727-31.605 0l-9.813-9.809c-8.73-8.73-8.73-22.882 0-31.613L32.31 19.84c8.73-8.73 22.879-8.73 31.609 0l9.812 9.808c8.727 8.727 8.727 22.883 0 31.61zm0 0" fill="#c97f4c"/><path d="M208.504 342.809l-36.805 32.629c-2.719 2.406-6.883 2.156-9.289-.563l-14.543-16.41-9.98-11.254-15.328-17.293a6.568 6.568 0 01.562-9.277l36.813-32.63a6.57 6.57 0 019.277.563l15.027 16.942 9.98 11.265 14.848 16.739a6.589 6.589 0 01-.562 9.289zm0 0M391.734 193.938l-52.796 46.796a7.73 7.73 0 01-10.907-.656l-38.324-43.23a7.726 7.726 0 01.656-10.907l52.801-46.796a7.717 7.717 0 0110.902.656l38.329 43.23a7.726 7.726 0 01-.66 10.906zm0 0" fill="#fff"/><path d="M498.227 440.582c9.484-13.406 14.328-29.55 13.722-46.16-.691-19.05-8.504-36.977-21.996-50.465l-33.46-33.46c6.89-25.333 8.917-51.427 6.007-77.645-.457-4.114-4.164-7.075-8.281-6.625a7.498 7.498 0 00-6.625 8.28c2.379 21.427 1.195 42.763-3.485 63.602l-10.734-10.734c-5.504-5.504-12.828-8.535-20.617-8.535-7.809 0-15.133 3.031-20.625 8.539-11.36 11.371-11.36 29.871.004 41.234l28.18 28.168a194.274 194.274 0 01-28.02 35.45c-46.89 46.89-114.25 66.175-178.445 51.847l10.75-10.75c5.503-5.508 8.535-12.824 8.535-20.61 0-7.804-3.035-15.128-8.54-20.62-11.363-11.36-29.859-11.36-41.238 0l-28.214 28.21a193.117 193.117 0 01-35.56-28.078 194.065 194.065 0 01-29.3-37.546c-.078-.16-.137-.329-.23-.48a189.778 189.778 0 01-8.63-16.38 190.474 190.474 0 01-9.484-24.469 7.635 7.635 0 00-.437-1.074c-7.313-23.972-9.879-48.82-7.613-73.879a7.499 7.499 0 00-6.793-8.144c-4.114-.38-7.77 2.668-8.145 6.793-2.348 25.906.106 51.61 7.27 76.472L23.926 345.82c-13.422 13.418-21.23 31.242-21.992 50.184-.664 16.512 4.062 32.59 13.398 45.98l-.75.75c-5.64 5.641-8.746 13.137-8.746 21.11s3.105 15.468 8.746 21.11l13.906 13.905c5.817 5.82 13.461 8.73 21.106 8.73s15.285-2.91 21.105-8.73l.672-.672a74.76 74.76 0 0043.297 13.786c4.605 0 9.25-.422 13.875-1.278a7.5 7.5 0 006.012-8.738c-.754-4.074-4.676-6.758-8.739-6.012-15.312 2.832-30.808-.293-43.629-8.57l15.797-15.797c3.875-3.875 6.551-8.625 7.848-13.808 11.078 7.69 26.445 6.617 36.309-3.25l19.43-19.426.038-.04 32.352-32.347c5.527-5.52 14.516-5.52 20.039.004 2.668 2.66 4.137 6.215 4.137 10.008a14.06 14.06 0 01-4.145 10.004l-20 20c-.031.027-.054.054-.082.082l-36.5 36.496a61.372 61.372 0 01-6.332 5.52 7.495 7.495 0 00-1.457 10.503 7.482 7.482 0 005.984 2.977 7.464 7.464 0 004.52-1.52 75.577 75.577 0 007.89-6.875l33.45-33.441a208.15 208.15 0 0054.457 7.258c19.52 0 38.871-2.766 57.496-8.125l32.434 32.445c13.421 13.418 31.246 21.227 50.191 21.984 1.02.043 2.035.063 3.05.063 15.434 0 30.372-4.707 42.934-13.465l.758.758c5.817 5.816 13.461 8.726 21.106 8.726s15.285-2.91 21.105-8.726l13.906-13.906c5.641-5.641 8.746-13.137 8.746-21.11 0-7.972-3.105-15.469-8.746-21.105zM16.918 396.609c.61-15.168 6.863-29.437 17.61-40.183l26.98-26.977a206.518 206.518 0 0012.687 27.36l-14.89 14.886c-5.371 5.364-8.328 12.504-8.328 20.102 0 5.715 1.671 11.172 4.789 15.808a29.68 29.68 0 00-13.903 7.848l-15.718 15.719c-6.477-10.242-9.723-22.254-9.227-34.563zm70.46 64.364l-21.8 21.797c0 .003-.004.003-.008.007l-5.476 5.477c-5.79 5.789-15.211 5.789-21.004 0l-13.906-13.906a14.76 14.76 0 01-4.352-10.504c0-3.965 1.547-7.696 4.352-10.5l5.363-5.364c.02-.02.039-.035.055-.054l21.867-21.863a14.802 14.802 0 0110.5-4.344c3.785 0 7.566 1.437 10.457 4.304l13.285 13.278.668.668a14.753 14.753 0 014.348 10.5 14.74 14.74 0 01-4.348 10.504zm44.157-17.059a13.335 13.335 0 01-9.496 3.938c-3.586 0-6.96-1.399-9.496-3.938l-14.484-14.48s-.075-.07-.075-.075l-6.476-6.476-7.43-7.426c-.015-.016-.035-.031-.05-.047L69.91 401.297a13.337 13.337 0 01-3.937-9.5c0-3.586 1.398-6.957 3.937-9.492l12.309-12.309a209.024 209.024 0 0023.215 29.184l-3.856 3.855a7.497 7.497 0 005.305 12.8 7.48 7.48 0 005.305-2.194l3.98-3.98a208.195 208.195 0 0028.105 21.519zm271.211-145.937c2.66-2.668 6.215-4.137 10.008-4.137 3.789 0 7.344 1.473 10.016 4.14l56.578 56.583c20.164 20.164 23.105 51.796 8.07 75.21l-15.797-15.796a29.703 29.703 0 00-13.808-7.825c3.3-4.726 5.085-10.34 5.085-16.226 0-7.594-2.957-14.73-8.328-20.102l-51.828-51.816c-5.52-5.52-5.52-14.504.004-20.031zm-3.582 108.503l3.906 3.907c1.465 1.46 3.387 2.195 5.305 2.195s3.84-.734 5.305-2.2a7.5 7.5 0 00-.004-10.605l-4.04-4.039a208.756 208.756 0 0021.544-28.09l12.785 12.782a13.324 13.324 0 013.933 9.496c0 3.586-1.394 6.957-3.933 9.496l-14.52 14.52-.039.035-13.906 13.906c-.016.012-.027.027-.04.039l-14.124 14.129c-5.238 5.234-13.758 5.234-19 0l-12.395-12.399a207.792 207.792 0 0029.223-23.172zm-2.523 88.563c-15.168-.61-29.438-6.863-40.184-17.605l-27.059-27.063a206.81 206.81 0 0014.829-6.246 205.7 205.7 0 0012.566-6.406l14.937 14.933c9.747 9.742 24.856 10.918 35.895 3.54 1.29 5.218 3.973 10.007 7.871 13.906l15.711 15.707c-10.246 6.476-22.266 9.722-34.566 9.234zm91.656-22.176l-13.91 13.906c-5.785 5.79-15.207 5.793-21 0l-27.282-27.28a14.74 14.74 0 01-4.351-10.5c0-3.958 1.539-7.68 4.332-10.481l13.945-13.946a14.806 14.806 0 0110.48-4.324c3.801 0 7.606 1.446 10.5 4.34l21.93 21.93c.004 0 .008.004.008.008l5.348 5.343c2.808 2.805 4.351 6.535 4.351 10.504s-1.546 7.696-4.351 10.5zm0 0"/><path d="M78.633 224.54c5.504 5.503 12.824 8.534 20.61 8.534 7.808 0 15.132-3.031 20.624-8.539 11.36-11.37 11.36-29.87-.004-41.234L91.56 155c7.328-11.914 15.996-23.055 25.847-33.223.211-.172.418-.351.617-.55a7.51 7.51 0 00.672-.786l.887-.898a193.586 193.586 0 0137.078-28.996 7.587 7.587 0 001.121-.543 190.461 190.461 0 0116.356-8.629 191.92 191.92 0 0124.48-9.48c.438-.137.852-.32 1.25-.532 32.125-9.734 65.88-10.941 98.453-3.605l-10.87 10.87c-5.512 5.509-8.548 12.829-8.548 20.61 0 7.797 3.04 15.121 8.547 20.617 11.367 11.368 29.864 11.368 41.227 0l28.27-28.265a193.074 193.074 0 0135.343 27.953c12.063 12.07 22.45 25.605 30.875 40.227 3.293 5.726 12.668 25.53 16.73 38.02.106.554.278 1.093.508 1.612.004.012.008.02.008.028 1.508 4.98 4.492 4.449 6.848 4.449h.008a7.495 7.495 0 005.296-2.195l35.56-35.547c13.421-13.422 21.23-31.242 21.987-50.188.664-16.508-4.062-32.59-13.398-45.98l.75-.75c5.637-5.637 8.742-13.133 8.742-21.11 0-7.972-3.105-15.468-8.742-21.105l-13.906-13.906c-11.64-11.637-30.575-11.637-42.215 0l-.672.672C427.262 4.285 411.128-.562 394.496.05c-19.055.696-36.98 8.509-50.473 22L310.695 55.38c-36.902-10.059-75.527-9.79-112.28.773l-32.27-32.277c-13.422-13.418-31.247-21.227-50.192-21.984-16.492-.668-32.59 4.062-45.984 13.398l-.75-.754c-11.64-11.637-30.574-11.633-42.215 0L13.102 28.441C7.46 34.078 4.355 41.574 4.355 49.547c0 7.976 3.106 15.473 8.747 21.11l.675.675C4.29 84.742-.55 100.887.051 117.496c.691 19.05 8.504 36.973 21.996 50.465zM413.746 82.28c.102.102.203.211.309.313l28.074 28.062a13.35 13.35 0 013.937 9.5c0 3.59-1.394 6.961-3.937 9.496l-12.332 12.332a209.116 209.116 0 00-23.188-29.21l3.856-3.852a7.497 7.497 0 000-10.606 7.497 7.497 0 00-10.606 0l-3.964 3.965a208.05 208.05 0 00-28.079-21.554l12.688-12.688c5.238-5.238 13.766-5.238 19.004 0zm81.379 33.067c-.605 15.168-6.86 29.433-17.605 40.18l-27.18 27.167c-3.852-10.21-9.504-21.664-12.57-27.468l14.96-14.965c5.375-5.367 8.333-12.504 8.333-20.102 0-5.715-1.672-11.168-4.79-15.808A29.666 29.666 0 00470.18 96.5l15.715-15.715c6.48 10.246 9.726 22.254 9.23 34.563zm-32.676-95.989c3.805 0 7.606 1.45 10.5 4.344l13.91 13.906c2.805 2.805 4.348 6.532 4.348 10.5s-1.543 7.7-4.348 10.504l-5.457 5.457c-.015.016-.035.032-.047.047l-21.78 21.778c-5.79 5.789-15.212 5.789-21 0l-13.907-13.907c-5.793-5.793-5.793-15.215-.004-21.004l27.285-27.28a14.785 14.785 0 0110.5-4.345zM354.633 32.652c20.168-20.168 51.804-23.109 75.226-8.07l-15.8 15.797a29.649 29.649 0 00-7.829 13.816c-11.078-7.703-26.46-6.632-36.332 3.239l-51.82 51.816c-5.52 5.52-14.5 5.52-20.027-.004a14.032 14.032 0 01-4.145-10.008c0-3.773 1.473-7.328 4.153-10.008zm-286.59 98.832a13.324 13.324 0 01-3.934-9.496c0-3.586 1.395-6.957 3.934-9.496l42.633-42.625c5.238-5.238 13.758-5.238 18.996 0l12.25 12.246a209.166 209.166 0 00-29.207 23.2l-3.785-3.786a7.504 7.504 0 00-10.606 0 7.51 7.51 0 000 10.61l3.899 3.894a207.87 207.87 0 00-21.532 28.102zm47.312-114.609c15.168.605 29.442 6.86 40.188 17.605l26.945 26.95a207.364 207.364 0 00-27.367 12.672l-14.844-14.844c-9.742-9.742-24.859-10.918-35.898-3.531-1.29-5.223-3.973-10.012-7.875-13.91L80.789 26.104c10.25-6.48 22.266-9.726 34.566-9.23zM23.707 39.047L37.613 25.14a14.798 14.798 0 0110.5-4.34c3.805 0 7.606 1.445 10.504 4.34l5.434 5.437c.027.024.054.055.082.078l21.77 21.766c2.804 2.808 4.347 6.535 4.347 10.504s-1.543 7.695-4.348 10.5l-13.91 13.906c-5.789 5.79-15.21 5.793-21.004 0L23.707 60.051a14.743 14.743 0 01-4.352-10.504 14.74 14.74 0 014.352-10.5zm.883 43.098l15.793 15.793a29.69 29.69 0 0013.812 7.828c-3.3 4.726-5.086 10.336-5.086 16.222 0 7.594 2.961 14.735 8.328 20.102l51.82 51.816c5.52 5.52 5.52 14.504-.003 20.031-2.664 2.668-6.219 4.137-10.012 4.137a14.056 14.056 0 01-10.004-4.14l-56.586-56.582c-20.168-20.165-23.105-51.793-8.062-75.207zm0 0M154.957 282.402l-36.809 32.625c-5.808 5.149-6.347 14.063-1.199 19.871l20.281 22.88c.024.023.043.05.063.077.02.02.035.036.055.051l19.453 21.946c2.773 3.132 6.648 4.73 10.539 4.73 3.32 0 6.652-1.164 9.328-3.535l36.809-32.629c5.812-5.145 6.347-14.063 1.199-19.871l-39.848-44.95c-5.148-5.808-14.062-6.343-19.871-1.195zm9.258 11.836l14.46 16.309-35.202 31.664-14.688-16.57zm3.195 74.973l-13.984-15.777 35.199-31.66 14.215 16.03zm0 0"/><path d="M338.188 133.531l-52.801 46.797a15.142 15.142 0 00-5.098 10.48 15.123 15.123 0 003.805 11.012l38.328 43.235a15.126 15.126 0 0011.41 5.125c3.723 0 7.273-1.344 10.078-3.832l52.8-46.801a15.126 15.126 0 005.099-10.477 15.11 15.11 0 00-3.805-11.015l-38.324-43.23c-5.57-6.282-15.211-6.86-21.493-1.294zm48.648 54.637c-.004.094-.047.133-.074.152v.004l-52.801 46.797c-.027.024-.059.07-.16.059-.094-.004-.133-.051-.156-.075l-38.325-43.234a.2.2 0 01-.058-.16c.008-.094.05-.133.074-.156l52.8-46.797a.224.224 0 01.317.015l38.328 43.235c.024.023.063.07.055.16zm0 0"/></svg>