<svg height="512pt" viewBox="0 0 512.0006 512" width="512pt" xmlns="http://www.w3.org/2000/svg"><path d="m397.597656 397.535156c-78.234375 78.226563-205.082031 78.226563-283.320312 0-78.238282-78.230468-78.238282-205.066406 0-283.296875 78.238281-78.230469 205.085937-78.230469 283.320312 0 78.238282 78.230469 78.238282 205.066407 0 283.296875zm0 0" fill="#fecbaa"/><path d="m397.597656 114.238281c-12.835937-12.835937-26.988281-23.550781-42.015625-32.175781 49.644531 77.523438 40.59375 181.757812-27.179687 249.523438-65.398438 65.394531-164.757813 76.109374-241.304688 32.175781 7.667969 11.96875 16.714844 23.308593 27.179688 33.773437 78.238281 78.226563 205.085937 78.226563 283.320312 0 78.238282-78.230468 78.238282-205.066406 0-283.296875zm0 0" fill="#ffae85"/><path d="m487.527344 120.832031-50.117188 50.109375c-2.6875-5.785156-5.6875-11.441406-8.957031-17-7.523437-12.6875-16.5625-24.722656-27.132813-35.847656-1.214843-1.292969-2.457031-2.578125-3.734374-3.851562-.5-.511719-1.011719-1.023438-1.535157-1.515626-1.792969-1.753906-3.621093-3.480468-5.464843-5.15625-10.855469-9.878906-22.539063-18.34375-34.808594-25.414062-5.328125-3.050781-10.753906-5.847656-16.269532-8.367188l50.484376-50.480468zm0 0" fill="#4f7693"/><path d="m482.820312 160.832031-35.554687 35.550781c-2.679687-8.644531-5.96875-17.152343-9.855469-25.445312-2.691406-5.78125-5.683594-11.441406-8.960937-16.992188l18.988281-18.988281c8.171875-8.171875 8.171875-21.425781 0-29.597656l-42.628906-42.625c-8.175782-8.175781-21.429688-8.175781-29.605469 0l-51.824219 51.820313c-8.457031 8.457031-22.171875 8.457031-30.628906 0-8.457031-8.457032-8.457031-22.167969 0-30.628907l56.578125-56.574219c25.207031-25.203124 65.324219-26.410156 91.96875-3.597656 1.324219 1.148438 2.621094 2.34375 3.878906 3.597656l37.644531 37.644532c1.386719 1.386718 2.710938 2.828125 3.949219 4.304687 22.453125 26.621094 21.128907 66.457031-3.949219 91.53125zm0 0" fill="#ff84a7"/><path d="m292.75 108.808594 56.578125-56.570313c25.207031-25.207031 65.324219-26.414062 91.96875-3.597656 1.324219 1.144531 2.621094 2.339844 3.878906 3.597656l37.644531 37.640625c1.386719 1.386719 2.710938 2.828125 3.949219 4.304688 7.753907 9.191406 12.667969 19.960937 14.753907 31.152344 3.601562-19.414063-1.304688-40.09375-14.753907-56.035157-1.238281-1.476562-2.5625-2.921875-3.949219-4.304687l-37.644531-37.644532c-1.257812-1.253906-2.554687-2.453124-3.878906-3.597656-26.644531-22.8125-66.761719-21.605468-91.96875 3.597656l-56.578125 56.574219c-7.558594 7.558594-8.34375 19.304688-2.390625 27.757813.707031-1.007813 1.492187-1.972656 2.390625-2.875zm0 0" fill="#ef6085"/><path d="m449.4375 132.601562c-.605469.820313-1.257812 1.613282-2 2.355469l-18.988281 18.988281c3.140625 5.320313 6.011719 10.742188 8.613281 16.269532l10.375-10.371094c7.429688-7.429688 8.082031-19.046875 2-27.242188zm0 0" fill="#ef6085"/><path d="m433.269531 91.195312-13.90625-13.902343c-8.730469-8.730469-8.730469-22.882813 0-31.613281l27.28125-27.28125c8.730469-8.726563 22.878907-8.726563 31.609375 0l13.90625 13.90625c8.730469 8.730468 8.730469 22.882812 0 31.609374l-27.285156 27.28125c-8.726562 8.730469-22.878906 8.730469-31.605469 0zm0 0" fill="#fecbaa"/><path d="m448.46875 76-13.910156-13.90625c-8.730469-8.726562-8.730469-22.878906 0-31.609375l12.085937-12.085937c8.730469-8.726563 22.878907-8.726563 31.609375 0l13.90625 13.90625c8.730469 8.730468 8.730469 22.882812 0 31.609374l-12.085937 12.085938c-8.726563 8.726562-22.878907 8.726562-31.605469 0zm0 0" fill="#c97f4c"/><path d="m172.53125 438.175781-50.488281 50.46875-97.519531-97.511719 50.113281-50.121093c2.6875 5.789062 5.679687 11.445312 8.957031 17.003906 7.523438 12.6875 16.550781 24.722656 27.125 35.847656 1.214844 1.292969 2.457031 2.578125 3.730469 3.851563.511719.507812 1.023437 1.019531 1.535156 1.511718 1.796875 1.753907 3.621094 3.480469 5.46875 5.15625 10.851563 9.878907 22.550781 18.34375 34.816406 25.417969 5.316407 3.046875 10.753907 5.847657 16.261719 8.375zm0 0" fill="#4f7693"/><path d="m29.222656 351.125 35.554688-35.550781c2.679687 8.640625 5.96875 17.152343 9.855468 25.445312 2.691407 5.78125 5.683594 11.441407 8.960938 16.992188l-18.988281 18.984375c-8.171875 8.175781-8.171875 21.425781 0 29.601562l42.632812 42.625c8.171875 8.175782 21.425781 8.175782 29.601563 0l51.824218-51.820312c8.457032-8.457032 22.171876-8.457032 30.628907 0 8.457031 8.457031 8.457031 22.167968 0 30.625l-56.578125 56.574218c-25.207032 25.207032-65.328125 26.410157-91.96875 3.597657-1.324219-1.144531-2.621094-2.339844-3.878906-3.597657l-37.644532-37.640624c-1.386718-1.386719-2.710937-2.832032-3.949218-4.304688-22.453126-26.621094-21.128907-66.457031 3.949218-91.53125zm0 0" fill="#ff84a7"/><path d="m60.417969 400.554688-1.886719 1.886718c-8.171875 8.171875-8.171875 21.425782 0 29.601563l42.632812 42.625c8.171876 8.171875 21.425782 8.171875 29.601563 0l51.824219-51.820313c8.457031-8.457031 22.171875-8.457031 30.628906 0 1.988281 1.988282 3.492188 4.273438 4.546875 6.710938l1.527344-1.527344c8.457031-8.457031 8.457031-22.171875 0-30.628906-8.457031-8.457032-22.171875-8.457032-30.628907 0l-51.824218 51.820312c-8.175782 8.175782-21.429688 8.175782-29.601563 0l-42.632812-42.625c-1.800781-1.800781-3.179688-3.859375-4.1875-6.042968zm0 0" fill="#ef6085"/><path d="m23.148438 376.566406 15.695312-15.691406c9.03125-9.03125 24.195312-6.230469 29.597656 5.339844.039063.082031.078125.164062.117188.246094.695312 1.488281 1.410156 2.96875 2.140625 4.445312l12.898437-12.894531c-3.28125-5.550781-6.269531-11.210938-8.964844-16.992188-3.886718-8.292969-7.175781-16.804687-9.855468-25.445312l-35.554688 35.550781c-12.542968 12.542969-19.144531 28.777344-19.796875 45.203125 3.265625-7.15625 7.828125-13.867187 13.722657-19.761719zm0 0" fill="#ef6085"/><path d="m78.773438 420.757812 13.90625 13.90625c8.730468 8.730469 8.730468 22.882813 0 31.609376l-27.285157 27.285156c-8.726562 8.726562-22.878906 8.726562-31.605469 0l-13.90625-13.90625c-8.730468-8.730469-8.730468-22.882813 0-31.613282l27.28125-27.28125c8.730469-8.726562 22.882813-8.726562 31.609376 0zm0 0" fill="#fecbaa"/><path d="m63.757812 435.773438 13.910157 13.90625c8.726562 8.726562 8.726562 22.878906 0 31.609374l-12.273438 12.269532c-8.726562 8.726562-22.878906 8.726562-31.605469 0l-13.90625-13.90625c-8.730468-8.730469-8.730468-22.882813 0-31.613282l12.269532-12.265624c8.726562-8.726563 22.878906-8.726563 31.605468 0zm0 0" fill="#c97f4c"/><path d="m488.691406 389.921875-97.523437 97.519531-50.117188-50.109375c5.777344-2.695312 11.4375-5.6875 16.996094-8.964843 12.699219-7.515626 24.734375-16.550782 35.859375-27.125 1.292969-1.210938 2.578125-2.464844 3.839844-3.730469.511718-.511719 1.023437-1.011719 1.527344-1.535157 1.753906-1.792968 3.480468-3.621093 5.144531-5.464843 9.882812-10.851563 18.347656-22.539063 25.417969-34.804688 3.050781-5.328125 5.847656-10.753906 8.375-16.269531zm0 0" fill="#4f7693"/><path d="m351.15625 482.734375-35.554688-35.546875c8.644532-2.683594 17.15625-5.972656 25.449219-9.859375 5.78125-2.691406 11.441407-5.679687 16.992188-8.960937l18.988281 18.988281c8.175781 8.171875 21.429688 8.171875 29.601562 0l42.632813-42.625c8.171875-8.175781 8.171875-21.429688 0-29.601563l-51.824219-51.820312c-8.460937-8.457032-8.460937-22.167969 0-30.625 8.457032-8.460938 22.167969-8.460938 30.628906 0l56.578126 56.570312c25.207031 25.207032 26.414062 65.320313 3.597656 91.960938-1.144532 1.328125-2.34375 2.621094-3.597656 3.878906l-37.648438 37.640625c-1.386719 1.386719-2.828125 2.710937-4.304688 3.945313-26.621093 22.457031-66.460937 21.128906-91.539062-3.945313zm0 0" fill="#83d9ff"/><path d="m397.441406 318.707031c8.457032-8.457031 22.167969-8.457031 30.628906 0l56.578126 56.574219c9.917968 9.914062 16.101562 22.140625 18.585937 34.945312 4.179687-21.390624-2.015625-44.402343-18.585937-60.972656l-56.578126-56.570312c-8.460937-8.460938-22.171874-8.460938-30.628906 0-7.734375 7.726562-8.375 19.839844-1.972656 28.324218.601562-.796874 1.246094-1.574218 1.972656-2.300781zm0 0" fill="#5fc9ed"/><path d="m335.363281 465.894531c14.078125-6.476562 30.710938-3.472656 41.667969 7.484375 8.175781 8.175782 21.429688 8.175782 29.601562 0l42.632813-42.625c7.601563-7.605468 8.125-19.597656 1.582031-27.8125-.492187.617188-1.011718 1.214844-1.582031 1.789063l-42.632813 42.625c-8.171874 8.171875-21.425781 8.171875-29.601562 0l-18.988281-18.984375c-5.550781 3.277344-11.210938 6.265625-16.992188 8.957031-8.292969 3.886719-16.804687 7.175781-25.449219 9.859375l19.039063 19.03125c.164063-.070312.410156-.179688.722656-.324219zm0 0" fill="#5fc9ed"/><path d="m420.800781 433.1875 13.910157-13.90625c8.726562-8.726562 22.878906-8.726562 31.605468 0l27.285156 27.28125c8.730469 8.726562 8.730469 22.878906 0 31.609375l-13.910156 13.90625c-8.726562 8.726563-22.878906 8.726563-31.605468 0l-27.285157-27.28125c-8.730469-8.730469-8.730469-22.882813 0-31.609375zm0 0" fill="#fecbaa"/><path d="m435.992188 448.378906 13.910156-13.90625c8.726562-8.726562 22.878906-8.726562 31.605468 0l12.09375 12.089844c8.726563 8.726562 8.726563 22.878906 0 31.609375l-13.910156 13.90625c-8.726562 8.726563-22.878906 8.726563-31.605468 0l-12.09375-12.089844c-8.726563-8.730469-8.726563-22.882812 0-31.609375zm0 0" fill="#c97f4c"/><path d="m170.957031 74.582031c-5.789062 2.699219-11.445312 5.6875-16.992187 8.96875-12.703125 7.511719-24.738282 16.546875-35.863282 27.121094-1.304687 1.214844-2.578124 2.457031-3.851562 3.730469-.511719.511718-1.011719 1.011718-1.515625 1.535156-1.753906 1.804688-3.480469 3.628906-5.144531 5.476562-9.890625 10.851563-18.359375 22.539063-25.429688 34.796876-3.050781 5.324218-5.847656 10.75-8.367187 16.265624l-50.484375-50.480468 97.53125-97.523438zm0 0" fill="#4f7693"/><path d="m160.847656 29.179688 35.554688 35.550781c-8.644532 2.679687-17.15625 5.96875-25.449219 9.855469-5.78125 2.691406-11.441406 5.683593-16.992187 8.960937l-18.988282-18.988281c-8.175781-8.171875-21.429687-8.171875-29.601562 0l-42.632813 42.628906c-8.171875 8.171875-8.171875 21.425781 0 29.597656l51.824219 51.820313c8.460938 8.457031 8.460938 22.171875 0 30.628906-8.457031 8.457031-22.167969 8.457031-30.628906 0l-56.578125-56.574219c-25.207031-25.207031-26.414063-65.320312-3.597657-91.960937 1.144532-1.324219 2.339844-2.621094 3.597657-3.875l37.644531-37.644531c1.386719-1.382813 2.832031-2.710938 4.308594-3.945313 26.621094-22.453125 66.460937-21.128906 91.539062 3.945313zm0 0" fill="#83d9ff"/><path d="m62.738281 136.789062c-.855469-.855468-1.601562-1.78125-2.277343-2.734374-5.785157 8.167968-5.039063 19.546874 2.277343 26.863281l51.824219 51.820312c1.011719 1.011719 1.894531 2.101563 2.667969 3.25 5.660156-8.421875 4.777343-19.933593-2.667969-27.378906zm0 0" fill="#5fc9ed"/><path d="m23.757812 94.832031c1.144532-1.328125 2.339844-2.621093 3.597657-3.878906l37.644531-37.640625c1.386719-1.386719 2.832031-2.710938 4.304688-3.945312 26.625-22.457032 66.464843-21.128907 91.542968 3.945312l17.851563 17.851562c5.820312-2.429687 11.726562-4.578124 17.699219-6.433593l-35.550782-35.550781c-25.078125-25.074219-64.917968-26.398438-91.539062-3.945313-1.476563 1.234375-2.921875 2.5625-4.308594 3.945313l-37.644531 37.644531c-1.257813 1.253906-2.453125 2.550781-3.597657 3.875-13.632812 15.917969-18.683593 36.644531-15.167968 56.125 2.070312-11.507813 7.113281-22.589844 15.167968-31.992188zm0 0" fill="#5fc9ed"/><path d="m91.203125 78.730469-13.910156 13.90625c-8.726563 8.726562-22.878907 8.726562-31.605469 0l-27.285156-27.28125c-8.726563-8.730469-8.726563-22.882813 0-31.613281l13.910156-13.902344c8.726562-8.730469 22.878906-8.730469 31.605469 0l27.285156 27.28125c8.726563 8.726562 8.726563 22.878906 0 31.609375zm0 0" fill="#fecbaa"/><path d="m73.730469 61.257812-13.910157 13.90625c-8.726562 8.726563-22.878906 8.726563-31.605468 0l-9.8125-9.808593c-8.730469-8.730469-8.730469-22.882813 0-31.613281l13.90625-13.902344c8.730468-8.730469 22.878906-8.730469 31.609375 0l9.8125 9.808594c8.726562 8.726562 8.726562 22.882812 0 31.609374zm0 0" fill="#c97f4c"/><path d="m208.503906 342.808594-36.804687 32.628906c-2.71875 2.40625-6.882813 2.15625-9.289063-.5625l-14.542968-16.410156-9.980469-11.253906-15.328125-17.292969c-2.410156-2.714844-2.15625-6.867188.5625-9.277344l36.8125-32.628906c2.71875-2.40625 6.871094-2.15625 9.277344.5625l15.027343 16.941406 9.980469 11.265625 14.847656 16.738281c2.40625 2.71875 2.152344 6.882813-.5625 9.289063zm0 0" fill="#fff"/><path d="m391.734375 193.9375-52.796875 46.796875c-3.195312 2.828125-8.074219 2.535156-10.90625-.65625l-38.324219-43.230469c-2.832031-3.195312-2.535156-8.074218.65625-10.90625l52.800781-46.796875c3.191407-2.832031 8.074219-2.539062 10.902344.65625l38.328125 43.230469c2.828125 3.191406 2.535157 8.074219-.660156 10.90625zm0 0" fill="#fff"/><path d="m498.226562 440.582031c9.484376-13.40625 14.328126-29.550781 13.722657-46.160156-.691407-19.050781-8.503907-36.976563-21.996094-50.464844l-33.460937-33.460937c6.890624-25.332032 8.917968-51.425782 6.007812-77.644532-.457031-4.113281-4.164062-7.074218-8.28125-6.625-4.117188.457032-7.082031 4.164063-6.625 8.28125 2.378906 21.425782 1.195312 42.761719-3.484375 63.601563l-10.734375-10.734375c-5.503906-5.503906-12.828125-8.535156-20.617188-8.535156-7.808593 0-15.132812 3.03125-20.625 8.539062-11.359374 11.371094-11.359374 29.871094.003907 41.234375l28.179687 28.167969c-7.871094 12.785156-17.273437 24.695312-28.019531 35.449219-46.890625 46.890625-114.25 66.175781-178.445313 51.847656l10.75-10.75c5.503907-5.507813 8.535157-12.824219 8.535157-20.609375 0-7.804688-3.035157-15.128906-8.539063-20.621094-11.363281-11.359375-29.859375-11.359375-41.238281 0l-28.214844 28.210938c-12.867187-7.902344-24.8125-17.320313-35.558593-28.078125-11.316407-11.316407-21.167969-23.953125-29.300782-37.546875-.078125-.160156-.136718-.328125-.230468-.480469-3.175782-5.382813-6.074219-10.882813-8.628907-16.378906-3.699219-7.878907-6.894531-16.113281-9.484375-24.46875-.117187-.375-.269531-.730469-.4375-1.074219-7.3125-23.972656-9.878906-48.820312-7.613281-73.878906.375-4.125-2.667969-7.769532-6.792969-8.144532-4.113281-.378906-7.769531 2.667969-8.144531 6.792969-2.347656 25.90625.105469 51.609375 7.269531 76.472657l-32.296875 32.296874c-13.421875 13.417969-21.230469 31.242188-21.992187 50.183594-.664063 16.511719 4.0625 32.589844 13.398437 45.980469l-.75.75c-5.640625 5.640625-8.746093 13.136719-8.746093 21.109375s3.105468 15.46875 8.746093 21.109375l13.90625 13.90625c5.816407 5.820313 13.460938 8.730469 21.105469 8.730469s15.285156-2.910156 21.105469-8.730469l.671875-.671875c12.730468 9.015625 27.804687 13.785156 43.296875 13.785156 4.605469 0 9.25-.421875 13.875-1.277344 4.074219-.753906 6.765625-4.667968 6.011719-8.738281-.753907-4.074219-4.675782-6.757812-8.738282-6.011719-15.3125 2.832032-30.808594-.292968-43.628906-8.570312l15.796875-15.796875c3.875-3.875 6.550781-8.625 7.847656-13.808594 11.078125 7.691407 26.445313 6.617188 36.308594-3.25l19.429687-19.425781c.011719-.011719.023438-.023438.039063-.039062l32.351563-32.347657c5.527343-5.519531 14.515624-5.519531 20.039062.003907 2.667969 2.660156 4.136719 6.214843 4.136719 10.007812 0 3.777344-1.472657 7.332031-4.144531 10.003906l-20 20c-.03125.027344-.054688.054688-.082032.082032l-36.5 36.496093c-1.984375 1.984375-4.113281 3.839844-6.332031 5.519531-3.304687 2.496094-3.957031 7.199219-1.457031 10.503907 1.472656 1.949219 3.714844 2.976562 5.984375 2.976562 1.578125 0 3.167969-.496093 4.519531-1.519531 2.765625-2.089844 5.421875-4.402344 7.890625-6.875l33.449219-33.441406c17.996094 4.875 36.292968 7.257812 54.457031 7.257812 19.519531 0 38.871094-2.765625 57.496094-8.125l32.433593 32.445313c13.421876 13.417969 31.246094 21.226562 50.191407 21.984375 1.019531.042968 2.035156.0625 3.050781.0625 15.433594 0 30.371094-4.707032 42.933594-13.464844l.757812.757812c5.816406 5.816407 13.460938 8.726563 21.105469 8.726563s15.285156-2.910156 21.105469-8.726563l13.90625-13.90625c5.640625-5.640624 8.746094-13.136718 8.746094-21.109374 0-7.972657-3.105469-15.46875-8.746094-21.105469zm-481.308593-43.972656c.609375-15.167969 6.863281-29.4375 17.609375-40.183594l26.980468-26.976562c3.554688 9.410156 7.796876 18.5625 12.6875 27.359375l-14.890624 14.886718c-5.371094 5.363282-8.328126 12.503907-8.328126 20.101563 0 5.714844 1.671876 11.171875 4.789063 15.808594-5.097656 1.257812-9.925781 3.875-13.902344 7.847656l-15.71875 15.71875c-6.476562-10.242187-9.722656-22.253906-9.226562-34.5625zm70.460937 64.363281-21.800781 21.796875c0 .003907-.003906.003907-.007813.007813l-5.476562 5.476562c-5.789062 5.789063-15.210938 5.789063-21.003906 0l-13.90625-13.90625c-2.804688-2.804687-4.351563-6.535156-4.351563-10.503906 0-3.964844 1.546875-7.695312 4.351563-10.5l5.363281-5.363281c.019531-.019531.039063-.035157.054687-.054688l21.867188-21.863281c2.894531-2.894531 6.695312-4.34375 10.5-4.34375 3.785156 0 7.566406 1.4375 10.457031 4.304688l13.285157 13.277343.667968.667969c2.804688 2.804688 4.347656 6.535156 4.347656 10.5.003907 3.96875-1.542968 7.699219-4.347656 10.503906zm44.15625-17.058594c-2.535156 2.539063-5.910156 3.9375-9.496094 3.9375-3.585937 0-6.960937-1.398437-9.496093-3.9375l-14.484375-14.480468s-.074219-.070313-.074219-.074219l-6.476563-6.476563-7.429687-7.425781c-.015625-.015625-.035156-.03125-.050781-.046875l-14.117188-14.113281c-2.539062-2.535156-3.9375-5.910156-3.9375-9.5 0-3.585937 1.398438-6.957031 3.9375-9.492187l12.308594-12.308594c6.828125 10.363281 14.597656 20.140625 23.214844 29.183594l-3.855469 3.855468c-2.929687 2.929688-2.929687 7.675782 0 10.605469 1.464844 1.464844 3.386719 2.195313 5.304687 2.195313 1.917969 0 3.839844-.730469 5.304688-2.195313l3.980469-3.980469c8.757812 7.972656 18.164062 15.171875 28.105469 21.519532zm271.210938-145.9375c2.660156-2.667968 6.214844-4.136718 10.007812-4.136718 3.789063 0 7.34375 1.472656 10.015625 4.140625l56.578125 56.582031c20.164063 20.164062 23.105469 51.796875 8.070313 75.210938l-15.796875-15.796876c-3.953125-3.949218-8.746094-6.554687-13.808594-7.824218 3.300781-4.726563 5.085938-10.339844 5.085938-16.226563 0-7.59375-2.957032-14.730469-8.328126-20.101562l-51.828124-51.816407c-5.519532-5.519531-5.519532-14.503906.003906-20.03125zm-3.582032 108.503907 3.90625 3.90625c1.464844 1.460937 3.386719 2.195312 5.304688 2.195312s3.839844-.734375 5.304688-2.199219c2.925781-2.929687 2.925781-7.675781-.003907-10.605468l-4.039062-4.039063c7.992187-8.773437 15.199219-18.171875 21.542969-28.089843l12.785156 12.78125c2.539062 2.535156 3.933594 5.90625 3.933594 9.496093 0 3.585938-1.394532 6.957031-3.933594 9.496094l-14.519532 14.519531c-.011718.011719-.027343.023438-.039062.035156l-13.90625 13.90625c-.015625.011719-.027344.027344-.039062.039063l-14.125 14.128906c-5.238282 5.234375-13.757813 5.234375-19 0l-12.394532-12.398437c10.316406-6.769532 20.105469-14.5 29.222656-23.171875zm-2.523437 88.5625c-15.167969-.609375-29.4375-6.863281-40.183594-17.605469l-27.058593-27.0625c5.023437-1.890625 9.980468-3.976562 14.828124-6.246094 4.210938-1.964844 8.421876-4.113281 12.566407-6.40625l14.9375 14.933594c9.746093 9.742188 24.855469 10.917969 35.894531 3.539062 1.289062 5.21875 3.972656 10.007813 7.871094 13.90625l15.710937 15.707032c-10.246093 6.476562-22.265625 9.722656-34.566406 9.234375zm91.65625-22.175781-13.910156 13.90625c-5.785157 5.789062-15.207031 5.792968-21 0l-27.28125-27.28125c-2.808594-2.804688-4.351563-6.535157-4.351563-10.5 0-3.957032 1.539063-7.679688 4.332032-10.480469l13.945312-13.945313c2.894531-2.882812 6.6875-4.324218 10.480469-4.324218 3.800781 0 7.605469 1.445312 10.5 4.339843l21.929687 21.929688c.003906 0 .007813.003906.007813.007812l5.347656 5.34375c2.808594 2.804688 4.351563 6.535157 4.351563 10.503907s-1.546876 7.695312-4.351563 10.5zm0 0"/><path d="m78.632812 224.539062c5.503907 5.503907 12.824219 8.535157 20.609376 8.535157 7.808593 0 15.132812-3.03125 20.625-8.539063 11.359374-11.371094 11.359374-29.871094-.003907-41.234375l-28.304687-28.300781c7.328125-11.914062 15.996094-23.054688 25.847656-33.222656.210938-.171875.417969-.351563.617188-.550782.246093-.246093.464843-.511718.671874-.785156.292969-.296875.589844-.597656.886719-.898437 11.195313-11.191407 23.667969-20.933594 37.078125-28.996094.382813-.148437.757813-.328125 1.121094-.542969 5.335938-3.152344 10.832031-6.054687 16.355469-8.628906 7.90625-3.703125 16.140625-6.894531 24.480469-9.480469.4375-.136719.851562-.320312 1.25-.53125 32.125-9.734375 65.878906-10.941406 98.453124-3.605469l-10.871093 10.871094c-5.511719 5.507813-8.546875 12.828125-8.546875 20.609375 0 7.796875 3.039062 15.121094 8.546875 20.617188 11.367187 11.367187 29.863281 11.367187 41.226562 0l28.269531-28.265625c12.78125 7.871094 24.652344 17.25 35.34375 27.953125 12.0625 12.070312 22.449219 25.605469 30.875 40.226562 3.292969 5.726563 12.667969 25.53125 16.730469 38.019531.105469.554688.277344 1.09375.507813 1.613282.003906.011718.007812.019531.007812.027344 1.507813 4.980468 4.492188 4.449218 6.847656 4.449218h.007813c1.917969-.003906 3.832031-.734375 5.296875-2.195312l35.558594-35.546875c13.421875-13.421875 21.230468-31.242188 21.988281-50.1875.664063-16.507813-4.0625-32.589844-13.398437-45.980469l.75-.75c5.636718-5.636719 8.742187-13.132812 8.742187-21.109375 0-7.972656-3.105469-15.46875-8.742187-21.105469l-13.90625-13.90625c-11.640626-11.636718-30.574219-11.636718-42.214844 0l-.671875.671875c-13.40625-9.484375-29.539063-14.332031-46.171875-13.7187498-19.054688.6953128-36.980469 8.5078128-50.472656 21.9999998l-33.328126 33.328125c-36.902343-10.058594-75.527343-9.789062-112.28125.773438l-32.269531-32.277344c-13.421875-13.417969-31.246093-21.226562-50.191406-21.984375-16.492187-.667969-32.589844 4.0625-45.984375 13.398437l-.75-.753906c-11.640625-11.636718-30.574219-11.632812-42.214844 0l-13.902344 13.90625c-5.640624 5.636719-8.746093 13.132813-8.746093 21.105469 0 7.976563 3.105469 15.472656 8.746093 21.109375l.675782.675781c-9.488282 13.410157-14.328125 29.554688-13.7265628 46.164063.6914068 19.050781 8.5039068 36.972656 21.9960938 50.464844zm335.113282-142.257812c.101562.101562.203125.210938.308594.3125l28.074218 28.0625c2.539063 2.539062 3.9375 5.914062 3.9375 9.5 0 3.589844-1.394531 6.960938-3.9375 9.496094l-12.332031 12.332031c-6.8125-10.367187-14.574219-20.148437-23.1875-29.210937l3.855469-3.851563c2.929687-2.929687 2.929687-7.679687 0-10.605469-2.929688-2.929687-7.679688-2.929687-10.605469 0l-3.964844 3.964844c-8.753906-7.988281-18.148437-15.199219-28.078125-21.554688l12.6875-12.6875c5.238282-5.238281 13.765625-5.238281 19.003906 0zm81.378906 33.066406c-.605469 15.167969-6.859375 29.433594-17.605469 40.179688l-27.179687 27.167968c-3.851563-10.210937-9.503906-21.664062-12.570313-27.46875l14.960938-14.964843c5.375-5.367188 8.332031-12.503907 8.332031-20.101563 0-5.714844-1.671875-11.167968-4.789062-15.808594 5.097656-1.257812 9.929687-3.875 13.90625-7.851562l15.714843-15.714844c6.480469 10.246094 9.726563 22.253906 9.230469 34.5625zm-32.675781-95.988281c3.804687 0 7.605469 1.449219 10.5 4.34375l13.910156 13.90625c2.804687 2.804687 4.347656 6.53125 4.347656 10.5s-1.542969 7.699219-4.347656 10.503906l-5.457031 5.457031c-.015625.015626-.035156.03125-.046875.046876l-21.78125 21.777343c-5.789063 5.789063-15.210938 5.789063-21 0l-13.90625-13.90625c-5.792969-5.792969-5.792969-15.214843-.003907-21.003906l27.285157-27.28125c2.894531-2.898437 6.695312-4.34375 10.5-4.34375zm-107.816407 13.292969c20.167969-20.167969 51.804688-23.109375 75.226563-8.070313l-15.800781 15.796875c-3.953125 3.953125-6.5625 8.75-7.828125 13.816406-11.078125-7.703124-26.460938-6.632812-36.332031 3.238282l-51.820313 51.816406c-5.519531 5.519531-14.5 5.519531-20.027344-.003906-2.675781-2.667969-4.144531-6.222656-4.144531-10.007813 0-3.773437 1.472656-7.328125 4.152344-10.007812zm-286.589843 98.832031c-2.539063-2.535156-3.933594-5.90625-3.933594-9.496094 0-3.585937 1.394531-6.957031 3.933594-9.496093l42.632812-42.625c5.238281-5.238282 13.757813-5.238282 18.996094 0l12.25 12.246093c-10.363281 6.816407-20.148437 14.582031-29.207031 23.199219l-3.785156-3.785156c-2.929688-2.925782-7.675782-2.925782-10.605469 0-2.925781 2.929687-2.925781 7.679687 0 10.609375l3.898437 3.894531c-7.988281 8.761719-15.1875 18.175781-21.53125 28.101562zm47.3125-114.609375c15.167969.605469 29.441406 6.859375 40.1875 17.605469l26.945312 26.949219c-9.421875 3.554687-18.578125 7.796874-27.367187 12.671874l-14.84375-14.84375c-9.742188-9.742187-24.859375-10.917968-35.898438-3.53125-1.289062-5.222656-3.972656-10.011718-7.875-13.910156l-15.714844-15.710937c10.25-6.480469 22.265626-9.726563 34.566407-9.230469zm-91.648438 22.171875 13.90625-13.90625c2.894531-2.894531 6.695313-4.339844 10.5-4.339844 3.804688 0 7.605469 1.445313 10.503907 4.339844l5.433593 5.4375c.027344.023437.054688.054687.082031.078125l21.769532 21.765625c2.804687 2.808594 4.347656 6.535156 4.347656 10.503906s-1.542969 7.695313-4.347656 10.5l-13.910156 13.90625c-5.789063 5.789063-15.210938 5.792969-21.003907 0l-27.28125-27.28125c-2.808593-2.804687-4.351562-6.535156-4.351562-10.503906 0-3.964844 1.542969-7.695313 4.351562-10.5zm.882813 43.097656 15.792968 15.792969c3.953126 3.953125 8.75 6.558594 13.8125 7.828125-3.300781 4.726563-5.085937 10.335937-5.085937 16.222656 0 7.59375 2.960937 14.734375 8.328125 20.101563l51.820312 51.816406c5.519532 5.519531 5.519532 14.503906-.003906 20.03125-2.664062 2.667969-6.21875 4.136719-10.011718 4.136719-3.777344 0-7.332032-1.46875-10.003907-4.140625l-56.585937-56.582032c-20.167969-20.164062-23.105469-51.792968-8.0625-75.207031zm0 0"/><path d="m154.957031 282.402344-36.808593 32.625c-5.808594 5.148437-6.347657 14.0625-1.199219 19.871094l20.28125 22.878906c.023437.023437.042969.050781.0625.078125.019531.019531.035156.035156.054687.050781l19.453125 21.945312c2.773438 3.132813 6.648438 4.730469 10.539063 4.730469 3.320312 0 6.652344-1.164062 9.328125-3.535156l36.808593-32.628906c5.8125-5.144531 6.347657-14.0625 1.199219-19.871094l-39.847656-44.949219c-5.148437-5.808594-14.0625-6.34375-19.871094-1.195312zm9.257813 11.835937 14.460937 16.308594-35.203125 31.664063-14.6875-16.570313zm3.195312 74.972657-13.984375-15.777344 35.199219-31.660156 14.214844 16.03125zm0 0"/><path d="m338.1875 133.53125-52.800781 46.796875c-3.042969 2.699219-4.851563 6.421875-5.097657 10.480469-.242187 4.058594 1.105469 7.96875 3.804688 11.011718l38.328125 43.234376c2.695313 3.042968 6.417969 4.851562 10.476563 5.097656.3125.019531.625.027344.933593.027344 3.722657 0 7.273438-1.34375 10.078125-3.832032l52.800782-46.800781c3.042968-2.695313 4.851562-6.417969 5.097656-10.476563.246094-4.0625-1.105469-7.972656-3.804688-11.015624l-38.324218-43.230469c-5.570313-6.28125-15.210938-6.859375-21.492188-1.292969zm48.648438 54.636719c-.003907.09375-.046876.132812-.074219.152343v.003907l-52.800781 46.796875c-.027344.023437-.058594.070312-.160157.058594-.09375-.003907-.132812-.050782-.15625-.074219l-38.324219-43.234375c-.023437-.023438-.0625-.070313-.058593-.160156.007812-.09375.050781-.132813.074219-.15625l52.800781-46.796876c.042969-.039062.097656-.058593.148437-.058593.066406 0 .125.023437.167969.074219l38.328125 43.234374c.023438.023438.0625.070313.054688.160157zm0 0"/></svg>