<svg height="512" width="512" xmlns="http://www.w3.org/2000/svg"><path d="M336 128l-32 72v48h-96v-48l-32-72 80-40-40 48 24 32h32l24-32-40-48z" fill="#aedef8"/><path d="M312 392l-24-24-32-88-32 88-24 24 8-128v-16h96v16z" fill="#00587e"/><path d="M248 168l-4.862-24.31C241.515 135.572 247.723 128 256 128c8.277 0 14.485 7.573 12.862 15.69L264 168z" fill="#feea01"/><path d="M256 168l-16 56 16 24 16-24z" fill="#00a8e7"/><path d="M472 200v32l-40 72v48h-96v-48l-32-72v-32l64 72h32z" fill="#aedef8"/><path d="M448 456h-16l-48-72-32 32h-16v-64h96v16z" fill="#00587e"/><path d="M392 272l4.862-24.31C398.485 239.572 392.277 232 384 232c-8.277 0-14.485 7.573-12.862 15.69L376 272z" fill="#feea01"/><path d="M384 272l16 56-16 24-16-24z" fill="#00a8e7"/><path d="M208 200v32l-32 72v48H80v-48l-40-72v-32l72 72h32z" fill="#aedef8"/><path d="M176 352v64h-16l-32-32-48 72H64l16-88v-16z" fill="#00587e"/><path d="M120 272l-4.862-24.31C113.515 239.572 119.723 232 128 232c8.277 0 14.485 7.573 12.862 15.69L136 272z" fill="#feea01"/><path d="M128 272l-16 56 16 24 16-24zM504 504H8l40-48h72l40-40h16l16-16 32 32 32-32 32 32 32-32 16 16h16l40 40h72z" fill="#00a8e7"/><path d="M320 400l-32 32-32-32-32 32-32-32 64-64z" fill="#aedef8"/><path d="M256 96a8 8 0 01-8-8V8a8 8 0 0116 0v80a8 8 0 01-8 8z" fill="#ffec00"/><path d="M256 8h80v32l-80 24z" fill="#e22526"/><path d="M320 48v32l96-56h-80v16z" fill="#be202e"/></svg>