<svg id="flat" enable-background="new 0 0 512 512" height="512" viewBox="0 0 512 512" width="512" xmlns="http://www.w3.org/2000/svg"><path d="m336 128-32 72v48h-96v-48l-32-72 80-40-40 48 24 32h32l24-32-40-48z" fill="#aedef8"/><path d="m312 392-24-24-32-88-32 88-24 24 8-128v-16h96v16z" fill="#00587e"/><path d="m248 168-4.8621521-24.31073c-1.6233063-8.1165924 4.5847931-15.68927 12.8621368-15.68927h.0000458c8.2773132 0 14.4854431 7.5726776 12.8621216 15.68927l-4.8621521 24.31073z" fill="#feea01"/><path d="m256 168-16 56 16 24 16-24z" fill="#00a8e7"/><path d="m472 200v32l-40 72v48h-96v-48l-32-72v-32l64 72h32z" fill="#aedef8"/><path d="m448 456h-16l-48-72-32 32h-16v-64h96v16z" fill="#00587e"/><path d="m392 272 4.8621521-24.31073c1.6233215-8.1165924-4.5848083-15.68927-12.8621216-15.68927h-.000061c-8.2773132 0-14.4854431 7.5726776-12.8621216 15.68927l4.8621521 24.31073z" fill="#feea01"/><path d="m384 272 16 56-16 24-16-24z" fill="#00a8e7"/><path d="m208 200v32l-32 72v48h-96v-48l-40-72v-32l72 72h32z" fill="#aedef8"/><path d="m176 352v64h-16l-32-32-48 72h-16l16-88v-16z" fill="#00587e"/><path d="m120 272-4.8621445-24.31073c-1.6233215-8.1165924 4.5847855-15.68927 12.8621292-15.68927h.0000305c8.2773438 0 14.4854431 7.5726776 12.8621368 15.68927l-4.862152 24.31073z" fill="#feea01"/><path d="m128 272-16 56 16 24 16-24z" fill="#00a8e7"/><path d="m504 504h-496l40-48h72l40-40h16l16-16 32 32 32-32 32 32 32-32 16 16h16l40 40h72z" fill="#00a8e7"/><path d="m320 400-32 32-32-32-32 32-32-32 64-64z" fill="#aedef8"/><path d="m256 96c-4.4179688 0-8-3.5820313-8-8v-80c0-4.4179688 3.5820313-8 8-8s8 3.5820313 8 8v80c0 4.4179688-3.5820312 8-8 8z" fill="#ffec00"/><path d="m256 8h80v32l-80 24z" fill="#e22526"/><path d="m320 48v32l96-56h-80v16z" fill="#be202e"/></svg>