<svg height="512" width="512" xmlns="http://www.w3.org/2000/svg"><path d="M315.908 504.509H196.092l19.694-64.27h80.428z" fill="#90abbd"/><path d="M512 108.066v286.23c0 29.466-23.95 53.438-53.38 53.438H53.38C23.95 447.734 0 423.762 0 394.296v-286.23C0 78.6 23.95 54.628 53.38 54.628h405.24c29.43-.001 53.38 23.971 53.38 53.438z" fill="#56788b"/><path d="M512 108.066v286.23c0 29.466-23.95 53.438-53.38 53.438h-20c29.43 0 53.38-23.972 53.38-53.438v-286.23c0-29.466-23.95-53.438-53.38-53.438h20c29.43-.001 53.38 23.971 53.38 53.438z" fill="#415e6f"/><path d="M482.08 106.827V364.57c0 13.085-10.64 23.733-23.72 23.733H53.64c-13.08 0-23.72-10.648-23.72-23.733V106.827c0-13.085 10.64-23.733 23.72-23.733h404.72c13.08 0 23.72 10.648 23.72 23.733z" fill="#d9f0f4"/><path d="M482.08 106.827V364.57c0 13.085-10.64 23.733-23.72 23.733h-20c13.08 0 23.72-10.648 23.72-23.733V106.827c0-13.085-10.64-23.733-23.72-23.733h20c13.08 0 23.72 10.648 23.72 23.733z" fill="#bae1e5"/><path d="M354.717 497.017H157.283c-4.142 0-7.5 3.354-7.5 7.491s3.358 7.491 7.5 7.491h197.434c4.142 0 7.5-3.354 7.5-7.491s-3.358-7.491-7.5-7.491z" fill="#56788b"/><g fill="#415e6f"><path d="M94.694 411.054H64.055c-4.142 0-7.5 3.354-7.5 7.491s3.358 7.491 7.5 7.491h30.639c4.142 0 7.5-3.354 7.5-7.491s-3.358-7.491-7.5-7.491zM154.694 411.054h-30.639c-4.142 0-7.5 3.354-7.5 7.491s3.358 7.491 7.5 7.491h30.639c4.142 0 7.5-3.354 7.5-7.491s-3.358-7.491-7.5-7.491z"/></g><path d="M419.86 380.811c0 17.81-14.49 32.293-32.3 32.293H248.38c-17.81 0-32.3-14.483-32.3-32.293 0-17.809 14.49-32.303 32.3-32.303h2.81l16.87-23.273a7.512 7.512 0 016.08-3.097c2.4 0 4.66 1.149 6.07 3.097l16.88 23.273h90.47c17.81 0 32.3 14.494 32.3 32.303z" fill="#fbdf63"/><path d="M419.86 380.811c0 17.81-14.49 32.293-32.3 32.293h-20c17.81 0 32.3-14.483 32.3-32.293 0-17.809-14.49-32.303-32.3-32.303h20c17.81 0 32.3 14.494 32.3 32.303z" fill="#ffa402"/><path d="M317.03 61.09c0 33.681-27.43 61.09-61.15 61.09-3.41 0-6.75-.28-10-.829-28.99-4.775-51.16-29.985-51.16-60.261S216.89 5.604 245.88.829c3.25-.549 6.59-.829 10-.829 33.72 0 61.15 27.408 61.15 61.09z" fill="#4dd4f7"/><path d="M317.03 61.09c0 33.681-27.43 61.09-61.15 61.09-3.41 0-6.75-.28-10-.829 28.98-4.775 51.15-29.985 51.15-60.261S274.86 5.604 245.88.829c3.25-.549 6.59-.829 10-.829 33.72 0 61.15 27.408 61.15 61.09z" fill="#00c2f3"/><path d="M255.875 33.453c-15.256 0-27.668 12.398-27.668 27.637s12.412 27.637 27.668 27.637c15.257 0 27.669-12.398 27.669-27.637s-12.412-27.637-27.669-27.637z" fill="#56788b"/><g><path d="M183.94 235.109c0 17.08-7.76 32.383-19.95 42.571-9.65 8.081-22.08 12.945-35.63 12.945s-25.98-4.864-35.63-12.945c-12.19-10.188-19.95-25.491-19.95-42.571 0-30.615 24.93-55.516 55.58-55.516 30.64 0 55.58 24.901 55.58 55.516z" fill="#fff"/><path d="M163.99 274.054v3.626c-9.65 8.081-22.08 12.945-35.63 12.945s-25.98-4.864-35.63-12.945v-3.626c0-19.687 15.65-35.11 35.63-35.11 19.98.001 35.63 15.423 35.63 35.11z" fill="#ff6b81"/><ellipse cx="128.358" cy="231.451" fill="#fdd9b4" rx="22.5" ry="22.474"/></g><g><path d="M311.455 235.109c0 17.08-7.76 32.383-19.95 42.571-9.65 8.081-22.08 12.945-35.63 12.945s-25.98-4.864-35.63-12.945c-12.19-10.188-19.95-25.491-19.95-42.571 0-30.615 24.93-55.516 55.58-55.516 30.64 0 55.58 24.901 55.58 55.516z" fill="#fff"/><path d="M291.505 274.054v3.626c-9.65 8.081-22.08 12.945-35.63 12.945s-25.98-4.864-35.63-12.945v-3.626c0-19.687 15.65-35.11 35.63-35.11 19.98.001 35.63 15.423 35.63 35.11z" fill="#09eaa3"/><ellipse cx="255.873" cy="231.451" fill="#fdd9b4" rx="22.5" ry="22.474"/></g><g><path d="M438.972 235.109c0 17.08-7.76 32.383-19.95 42.571-9.65 8.081-22.08 12.945-35.63 12.945s-25.98-4.864-35.63-12.945c-12.19-10.188-19.95-25.491-19.95-42.571 0-30.615 24.93-55.516 55.58-55.516 30.64 0 55.58 24.901 55.58 55.516z" fill="#fff"/><path d="M419.022 274.054v3.626c-9.65 8.081-22.08 12.945-35.63 12.945s-25.98-4.864-35.63-12.945v-3.626c0-19.687 15.65-35.11 35.63-35.11 19.98.001 35.63 15.423 35.63 35.11z" fill="#4dd4f7"/><ellipse cx="383.39" cy="231.451" fill="#fdd9b4" rx="22.5" ry="22.474"/></g></svg>