<svg xmlns="http://www.w3.org/2000/svg" width="512" height="512"><path d="M126.78 116.808c-13.789-8.417-32.477-2.913-42.28 9.076V92.095c14.458-14.366 12.673-44.52-7.238-53.439C57.965 48.054 55.518 76.444 69.5 91.32v34.44c-9.807-11.875-28.461-17.373-42.179-8.952-3.142 21.974 22.06 39.727 42.179 34.515v34.833h15v-34.86c20.083 5.274 45.504-12.47 42.28-34.488z" fill="#b3e59f"/><path fill="#ffe09f" d="M0 300.25h165.5v80H0zM0 380.25h165.5v78H0z"/><path fill="#f6d190" d="M125.5 300.25h40v80h-40zM125.5 380.25h40v78h-40z"/><path d="M171.426 16.134c0-6.84 5.544-12.384 12.383-12.384h279.809c6.84 0 12.383 5.544 12.383 12.384v182.545c0 6.839-5.543 12.383-12.383 12.383H183.809c-6.839 0-12.383-5.544-12.383-12.383V16.134z" fill="#857e87"/><path d="M463.617 3.75h-40c6.84 0 12.383 5.544 12.383 12.384v182.545c0 6.839-5.543 12.383-12.383 12.383h40c6.84 0 12.383-5.544 12.383-12.383V16.134c0-6.84-5.543-12.384-12.383-12.384z" fill="#5d5360"/><path fill="#dfdde0" d="M292.055 209.063h63.316v44.312h-63.316z"/><path fill="#c8c5c9" d="M335.371 209.063h20v44.312h-20z"/><path d="M171.426 198.679c0 6.839 5.544 12.383 12.383 12.383h279.809c6.84 0 12.383-5.544 12.383-12.383v-29.617H171.426v29.617z" fill="#f0eef0"/><path d="M436 169.063v29.617c0 6.839-5.543 12.383-12.383 12.383h40c6.84 0 12.383-5.544 12.383-12.383v-29.617h-40z" fill="#dfdde0"/><path d="M119.953 180.656c2.791 0 5.054 2.287 5.002 5.077-.662 35.437-8.882 66.423-49.454 66.423-41.531 0-48.88-30.992-49.46-66.432-.046-2.787 2.214-5.068 5.002-5.068h88.91z" fill="#ff8086"/><path d="M119.953 180.656h-30c2.791 0 5.054 2.287 5.002 5.078-.572 30.599-6.798 57.86-34.601 64.739 4.465 1.088 9.478 1.684 15.147 1.684 40.573 0 48.792-30.986 49.454-66.423.052-2.791-2.211-5.078-5.002-5.078z" fill="#e5646e"/><g><path d="M504.5 245.605H7.5a7.5 7.5 0 00-7.5 7.5v56.645h497v191c0 9.673 15 9.673 15 0V253.105a7.5 7.5 0 00-7.5-7.5z" fill="#e2a975"/><path d="M504.5 245.605h-40a7.5 7.5 0 017.5 7.5v56.645h25v191c0 9.673 15 9.673 15 0V253.105a7.5 7.5 0 00-7.5-7.5z" fill="#c38c66"/><path fill="#e2a975" d="M0 372.75h165.5v15H0z"/><path fill="#c38c66" d="M125.5 372.75h40v15h-40z"/><path d="M0 450.75v49.686c0 9.805 15 10.168 15 .314v-35h135.5v35.245c0 9.613 15 9.242 15-.245v-50H0z" fill="#e2a975"/><path d="M125.5 450.75v15h25v35.154c0 9.677 15 9.382 15-.154v-50h-40z" fill="#c38c66"/><g><path d="M111.5 348.75h-57c-9.673 0-9.673-15 0-15h57c9.673 0 9.673 15 0 15z" fill="#c38c66"/></g><g><path d="M111.5 426.75h-57c-9.673 0-9.673-15 0-15h57c9.673 0 9.673 15 0 15z" fill="#c38c66"/></g></g><g><path d="M438.107 81.656v215.5s-49-20.5-49-108.5 49-107 49-107zM438.527 338.416c-.389 34.112-6.184 55.74-44.42 55.74h-162s-6-56 72-56h134" fill="#b3e59f"/><path d="M440 493.25h-96v-91.594h50.106c17.218 0 29.664-4.151 38.052-12.69 14.699-14.965 14.251-40.022 13.684-71.747-.116-6.454-.235-235.563-.235-235.563 0-9.673-15-9.673-15 0 0 0 .121 229.312.237 235.832.505 28.209.904 50.491-9.387 60.967-5.421 5.519-14.367 8.201-27.351 8.201h-162c-9.673 0-9.673 15 0 15H329v13.5h-29.5c-9.673 0-9.673 15 0 15H329v63.094h-96c-9.673 0-9.673 15 0 15h207c9.673 0 9.673-15 0-15z" fill="#95d6a4"/></g></svg>